{
.appVersion = "3148";
classes = (
{
automatic = 1;
code = "A Aacute Abreve Acaron Acircumflex Adieresis Agrave Amacron Aogonek Aring Aringacute Atilde AE AEacute B Bdotaccent C Cacute Ccaron Ccedilla Ccircumflex Cdotaccent D Eth Dcaron Dcroat Ddotaccent E Eacute Ebreve Ecaron Ecircumflex Edieresis Edotaccent Egrave Emacron Eogonek F Fdotaccent G Gbreve Gcaron Gcircumflex Gcommaaccent Gdotaccent H Hbar Hcircumflex I IJ Iacute Ibreve Icaron Icircumflex Idieresis Idotaccent Igrave Imacron Iogonek Itilde J Jcircumflex K Kcommaaccent L Lacute Lcaron Lcommaaccent Ldot Lslash M Mdotaccent N Nacute Ncaron Ncommaaccent Eng Ntilde O Oacute Ocaron Ocircumflex Odieresis Ograve Ohungarumlaut Omacron Oslash Oslashacute Otilde OE P Pdotaccent Thorn Q R Racute Rcaron Rcommaaccent S Sacute Scaron Scedilla Scircumflex Scommaaccent Sdotaccent Germandbls Schwa T Tbar Tcaron Tcedilla Tcommaaccent Tdotaccent U Uacute Ubreve Ucaron Ucircumflex Udieresis Ugrave Uhungarumlaut Umacron Uogonek Uring Utilde V W Wacute Wcircumflex Wdieresis Wgrave X Y Yacute Ycircumflex Ydieresis Ygrave Z Zacute Zcaron Zdotaccent A-cy Be-cy Ve-cy Ge-cy Gheupturn-cy De-cy Ie-cy Zhe-cy Ze-cy Ii-cy Iishort-cy Ka-cy El-cy Em-cy En-cy O-cy Pe-cy Er-cy Es-cy Te-cy U-cy Ef-cy Ha-cy Che-cy Tse-cy Sha-cy Shcha-cy Softsign-cy E-cy I-cy Yi-cy Iu-cy Ia-cy";
name = Uppercase;
}
);
copyright = "Maksym Kobuzan";
customParameters = (
{
name = license;
value = OFL;
},
{
name = note;
value = "H ———— 90%\012n ———— 80%?";
}
);
date = "2022-09-11 18:57:53 +0000";
designer = "Maksym Kobuzan";
designerURL = "https://www.behance.net/mkobuzan";
familyName = "Nyght Serif";
featurePrefixes = (
{
automatic = 1;
code = "languagesystem DFLT dflt;\012\012languagesystem latn dflt;\012languagesystem latn AZE;\012languagesystem latn CRT;\012languagesystem latn KAZ;\012languagesystem latn TAT;\012languagesystem latn TRK;\012languagesystem latn ROM;\012languagesystem latn MOL;\012languagesystem latn CAT;\012";
name = Languagesystems;
}
);

glyphs = (
{
color = 4;
glyphname = A;
lastChange = "2022-12-21 07:58:30 +0000";
layers = (
{
anchors = (
{
name = ogonek;
position = "{604, 0}";
},
{
name = top;
position = "{465, 712}";
}
);
background = {
paths = (
{
closed = 1;
nodes = (
"34 107 OFFCURVE",
"181 314 CURVE SMOOTH",
"317 505 LINE",
"393 25 LINE",
"316 5 LINE",
"315 0 LINE",
"628 0 LINE",
"630 5 LINE",
"593 25 LINE",
"476 739 LINE",
"471 739 LINE",
"-38 25 LINE",
"-86 5 LINE",
"-87 0 LINE",
"163 0 LINE",
"164 5 LINE",
"142 10 LINE SMOOTH",
"51 31 OFFCURVE"
);
},
{
closed = 1;
nodes = (
"376 270 LINE",
"377 282 LINE",
"151 282 LINE",
"146 270 LINE"
);
}
);
};
layerId = "C1BD152E-BBB7-4B88-9DA3-7174D04C5495";
paths = (
{
closed = 1;
nodes = (
"-87 5 LINE",
"-87 0 LINE",
"164 0 LINE",
"164 5 LINE",
"142 10 LINE SMOOTH",
"59 29 OFFCURVE",
"29 97 OFFCURVE",
"198 335 CURVE SMOOTH",
"318 504 LINE",
"393 25 LINE",
"316 5 LINE",
"316 0 LINE",
"630 0 LINE",
"630 5 LINE",
"593 25 LINE",
"476 739 LINE",
"471 739 LINE",
"-38 25 LINE"
);
},
{
closed = 1;
nodes = (
"377 270 LINE",
"378 282 LINE",
"151 282 LINE",
"146 270 LINE"
);
}
);
width = 686;
}
);
leftKerningGroup = A;
rightKerningGroup = A;
unicode = 0041;
},
{
glyphname = Aogonek;
lastChange = "2022-12-24 19:11:39 +0000";
layers = (
{
anchors = (
{
name = ogonek;
position = "{604, 0}";
},
{
name = top;
position = "{465, 712}";
}
);
background = {
paths = (
{
closed = 1;
nodes = (
"59 29 OFFCURVE",
"29 97 OFFCURVE",
"198 335 CURVE SMOOTH",
"318 504 LINE",
"393 25 LINE",
"316 5 LINE",
"316 0 LINE",
"630 0 LINE",
"630 5 LINE",
"593 25 LINE",
"476 739 LINE",
"471 739 LINE",
"-38 25 LINE",
"-87 5 LINE",
"-87 0 LINE",
"164 0 LINE",
"164 5 LINE",
"142 10 LINE SMOOTH"
);
},
{
closed = 1;
nodes = (
"377 270 LINE",
"378 282 LINE",
"151 282 LINE",
"146 270 LINE"
);
},
{
closed = 1;
nodes = (
"521 -43 OFFCURVE",
"428 -90 OFFCURVE",
"428 -161 CURVE SMOOTH",
"428 -204 OFFCURVE",
"463 -237 OFFCURVE",
"511 -237 CURVE SMOOTH",
"564 -237 OFFCURVE",
"610 -196 OFFCURVE",
"648 -144 CURVE",
"639 -144 LINE",
"630 -156 OFFCURVE",
"613 -173 OFFCURVE",
"588 -173 CURVE SMOOTH",
"561 -173 OFFCURVE",
"540 -154 OFFCURVE",
"540 -116 CURVE SMOOTH",
"540 -67 OFFCURVE",
"574 -26 OFFCURVE",
"611 4 CURVE",
"603 4 LINE"
);
}
);
};
layerId = "C1BD152E-BBB7-4B88-9DA3-7174D04C5495";
paths = (
{
closed = 1;
nodes = (
"59 29 OFFCURVE",
"29 97 OFFCURVE",
"198 335 CURVE SMOOTH",
"318 504 LINE",
"393 25 LINE",
"316 5 LINE",
"316 0 LINE",
"630 0 LINE",
"630 5 LINE",
"593 25 LINE",
"476 739 LINE",
"471 739 LINE",
"-38 25 LINE",
"-87 5 LINE",
"-87 0 LINE",
"164 0 LINE",
"164 5 LINE",
"142 10 LINE SMOOTH"
);
},
{
closed = 1;
nodes = (
"377 270 LINE",
"378 282 LINE",
"151 282 LINE",
"146 270 LINE"
);
},
{
closed = 1;
nodes = (
"579 -2 LINE",
"500 -48 OFFCURVE",
"417 -93 OFFCURVE",
"417 -161 CURVE SMOOTH",
"417 -204 OFFCURVE",
"452 -237 OFFCURVE",
"500 -237 CURVE SMOOTH",
"553 -237 OFFCURVE",
"599 -196 OFFCURVE",
"637 -144 CURVE",
"628 -144 LINE",
"619 -156 OFFCURVE",
"602 -173 OFFCURVE",
"577 -173 CURVE SMOOTH",
"550 -173 OFFCURVE",
"529 -154 OFFCURVE",
"529 -116 CURVE SMOOTH",
"529 -67 OFFCURVE",
"564 -26 OFFCURVE",
"601 4 CURVE",
"579 4 LINE"
);
}
);
width = 686;
}
);
leftKerningGroup = A;
leftMetricsKey = A;
rightKerningGroup = A;
unicode = 0104;
},
{
color = 4;
glyphname = Aringacute;
lastChange = "2022-12-23 16:43:04 +0000";
layers = (
{
anchors = (
{
name = _top;
position = "{465, 712}";
}
);
background = {
paths = (
{
closed = 1;
nodes = (
"569 730 OFFCURVE",
"617 775 OFFCURVE",
"617 834 CURVE SMOOTH",
"617 898 OFFCURVE",
"572 944 OFFCURVE",
"506 944 CURVE SMOOTH",
"432 944 OFFCURVE",
"384 901 OFFCURVE",
"384 838 CURVE SMOOTH",
"384 776 OFFCURVE",
"429 730 OFFCURVE",
"496 730 CURVE SMOOTH"
);
},
{
closed = 1;
nodes = (
"436 741 OFFCURVE",
"395 782 OFFCURVE",
"395 838 CURVE SMOOTH",
"395 896 OFFCURVE",
"439 933 OFFCURVE",
"506 933 CURVE SMOOTH",
"565 933 OFFCURVE",
"606 893 OFFCURVE",
"606 834 CURVE SMOOTH",
"606 779 OFFCURVE",
"562 741 OFFCURVE",
"496 741 CURVE SMOOTH"
);
},
{
closed = 1;
nodes = (
"533 931 LINE",
"624 980 OFFCURVE",
"728 1047 OFFCURVE",
"786 1101 CURVE",
"787 1106 LINE",
"636 1106 LINE",
"609 1051 OFFCURVE",
"567 980 OFFCURVE",
"528 931 CURVE"
);
}
);
};
components = (
{
name = A;
}
);
layerId = "C1BD152E-BBB7-4B88-9DA3-7174D04C5495";
paths = (
{
closed = 1;
nodes = (
"565 730 OFFCURVE",
"617 777 OFFCURVE",
"617 840 CURVE SMOOTH",
"617 900 OFFCURVE",
"572 944 OFFCURVE",
"506 944 CURVE SMOOTH",
"436 944 OFFCURVE",
"384 899 OFFCURVE",
"384 832 CURVE SMOOTH",
"384 774 OFFCURVE",
"429 730 OFFCURVE",
"496 730 CURVE SMOOTH"
);
},
{
closed = 1;
nodes = (
"436 741 OFFCURVE",
"395 780 OFFCURVE",
"395 832 CURVE SMOOTH",
"395 894 OFFCURVE",
"443 933 OFFCURVE",
"506 933 CURVE SMOOTH",
"565 933 OFFCURVE",
"606 895 OFFCURVE",
"606 840 CURVE SMOOTH",
"606 781 OFFCURVE",
"558 741 OFFCURVE",
"496 741 CURVE SMOOTH"
);
},
{
closed = 1;
nodes = (
"533 931 LINE",
"624 980 OFFCURVE",
"728 1047 OFFCURVE",
"786 1101 CURVE",
"787 1106 LINE",
"636 1106 LINE",
"609 1051 OFFCURVE",
"567 980 OFFCURVE",
"528 931 CURVE"
);
}
);
width = 686;
}
);
leftKerningGroup = A;
leftMetricsKey = A;
rightKerningGroup = A;
rightMetricsKey = A;
unicode = 01FA;
},
{
color = 4;
glyphname = AE;
lastChange = "2022-12-22 12:07:15 +0000";
layers = (
{
anchors = (
{
name = top;
position = "{620, 712}";
}
);
background = {
paths = (
{
closed = 1;
nodes = (
"420 284 LINE",
"346 25 LINE",
"297 1 LINE",
"296 0 LINE",
"458 0 LINE",
"662 712 LINE",
"446 712 LINE",
"445 707 LINE",
"522 688 LINE",
"-69 25 LINE",
"-114 5 LINE",
"-116 0 LINE",
"136 0 LINE",
"138 5 LINE",
"117 11 LINE SMOOTH",
"10 42 OFFCURVE",
"4 89 OFFCURVE",
"182 290 CURVE SMOOTH",
"531 683 LINE",
"534 683 LINE",
"423 296 LINE",
"184 296 LINE",
"177 284 LINE"
);
},
{
closed = 1;
nodes = (
"792 91 OFFCURVE",
"691 18 OFFCURVE",
"524 11 CURVE",
"524 11 LINE",
"625 363 LINE",
"625 363 LINE",
"701 358 OFFCURVE",
"731 310 OFFCURVE",
"720 202 CURVE",
"724 202 LINE",
"816 523 LINE",
"812 523 LINE",
"764 427 OFFCURVE",
"707 379 OFFCURVE",
"628 373 CURVE",
"628 373 LINE",
"722 701 LINE",
"722 701 LINE",
"847 701 OFFCURVE",
"897 646 OFFCURVE",
"904 534 CURVE SMOOTH",
"905 508 LINE",
"910 508 LINE",
"956 770 LINE",
"952 770 LINE",
"923 712 LINE",
"482 712 LINE",
"481 707 LINE",
"535 686 LINE",
"346 25 LINE",
"280 5 LINE",
"278 0 LINE",
"782 0 LINE",
"891 257 LINE",
"886 257 LINE",
"869 228 LINE SMOOTH"
);
}
);
};
layerId = "C1BD152E-BBB7-4B88-9DA3-7174D04C5495";
paths = (
{
closed = 1;
nodes = (
"420 284 LINE",
"346 25 LINE",
"297 1 LINE",
"296 0 LINE",
"458 0 LINE",
"662 712 LINE",
"445 712 LINE",
"445 707 LINE",
"520 688 LINE",
"-69 25 LINE",
"-116 5 LINE",
"-116 0 LINE",
"135 0 LINE",
"135 5 LINE",
"117 10 LINE SMOOTH",
"20 37 OFFCURVE",
"3 83 OFFCURVE",
"185 290 CURVE SMOOTH",
"531 683 LINE",
"534 683 LINE",
"423 296 LINE",
"182 296 LINE",
"175 284 LINE"
);
},
{
closed = 1;
nodes = (
"818 96 OFFCURVE",
"685 12 OFFCURVE",
"530 11 CURVE",
"530 11 LINE",
"631 363 LINE",
"631 363 LINE",
"693 358 OFFCURVE",
"732 318 OFFCURVE",
"725 202 CURVE",
"731 202 LINE",
"823 523 LINE",
"817 523 LINE",
"770 428 OFFCURVE",
"721 379 OFFCURVE",
"634 373 CURVE",
"634 373 LINE",
"728 701 LINE",
"728 701 LINE",
"831 701 OFFCURVE",
"887 637 OFFCURVE",
"916 533 CURVE SMOOTH",
"923 508 LINE",
"928 508 LINE",
"928 770 LINE",
"923 770 LINE",
"901 712 LINE",
"480 712 LINE",
"480 707 LINE",
"539 687 LINE",
"349 25 LINE",
"279 5 LINE",
"279 0 LINE",
"812 0 LINE",
"917 257 LINE",
"910 257 LINE",
"894 229 LINE SMOOTH"
);
}
);
width = 926;
}
);
leftKerningGroup = AE;
rightKerningGroup = E;
rightMetricsKey = E;
unicode = 00C6;
},
{
color = 4;
glyphname = B;
lastChange = "2023-01-13 21:05:19 +0000";
layers = (
{
anchors = (
{
name = top;
position = "{436, 712}";
}
);
background = {
paths = (
{
closed = 1;
nodes = (
"567 467 OFFCURVE",
"664 516 OFFCURVE",
"664 582 CURVE SMOOTH",
"664 644 OFFCURVE",
"576 712 OFFCURVE",
"403 712 CURVE SMOOTH",
"152 712 LINE",
"150 707 LINE",
"205 687 LINE",
"15 25 LINE",
"-51 5 LINE",
"-53 0 LINE",
"259 0 LINE SMOOTH",
"505 0 OFFCURVE",
"624 107 OFFCURVE",
"624 237 CURVE SMOOTH",
"624 362 OFFCURVE",
"515 423 OFFCURVE",
"474 440 CURVE",
"474 442 LINE"
);
},
{
closed = 1;
nodes = (
"454 699 OFFCURVE",
"504 657 OFFCURVE",
"504 570 CURVE SMOOTH",
"504 461 OFFCURVE",
"424 391 OFFCURVE",
"353 391 CURVE SMOOTH",
"308 391 LINE",
"397 701 LINE",
"397 701 LINE SMOOTH"
);
},
{
closed = 1;
nodes = (
"305 380 LINE",
"317 380 LINE SMOOTH",
"375 380 OFFCURVE",
"434 319 OFFCURVE",
"434 206 CURVE SMOOTH",
"434 94 OFFCURVE",
"376 11 OFFCURVE",
"249 11 CURVE SMOOTH",
"199 11 LINE"
);
}
);
};
layerId = "C1BD152E-BBB7-4B88-9DA3-7174D04C5495";
paths = (
{
closed = 1;
nodes = (
"566 459 OFFCURVE",
"662 506 OFFCURVE",
"662 580 CURVE SMOOTH",
"662 646 OFFCURVE",
"586 712 OFFCURVE",
"407 712 CURVE SMOOTH",
"146 712 LINE",
"144 707 LINE",
"199 687 LINE",
"9 25 LINE",
"-57 5 LINE",
"-59 0 LINE",
"309 0 LINE SMOOTH",
"529 0 OFFCURVE",
"628 96 OFFCURVE",
"628 225 CURVE SMOOTH",
"628 352 OFFCURVE",
"518 419 OFFCURVE",
"467 435 CURVE",
"467 437 LINE"
);
},
{
closed = 1;
nodes = (
"460 701 OFFCURVE",
"504 663 OFFCURVE",
"504 573 CURVE SMOOTH",
"504 460 OFFCURVE",
"427 391 OFFCURVE",
"353 391 CURVE SMOOTH",
"302 391 LINE",
"391 701 LINE",
"409 701 LINE SMOOTH"
);
},
{
closed = 1;
nodes = (
"299 380 LINE",
"323 380 LINE SMOOTH",
"376 380 OFFCURVE",
"440 318 OFFCURVE",
"440 205 CURVE SMOOTH",
"440 80 OFFCURVE",
"370 11 OFFCURVE",
"279 11 CURVE SMOOTH",
"193 11 LINE"
);
}
);
width = 671;
}
);
leftKerningGroup = H;
leftMetricsKey = H;
rightKerningGroup = B;
unicode = 0042;
},
{
color = 4;
glyphname = C;
lastChange = "2023-01-13 21:05:19 +0000";
layers = (
{
anchors = (
{
name = bottom;
position = "{321, 0}";
},
{
name = top;
position = "{503, 712}";
}
);
background = {
paths = (
{
closed = 1;
nodes = (
"49 97 OFFCURVE",
"184 -12 OFFCURVE",
"378 -12 CURVE SMOOTH",
"463 -12 OFFCURVE",
"542 9 OFFCURVE",
"572 17 CURVE",
"664 282 LINE",
"658 282 LINE",
"594 177 OFFCURVE",
"492 -1 OFFCURVE",
"399 -1 CURVE SMOOTH",
"326 -1 OFFCURVE",
"266 90 OFFCURVE",
"266 260 CURVE SMOOTH",
"266 462 OFFCURVE",
"369 713 OFFCURVE",
"528 713 CURVE SMOOTH",
"604 713 OFFCURVE",
"660 611 OFFCURVE",
"687 508 CURVE",
"693 508 LINE",
"693 770 LINE",
"688 770 LINE",
"669 709 LINE",
"640 715 OFFCURVE",
"595 724 OFFCURVE",
"540 724 CURVE SMOOTH",
"287 724 OFFCURVE",
"49 526 OFFCURVE",
"49 278 CURVE SMOOTH"
);
}
);
};
layerId = "C1BD152E-BBB7-4B88-9DA3-7174D04C5495";
paths = (
{
closed = 1;
nodes = (
"49 97 OFFCURVE",
"164 -12 OFFCURVE",
"358 -12 CURVE SMOOTH",
"453 -12 OFFCURVE",
"542 9 OFFCURVE",
"572 17 CURVE",
"664 282 LINE",
"658 282 LINE",
"594 177 OFFCURVE",
"492 0 OFFCURVE",
"399 0 CURVE SMOOTH",
"328 0 OFFCURVE",
"266 70 OFFCURVE",
"266 230 CURVE SMOOTH",
"266 462 OFFCURVE",
"369 713 OFFCURVE",
"528 713 CURVE SMOOTH",
"604 713 OFFCURVE",
"660 611 OFFCURVE",
"687 508 CURVE",
"693 508 LINE",
"693 770 LINE",
"688 770 LINE",
"669 709 LINE",
"640 715 OFFCURVE",
"595 724 OFFCURVE",
"540 724 CURVE SMOOTH",
"287 724 OFFCURVE",
"49 516 OFFCURVE",
"49 266 CURVE SMOOTH"
);
}
);
width = 681;
}
);
leftKerningGroup = O;
leftMetricsKey = O;
rightKerningGroup = C;
unicode = 0043;
},
{
color = 4;
glyphname = D;
lastChange = "2023-01-13 21:05:19 +0000";
layers = (
{
anchors = (
{
name = top;
position = "{500, 712}";
}
);
background = {
paths = (
{
closed = 1;
nodes = (
"239 0 LINE SMOOTH",
"546 0 OFFCURVE",
"799 176 OFFCURVE",
"799 419 CURVE SMOOTH",
"799 592 OFFCURVE",
"638 712 OFFCURVE",
"397 712 CURVE SMOOTH",
"145 712 LINE",
"145 707 LINE",
"200 687 LINE",
"10 25 LINE",
"-56 5 LINE",
"-56 0 LINE"
);
},
{
closed = 1;
nodes = (
"393 701 LINE",
"393 701 LINE SMOOTH",
"508 701 OFFCURVE",
"594 615 OFFCURVE",
"594 446 CURVE SMOOTH",
"594 223 OFFCURVE",
"471 11 OFFCURVE",
"239 11 CURVE SMOOTH",
"195 11 LINE"
);
}
);
};
layerId = "C1BD152E-BBB7-4B88-9DA3-7174D04C5495";
paths = (
{
closed = 1;
nodes = (
"285 0 LINE SMOOTH",
"536 0 OFFCURVE",
"799 144 OFFCURVE",
"799 417 CURVE SMOOTH",
"799 602 OFFCURVE",
"640 712 OFFCURVE",
"409 712 CURVE SMOOTH",
"145 712 LINE",
"145 707 LINE",
"200 687 LINE",
"10 25 LINE",
"-56 5 LINE",
"-56 0 LINE"
);
},
{
closed = 1;
nodes = (
"393 701 LINE",
"409 701 LINE SMOOTH",
"506 701 OFFCURVE",
"594 625 OFFCURVE",
"594 440 CURVE SMOOTH",
"594 183 OFFCURVE",
"461 11 OFFCURVE",
"265 11 CURVE SMOOTH",
"195 11 LINE"
);
}
);
width = 793;
}
);
leftKerningGroup = H;
leftMetricsKey = H;
rightKerningGroup = D;
unicode = 0044;
},
{
color = 4;
glyphname = Eth;
lastChange = "2022-12-21 17:11:04 +0000";
layers = (
{
components = (
{
name = D;
}
);
layerId = "C1BD152E-BBB7-4B88-9DA3-7174D04C5495";
paths = (
{
closed = 1;
nodes = (
"53 377 LINE",
"445 377 LINE",
"445 389 LINE",
"53 389 LINE"
);
}
);
width = 793;
}
);
leftKerningGroup = H;
rightKerningGroup = D;
rightMetricsKey = D;
unicode = 00D0;
},
{
color = 4;
glyphname = E;
lastChange = "2023-01-13 21:05:19 +0000";
layers = (
{
anchors = (
{
name = bottom;
position = "{185, 0}";
},
{
name = ogonek;
position = "{422, 0}";
},
{
name = top;
position = "{377, 712}";
}
);
background = {
paths = (
{
closed = 1;
nodes = (
"467 94 OFFCURVE",
"352 18 OFFCURVE",
"195 11 CURVE",
"195 11 LINE",
"296 363 LINE",
"296 363 LINE",
"366 358 OFFCURVE",
"401 318 OFFCURVE",
"390 202 CURVE",
"395 202 LINE",
"487 523 LINE",
"482 523 LINE",
"437 428 OFFCURVE",
"382 379 OFFCURVE",
"299 373 CURVE",
"299 373 LINE",
"393 701 LINE",
"393 701 LINE",
"510 701 OFFCURVE",
"569 651 OFFCURVE",
"574 532 CURVE SMOOTH",
"575 508 LINE",
"581 508 LINE",
"627 770 LINE",
"622 770 LINE",
"592 712 LINE",
"143 712 LINE",
"143 707 LINE",
"198 687 LINE",
"8 25 LINE",
"-58 5 LINE",
"-58 0 LINE",
"459 0 LINE",
"564 257 LINE",
"557 257 LINE",
"541 228 LINE SMOOTH"
);
}
);
};
guideLines = (
{
angle = 81.3557;
position = "{62, 76}";
}
);
layerId = "C1BD152E-BBB7-4B88-9DA3-7174D04C5495";
paths = (
{
closed = 1;
nodes = (
"483 96 OFFCURVE",
"350 12 OFFCURVE",
"195 11 CURVE",
"195 11 LINE",
"296 363 LINE",
"296 363 LINE",
"358 358 OFFCURVE",
"397 318 OFFCURVE",
"390 202 CURVE",
"396 202 LINE",
"488 523 LINE",
"482 523 LINE",
"435 428 OFFCURVE",
"386 379 OFFCURVE",
"299 373 CURVE",
"299 373 LINE",
"393 701 LINE",
"393 701 LINE",
"496 701 OFFCURVE",
"552 637 OFFCURVE",
"581 533 CURVE SMOOTH",
"588 508 LINE",
"593 508 LINE",
"593 770 LINE",
"588 770 LINE",
"566 712 LINE",
"145 712 LINE",
"145 707 LINE",
"200 687 LINE",
"10 25 LINE",
"-56 5 LINE",
"-56 0 LINE",
"477 0 LINE",
"582 257 LINE",
"575 257 LINE",
"559 229 LINE SMOOTH"
);
}
);
width = 591;
}
);
leftKerningGroup = H;
leftMetricsKey = H;
rightKerningGroup = E;
unicode = 0045;
},
{
glyphname = Eogonek;
lastChange = "2022-12-24 19:11:39 +0000";
layers = (
{
anchors = (
{
name = bottom;
position = "{185, 0}";
},
{
name = ogonek;
position = "{422, 0}";
},
{
name = top;
position = "{377, 712}";
}
);
background = {
paths = (
{
closed = 1;
nodes = (
"483 96 OFFCURVE",
"350 12 OFFCURVE",
"195 11 CURVE",
"195 11 LINE",
"296 363 LINE",
"296 363 LINE",
"358 358 OFFCURVE",
"397 318 OFFCURVE",
"390 202 CURVE",
"396 202 LINE",
"488 523 LINE",
"482 523 LINE",
"435 428 OFFCURVE",
"386 379 OFFCURVE",
"299 373 CURVE",
"299 373 LINE",
"393 701 LINE",
"393 701 LINE",
"496 701 OFFCURVE",
"552 637 OFFCURVE",
"581 533 CURVE SMOOTH",
"588 508 LINE",
"593 508 LINE",
"593 770 LINE",
"588 770 LINE",
"566 712 LINE",
"145 712 LINE",
"145 707 LINE",
"200 687 LINE",
"10 25 LINE",
"-56 5 LINE",
"-56 0 LINE",
"477 0 LINE",
"582 257 LINE",
"575 257 LINE",
"559 229 LINE SMOOTH"
);
},
{
closed = 1;
nodes = (
"339 -43 OFFCURVE",
"246 -90 OFFCURVE",
"246 -161 CURVE SMOOTH",
"246 -204 OFFCURVE",
"281 -237 OFFCURVE",
"329 -237 CURVE SMOOTH",
"382 -237 OFFCURVE",
"428 -196 OFFCURVE",
"466 -144 CURVE",
"457 -144 LINE",
"448 -156 OFFCURVE",
"431 -173 OFFCURVE",
"406 -173 CURVE SMOOTH",
"379 -173 OFFCURVE",
"358 -154 OFFCURVE",
"358 -116 CURVE SMOOTH",
"358 -67 OFFCURVE",
"392 -26 OFFCURVE",
"429 4 CURVE",
"421 4 LINE"
);
}
);
};
layerId = "C1BD152E-BBB7-4B88-9DA3-7174D04C5495";
paths = (
{
closed = 1;
nodes = (
"483 96 OFFCURVE",
"350 12 OFFCURVE",
"195 11 CURVE",
"195 11 LINE",
"296 363 LINE",
"296 363 LINE",
"358 358 OFFCURVE",
"397 318 OFFCURVE",
"390 202 CURVE",
"396 202 LINE",
"488 523 LINE",
"482 523 LINE",
"435 428 OFFCURVE",
"386 379 OFFCURVE",
"299 373 CURVE",
"299 373 LINE",
"393 701 LINE",
"393 701 LINE",
"496 701 OFFCURVE",
"552 637 OFFCURVE",
"581 533 CURVE SMOOTH",
"588 508 LINE",
"593 508 LINE",
"593 770 LINE",
"588 770 LINE",
"566 712 LINE",
"145 712 LINE",
"145 707 LINE",
"200 687 LINE",
"10 25 LINE",
"-56 5 LINE",
"-56 0 LINE",
"477 0 LINE",
"582 257 LINE",
"575 257 LINE",
"559 229 LINE SMOOTH"
);
},
{
closed = 1;
nodes = (
"460 -2 LINE",
"381 -48 OFFCURVE",
"298 -93 OFFCURVE",
"298 -161 CURVE SMOOTH",
"298 -204 OFFCURVE",
"333 -237 OFFCURVE",
"381 -237 CURVE SMOOTH",
"434 -237 OFFCURVE",
"480 -196 OFFCURVE",
"518 -144 CURVE",
"509 -144 LINE",
"500 -156 OFFCURVE",
"483 -173 OFFCURVE",
"458 -173 CURVE SMOOTH",
"431 -173 OFFCURVE",
"410 -154 OFFCURVE",
"410 -116 CURVE SMOOTH",
"410 -67 OFFCURVE",
"445 -26 OFFCURVE",
"477 0 CURVE",
"460 4 LINE"
);
}
);
width = 591;
}
);
leftKerningGroup = H;
leftMetricsKey = H;
rightKerningGroup = E;
unicode = 0118;
},
{
color = 4;
glyphname = F;
lastChange = "2022-12-21 12:29:03 +0000";
layers = (
{
anchors = (
{
name = top;
position = "{377, 712}";
}
);
background = {
paths = (
{
closed = 1;
nodes = (
"256 0 LINE",
"258 5 LINE",
"192 25 LINE",
"285 348 LINE",
"285 348 LINE",
"358 343 OFFCURVE",
"387 294 OFFCURVE",
"377 185 CURVE",
"381 185 LINE",
"474 508 LINE",
"469 508 LINE",
"421 411 OFFCURVE",
"364 363 OFFCURVE",
"287 357 CURVE",
"287 357 LINE",
"386 701 LINE",
"386 701 LINE",
"508 701 OFFCURVE",
"558 646 OFFCURVE",
"565 534 CURVE SMOOTH",
"566 508 LINE",
"571 508 LINE",
"617 770 LINE",
"613 770 LINE",
"584 712 LINE",
"145 712 LINE",
"144 707 LINE",
"198 687 LINE",
"9 25 LINE",
"-57 5 LINE",
"-59 0 LINE"
);
}
);
};
layerId = "C1BD152E-BBB7-4B88-9DA3-7174D04C5495";
paths = (
{
closed = 1;
nodes = (
"273 5 LINE",
"199 25 LINE",
"292 348 LINE",
"292 348 LINE",
"354 343 OFFCURVE",
"393 303 OFFCURVE",
"386 187 CURVE",
"392 187 LINE",
"484 508 LINE",
"478 508 LINE",
"431 413 OFFCURVE",
"382 364 OFFCURVE",
"295 358 CURVE",
"295 358 LINE",
"393 701 LINE",
"393 701 LINE",
"496 701 OFFCURVE",
"551 637 OFFCURVE",
"580 533 CURVE SMOOTH",
"587 508 LINE",
"593 508 LINE",
"593 770 LINE",
"588 770 LINE",
"566 712 LINE",
"145 712 LINE",
"145 707 LINE",
"200 687 LINE",
"10 25 LINE",
"-56 5 LINE",
"-56 0 LINE",
"273 0 LINE"
);
}
);
width = 530;
}
);
leftKerningGroup = H;
leftMetricsKey = H;
rightKerningGroup = F;
unicode = 0046;
},
{
color = 4;
glyphname = G;
lastChange = "2023-01-13 21:05:19 +0000";
layers = (
{
anchors = (
{
name = bottom;
position = "{324, 0}";
},
{
name = top;
position = "{504, 712}";
}
);
background = {
paths = (
{
closed = 1;
nodes = (
"50 97 OFFCURVE",
"185 -12 OFFCURVE",
"349 -12 CURVE SMOOTH",
"438 -12 OFFCURVE",
"538 24 OFFCURVE",
"650 65 CURVE",
"651 70 LINE",
"610 70 LINE",
"668 270 LINE",
"722 290 LINE",
"724 295 LINE",
"404 295 LINE",
"402 290 LINE",
"482 270 LINE",
"412 29 LINE",
"396 12 OFFCURVE",
"380 -1 OFFCURVE",
"356 -1 CURVE SMOOTH",
"300 -1 OFFCURVE",
"267 80 OFFCURVE",
"267 258 CURVE SMOOTH",
"267 462 OFFCURVE",
"370 713 OFFCURVE",
"529 713 CURVE SMOOTH",
"607 713 OFFCURVE",
"663 613 OFFCURVE",
"690 508 CURVE",
"696 508 LINE",
"696 770 LINE",
"691 770 LINE",
"672 709 LINE",
"643 715 OFFCURVE",
"598 724 OFFCURVE",
"541 724 CURVE SMOOTH",
"288 724 OFFCURVE",
"50 526 OFFCURVE",
"50 278 CURVE SMOOTH"
);
}
);
};
layerId = "C1BD152E-BBB7-4B88-9DA3-7174D04C5495";
paths = (
{
closed = 1;
nodes = (
"50 97 OFFCURVE",
"165 -12 OFFCURVE",
"349 -12 CURVE SMOOTH",
"438 -12 OFFCURVE",
"538 24 OFFCURVE",
"650 65 CURVE",
"651 70 LINE",
"610 70 LINE",
"668 270 LINE",
"722 290 LINE",
"724 295 LINE",
"404 295 LINE",
"402 290 LINE",
"482 270 LINE",
"412 29 LINE",
"396 12 OFFCURVE",
"380 -1 OFFCURVE",
"356 -1 CURVE SMOOTH",
"300 -1 OFFCURVE",
"267 60 OFFCURVE",
"267 228 CURVE SMOOTH",
"267 462 OFFCURVE",
"370 713 OFFCURVE",
"529 713 CURVE SMOOTH",
"607 713 OFFCURVE",
"663 613 OFFCURVE",
"690 508 CURVE",
"696 508 LINE",
"696 770 LINE",
"691 770 LINE",
"672 709 LINE",
"643 715 OFFCURVE",
"598 724 OFFCURVE",
"541 724 CURVE SMOOTH",
"288 724 OFFCURVE",
"50 516 OFFCURVE",
"50 268 CURVE SMOOTH"
);
}
);
width = 712;
}
);
leftKerningGroup = O;
leftMetricsKey = O;
rightKerningGroup = G;
unicode = 0047;
},
{
color = 4;
glyphname = H;
lastChange = "2023-01-13 21:05:19 +0000";
layers = (
{
anchors = (
{
name = top;
position = "{505, 713}";
}
);
background = {
paths = (
{
closed = 1;
nodes = (
"452 712 LINE",
"452 707 LINE",
"512 687 LINE",
"512 389 LINE",
"295 389 LINE",
"295 687 LINE",
"356 707 LINE",
"356 712 LINE",
"45 712 LINE",
"45 707 LINE",
"105 687 LINE",
"105 25 LINE",
"45 5 LINE",
"45 0 LINE",
"356 0 LINE",
"356 5 LINE",
"295 25 LINE",
"295 377 LINE",
"512 377 LINE",
"512 25 LINE",
"452 5 LINE",
"452 0 LINE",
"762 0 LINE",
"762 5 LINE",
"702 25 LINE",
"702 687 LINE",
"762 707 LINE",
"762 712 LINE"
);
}
);
};
layerId = "C1BD152E-BBB7-4B88-9DA3-7174D04C5495";
paths = (
{
closed = 1;
nodes = (
"553 712 LINE",
"553 707 LINE",
"607 687 LINE",
"521 389 LINE",
"304 389 LINE",
"390 687 LINE",
"457 707 LINE",
"457 712 LINE",
"145 712 LINE",
"145 707 LINE",
"200 687 LINE",
"10 25 LINE",
"-56 5 LINE",
"-56 0 LINE",
"255 0 LINE",
"255 5 LINE",
"200 25 LINE",
"301 377 LINE",
"518 377 LINE",
"417 25 LINE",
"351 5 LINE",
"351 0 LINE",
"661 0 LINE",
"661 5 LINE",
"607 25 LINE",
"797 687 LINE",
"862 707 LINE",
"862 712 LINE"
);
}
);
width = 748;
}
);
leftKerningGroup = H;
rightKerningGroup = H;
unicode = 0048;
},
{
color = 4;
glyphname = Hbar;
lastChange = "2022-12-21 12:38:49 +0000";
layers = (
{
layerId = "C1BD152E-BBB7-4B88-9DA3-7174D04C5495";
paths = (
{
closed = 1;
nodes = (
"101 546 LINE",
"818 546 LINE",
"818 558 LINE",
"101 558 LINE"
);
},
{
closed = 1;
nodes = (
"553 712 LINE",
"553 707 LINE",
"607 687 LINE",
"521 389 LINE",
"304 389 LINE",
"390 687 LINE",
"457 707 LINE",
"457 712 LINE",
"145 712 LINE",
"145 707 LINE",
"200 687 LINE",
"10 25 LINE",
"-56 5 LINE",
"-56 0 LINE",
"255 0 LINE",
"255 5 LINE",
"200 25 LINE",
"301 377 LINE",
"518 377 LINE",
"417 25 LINE",
"351 5 LINE",
"351 0 LINE",
"661 0 LINE",
"661 5 LINE",
"607 25 LINE",
"797 687 LINE",
"862 707 LINE",
"862 712 LINE"
);
}
);
width = 748;
}
);
leftKerningGroup = H;
leftMetricsKey = H;
rightKerningGroup = H;
rightMetricsKey = H;
unicode = 0126;
},
{
color = 4;
glyphname = I;
lastChange = "2022-12-21 07:58:30 +0000";
layers = (
{
anchors = (
{
name = ogonek;
position = "{192, 0}";
},
{
name = top;
position = "{302, 712}";
}
);
layerId = "C1BD152E-BBB7-4B88-9DA3-7174D04C5495";
paths = (
{
closed = 1;
nodes = (
"390 687 LINE",
"457 707 LINE",
"457 712 LINE",
"145 712 LINE",
"145 707 LINE",
"200 687 LINE",
"10 25 LINE",
"-56 5 LINE",
"-56 0 LINE",
"255 0 LINE",
"255 5 LINE",
"200 25 LINE"
);
}
);
width = 342;
}
);
leftKerningGroup = H;
leftMetricsKey = H;
rightKerningGroup = H;
rightMetricsKey = H;
unicode = 0049;
},
{
glyphname = Iogonek;
lastChange = "2022-12-24 19:11:39 +0000";
layers = (
{
anchors = (
{
name = ogonek;
position = "{192, 0}";
},
{
name = top;
position = "{302, 712}";
}
);
background = {
paths = (
{
closed = 1;
nodes = (
"390 687 LINE",
"457 707 LINE",
"457 712 LINE",
"145 712 LINE",
"145 707 LINE",
"200 687 LINE",
"10 25 LINE",
"-56 5 LINE",
"-56 0 LINE",
"255 0 LINE",
"255 5 LINE",
"200 25 LINE"
);
},
{
closed = 1;
nodes = (
"109 -43 OFFCURVE",
"16 -90 OFFCURVE",
"16 -161 CURVE SMOOTH",
"16 -204 OFFCURVE",
"51 -237 OFFCURVE",
"99 -237 CURVE SMOOTH",
"152 -237 OFFCURVE",
"198 -196 OFFCURVE",
"236 -144 CURVE",
"227 -144 LINE",
"218 -156 OFFCURVE",
"201 -173 OFFCURVE",
"176 -173 CURVE SMOOTH",
"149 -173 OFFCURVE",
"128 -154 OFFCURVE",
"128 -116 CURVE SMOOTH",
"128 -67 OFFCURVE",
"162 -26 OFFCURVE",
"199 4 CURVE",
"191 4 LINE"
);
}
);
};
layerId = "C1BD152E-BBB7-4B88-9DA3-7174D04C5495";
paths = (
{
closed = 1;
nodes = (
"390 687 LINE",
"457 707 LINE",
"457 712 LINE",
"145 712 LINE",
"145 707 LINE",
"200 687 LINE",
"10 25 LINE",
"-56 5 LINE",
"-56 0 LINE",
"255 0 LINE",
"255 5 LINE",
"200 25 LINE"
);
},
{
closed = 1;
nodes = (
"174 -2 LINE",
"95 -48 OFFCURVE",
"12 -93 OFFCURVE",
"12 -161 CURVE SMOOTH",
"12 -204 OFFCURVE",
"47 -237 OFFCURVE",
"95 -237 CURVE SMOOTH",
"148 -237 OFFCURVE",
"194 -196 OFFCURVE",
"232 -144 CURVE",
"223 -144 LINE",
"214 -156 OFFCURVE",
"197 -173 OFFCURVE",
"172 -173 CURVE SMOOTH",
"145 -173 OFFCURVE",
"124 -154 OFFCURVE",
"124 -116 CURVE SMOOTH",
"124 -67 OFFCURVE",
"159 -26 OFFCURVE",
"196 4 CURVE",
"174 4 LINE"
);
}
);
width = 342;
}
);
leftKerningGroup = H;
leftMetricsKey = I;
rightKerningGroup = H;
unicode = 012E;
},
{
color = 4;
glyphname = J;
lastChange = "2022-12-22 10:38:52 +0000";
layers = (
{
anchors = (
{
name = top;
position = "{305, 712}";
}
);
layerId = "C1BD152E-BBB7-4B88-9DA3-7174D04C5495";
paths = (
{
closed = 1;
nodes = (
"-5 -97 LINE SMOOTH",
"146 -1 OFFCURVE",
"214 56 OFFCURVE",
"265 233 CURVE SMOOTH",
"395 687 LINE",
"453 707 LINE",
"453 712 LINE",
"151 712 LINE",
"151 707 LINE",
"206 687 LINE",
"50 143 LINE SMOOTH",
"-4 -46 OFFCURVE",
"-32 -96 OFFCURVE",
"-87 -139 CURVE SMOOTH",
"-113 -159 LINE",
"-110 -164 LINE"
);
}
);
width = 338;
}
);
leftKerningGroup = J;
rightKerningGroup = U;
unicode = 004A;
},
{
color = 4;
glyphname = K;
lastChange = "2023-01-13 21:05:19 +0000";
layers = (
{
anchors = (
{
name = bottom;
position = "{324, 0}";
},
{
name = top;
position = "{479, 712}";
}
);
background = {
paths = (
{
closed = 1;
nodes = (
"253 0 LINE",
"255 5 LINE",
"200 25 LINE",
"307 398 LINE",
"363 398 LINE",
"390 124 LINE SMOOTH",
"397 48 OFFCURVE",
"412 -5 OFFCURVE",
"481 -5 CURVE SMOOTH",
"523 -5 OFFCURVE",
"567 10 OFFCURVE",
"610 25 CURVE SMOOTH",
"702 56 LINE",
"704 63 LINE",
"690 59 OFFCURVE",
"678 56 OFFCURVE",
"665 56 CURVE SMOOTH",
"640 56 OFFCURVE",
"624 67 OFFCURVE",
"609 120 CURVE SMOOTH",
"494 518 LINE",
"703 687 LINE",
"790 707 LINE",
"792 712 LINE",
"546 712 LINE",
"545 707 LINE",
"554 705 LINE SMOOTH",
"637 687 OFFCURVE",
"643 666 OFFCURVE",
"432 469 CURVE SMOOTH",
"369 410 LINE",
"311 410 LINE",
"390 687 LINE",
"456 707 LINE",
"457 712 LINE",
"147 712 LINE",
"146 707 LINE",
"200 687 LINE",
"11 25 LINE",
"-55 5 LINE",
"-57 0 LINE"
);
}
);
};
layerId = "C1BD152E-BBB7-4B88-9DA3-7174D04C5495";
paths = (
{
closed = 1;
nodes = (
"255 0 LINE",
"255 5 LINE",
"200 25 LINE",
"307 398 LINE",
"365 398 LINE",
"373 305 LINE SMOOTH",
"393 70 OFFCURVE",
"429 -10 OFFCURVE",
"516 -10 CURVE SMOOTH",
"575 -10 OFFCURVE",
"625 26 OFFCURVE",
"722 138 CURVE",
"713 138 LINE",
"688 109 OFFCURVE",
"675 101 OFFCURVE",
"657 101 CURVE SMOOTH",
"609 101 OFFCURVE",
"583 164 OFFCURVE",
"529 410 CURVE SMOOTH",
"504 524 LINE",
"703 687 LINE",
"792 707 LINE",
"792 712 LINE",
"547 712 LINE",
"547 707 LINE",
"556 705 LINE SMOOTH",
"643 685 OFFCURVE",
"624 649 OFFCURVE",
"432 469 CURVE SMOOTH",
"369 410 LINE",
"311 410 LINE",
"390 687 LINE",
"457 707 LINE",
"457 712 LINE",
"145 712 LINE",
"145 707 LINE",
"200 687 LINE",
"10 25 LINE",
"-56 5 LINE",
"-56 0 LINE"
);
}
);
width = 730;
}
);
leftKerningGroup = H;
leftMetricsKey = H;
rightKerningGroup = K;
rightMetricsKey = R;
unicode = 004B;
},
{
color = 4;
glyphname = L;
lastChange = "2022-12-21 12:29:30 +0000";
layers = (
{
anchors = (
{
name = bottom;
position = "{209, 0}";
},
{
name = top;
position = "{298, 712}";
}
);
background = {
paths = (
{
closed = 1;
nodes = (
"386 0 LINE",
"381 -53 LINE",
"386 -53 LINE",
"524 265 LINE",
"519 265 LINE",
"504 239 LINE SMOOTH",
"411 77 OFFCURVE",
"324 17 OFFCURVE",
"195 11 CURVE",
"195 11 LINE",
"389 687 LINE",
"465 707 LINE",
"465 712 LINE",
"145 712 LINE",
"145 707 LINE",
"200 687 LINE",
"10 25 LINE",
"-56 5 LINE",
"-56 0 LINE"
);
}
);
};
layerId = "C1BD152E-BBB7-4B88-9DA3-7174D04C5495";
paths = (
{
closed = 1;
nodes = (
"395 0 LINE",
"395 -53 LINE",
"400 -53 LINE",
"534 265 LINE",
"528 265 LINE",
"512 240 LINE SMOOTH",
"412 84 OFFCURVE",
"299 11 OFFCURVE",
"195 11 CURVE",
"195 11 LINE",
"389 687 LINE",
"465 707 LINE",
"465 712 LINE",
"145 712 LINE",
"145 707 LINE",
"200 687 LINE",
"10 25 LINE",
"-56 5 LINE",
"-56 0 LINE"
);
}
);
width = 536;
}
);
leftKerningGroup = H;
leftMetricsKey = H;
rightKerningGroup = L;
unicode = 004C;
},
{
color = 4;
glyphname = Lslash;
lastChange = "2022-12-23 18:05:12 +0000";
layers = (
{
components = (
{
name = L;
}
);
layerId = "C1BD152E-BBB7-4B88-9DA3-7174D04C5495";
paths = (
{
closed = 1;
nodes = (
"21 266 LINE",
"442 479 LINE",
"442 492 LINE",
"21 279 LINE"
);
}
);
width = 536;
}
);
leftKerningGroup = H;
leftMetricsKey = L;
rightKerningGroup = L;
rightMetricsKey = L;
unicode = 0141;
},
{
color = 4;
glyphname = M;
lastChange = "2022-12-21 12:29:37 +0000";
layers = (
{
anchors = (
{
name = bottom;
position = "{345, 0}";
},
{
name = top;
position = "{598, 712}";
}
);
background = {
paths = (
{
closed = 1;
nodes = (
"192 0 LINE",
"193 5 LINE",
"174 9 LINE SMOOTH",
"67 31 OFFCURVE",
"47 93 OFFCURVE",
"186 452 CURVE SMOOTH",
"268 660 LINE",
"338 -26 LINE",
"341 -26 LINE",
"757 630 LINE",
"651 25 LINE",
"560 5 LINE",
"559 0 LINE",
"883 0 LINE",
"884 5 LINE",
"834 25 LINE",
"945 687 LINE",
"1015 707 LINE",
"1017 712 LINE",
"803 712 LINE",
"498 272 LINE",
"454 712 LINE",
"213 712 LINE",
"212 707 LINE",
"261 670 LINE",
"-3 25 LINE",
"-64 5 LINE",
"-66 0 LINE"
);
}
);
};
layerId = "C1BD152E-BBB7-4B88-9DA3-7174D04C5495";
paths = (
{
closed = 1;
nodes = (
"203 0 LINE",
"203 5 LINE",
"184 9 LINE SMOOTH",
"74 32 OFFCURVE",
"43 95 OFFCURVE",
"192 469 CURVE SMOOTH",
"268 660 LINE",
"269 660 LINE",
"338 -26 LINE",
"341 -26 LINE",
"750 624 LINE",
"751 624 LINE",
"647 25 LINE",
"555 5 LINE",
"555 0 LINE",
"883 0 LINE",
"883 5 LINE",
"833 25 LINE",
"944 687 LINE",
"1016 707 LINE",
"1016 712 LINE",
"796 712 LINE",
"498 266 LINE",
"497 266 LINE",
"456 712 LINE",
"212 712 LINE",
"212 707 LINE",
"261 670 LINE",
"-3 25 LINE",
"-66 5 LINE",
"-66 0 LINE"
);
}
);
width = 961;
}
);
leftKerningGroup = M;
rightKerningGroup = M;
unicode = 004D;
},
{
color = 4;
glyphname = N;
lastChange = "2022-12-21 12:29:49 +0000";
layers = (
{
anchors = (
{
name = bottom;
position = "{288, 0}";
},
{
name = top;
position = "{492, 712}";
}
);
background = {
paths = (
{
closed = 1;
nodes = (
"238 0 LINE",
"240 5 LINE",
"228 8 LINE SMOOTH",
"107 39 OFFCURVE",
"56 136 OFFCURVE",
"147 484 CURVE SMOOTH",
"186 631 LINE",
"570 -25 LINE",
"573 -25 LINE",
"777 687 LINE",
"843 707 LINE",
"845 712 LINE",
"603 712 LINE",
"601 707 LINE",
"612 705 LINE SMOOTH",
"697 690 OFFCURVE",
"741 606 OFFCURVE",
"675 369 CURVE SMOOTH",
"647 269 LINE",
"389 712 LINE",
"139 712 LINE",
"138 709 LINE",
"179 640 LINE",
"2 25 LINE",
"-65 1 LINE",
"-64 4 LINE"
);
}
);
};
layerId = "C1BD152E-BBB7-4B88-9DA3-7174D04C5495";
paths = (
{
closed = 1;
nodes = (
"248 0 LINE",
"248 5 LINE",
"236 8 LINE SMOOTH",
"115 38 OFFCURVE",
"55 133 OFFCURVE",
"160 502 CURVE SMOOTH",
"196 628 LINE",
"562 -25 LINE",
"565 -25 LINE",
"769 687 LINE",
"835 707 LINE",
"835 712 LINE",
"591 712 LINE",
"591 707 LINE",
"602 705 LINE SMOOTH",
"693 688 OFFCURVE",
"730 605 OFFCURVE",
"662 360 CURVE SMOOTH",
"634 259 LINE",
"386 712 LINE",
"145 712 LINE",
"145 709 LINE",
"187 640 LINE",
"10 25 LINE",
"-56 5 LINE",
"-56 0 LINE"
);
}
);
width = 719;
}
);
leftKerningGroup = H;
leftMetricsKey = H;
rightKerningGroup = N;
rightMetricsKey = H;
unicode = 004E;
},
{
color = 4;
glyphname = Eng;
lastChange = "2023-01-13 21:05:19 +0000";
layers = (
{
layerId = "C1BD152E-BBB7-4B88-9DA3-7174D04C5495";
paths = (
{
closed = 1;
nodes = (
"248 0 LINE",
"248 5 LINE",
"236 8 LINE SMOOTH",
"115 38 OFFCURVE",
"55 133 OFFCURVE",
"160 502 CURVE SMOOTH",
"196 628 LINE",
"556 -14 LINE",
"543 -45 OFFCURVE",
"513 -62 OFFCURVE",
"466 -62 CURVE SMOOTH",
"447 -62 OFFCURVE",
"425 -60 OFFCURVE",
"396 -53 CURVE SMOOTH",
"384 -50 LINE",
"367 -81 OFFCURVE",
"353 -113 OFFCURVE",
"353 -148 CURVE SMOOTH",
"353 -185 OFFCURVE",
"374 -205 OFFCURVE",
"404 -205 CURVE SMOOTH",
"473 -205 OFFCURVE",
"542 -106 OFFCURVE",
"586 46 CURVE SMOOTH",
"769 687 LINE",
"835 707 LINE",
"835 712 LINE",
"591 712 LINE",
"591 707 LINE",
"602 705 LINE SMOOTH",
"693 688 OFFCURVE",
"730 605 OFFCURVE",
"662 360 CURVE SMOOTH",
"634 259 LINE",
"386 712 LINE",
"145 712 LINE",
"145 709 LINE",
"187 640 LINE",
"10 25 LINE",
"-56 5 LINE",
"-56 0 LINE"
);
}
);
width = 719;
}
);
leftKerningGroup = H;
leftMetricsKey = N;
rightKerningGroup = N;
rightMetricsKey = N;
unicode = 014A;
},
{
color = 4;
glyphname = O;
lastChange = "2023-01-13 21:05:19 +0000";
layers = (
{
anchors = (
{
name = ogonek;
position = "{339, 0}";
},
{
name = top;
position = "{537, 712}";
}
);
background = {
paths = (
{
closed = 1;
nodes = (
"613 -12 OFFCURVE",
"823 196 OFFCURVE",
"823 426 CURVE SMOOTH",
"823 599 OFFCURVE",
"704 724 OFFCURVE",
"518 724 CURVE SMOOTH",
"254 724 OFFCURVE",
"54 520 OFFCURVE",
"54 284 CURVE SMOOTH",
"54 114 OFFCURVE",
"168 -12 OFFCURVE",
"367 -12 CURVE SMOOTH"
);
},
{
closed = 1;
nodes = (
"259 429 OFFCURVE",
"351 711 OFFCURVE",
"505 711 CURVE SMOOTH",
"565 711 OFFCURVE",
"619 658 OFFCURVE",
"619 482 CURVE SMOOTH",
"619 285 OFFCURVE",
"524 1 OFFCURVE",
"378 1 CURVE SMOOTH",
"313 1 OFFCURVE",
"259 54 OFFCURVE",
"259 226 CURVE SMOOTH"
);
}
);
};
layerId = "C1BD152E-BBB7-4B88-9DA3-7174D04C5495";
paths = (
{
closed = 1;
nodes = (
"603 -12 OFFCURVE",
"827 206 OFFCURVE",
"827 446 CURVE SMOOTH",
"827 615 OFFCURVE",
"710 724 OFFCURVE",
"532 724 CURVE SMOOTH",
"264 724 OFFCURVE",
"50 510 OFFCURVE",
"50 266 CURVE SMOOTH",
"50 98 OFFCURVE",
"166 -12 OFFCURVE",
"345 -12 CURVE SMOOTH"
);
},
{
closed = 1;
nodes = (
"259 429 OFFCURVE",
"351 710 OFFCURVE",
"503 710 CURVE SMOOTH",
"565 710 OFFCURVE",
"619 648 OFFCURVE",
"619 482 CURVE SMOOTH",
"619 285 OFFCURVE",
"524 2 OFFCURVE",
"380 2 CURVE SMOOTH",
"313 2 OFFCURVE",
"259 64 OFFCURVE",
"259 226 CURVE SMOOTH"
);
}
);
width = 818;
}
);
leftKerningGroup = O;
rightKerningGroup = O;
unicode = 004F;
},
{
color = 4;
glyphname = Oslash;
lastChange = "2022-12-21 17:04:48 +0000";
layers = (
{
anchors = (
{
name = top;
position = "{517, 712}";
}
);
background = {
paths = (
{
closed = 1;
nodes = (
"584 -12 OFFCURVE",
"829 171 OFFCURVE",
"889 381 CURVE SMOOTH",
"944 572 OFFCURVE",
"819 724 OFFCURVE",
"578 724 CURVE SMOOTH",
"336 724 OFFCURVE",
"97 556 OFFCURVE",
"35 340 CURVE SMOOTH",
"-21 144 OFFCURVE",
"92 -12 OFFCURVE",
"353 -12 CURVE SMOOTH"
);
},
{
closed = 1;
nodes = (
"332 601 OFFCURVE",
"448 711 OFFCURVE",
"534 711 CURVE SMOOTH",
"627 711 OFFCURVE",
"721 567 OFFCURVE",
"651 326 CURVE SMOOTH",
"590 113 OFFCURVE",
"474 1 OFFCURVE",
"391 1 CURVE SMOOTH",
"289 1 OFFCURVE",
"202 145 OFFCURVE",
"271 388 CURVE SMOOTH"
);
},
{
closed = 1;
nodes = (
"-26 -80 LINE",
"-19 -88 LINE",
"958 792 LINE",
"951 800 LINE"
);
}
);
};
components = (
{
name = O;
}
);
layerId = "C1BD152E-BBB7-4B88-9DA3-7174D04C5495";
paths = (
{
closed = 1;
nodes = (
"-14 -80 LINE",
"-6 -88 LINE",
"850 792 LINE",
"842 800 LINE"
);
}
);
width = 820;
}
);
leftKerningGroup = O;
rightKerningGroup = O;
unicode = 00D8;
},
{
color = 4;
glyphname = OE;
lastChange = "2022-12-23 17:42:21 +0000";
layers = (
{
layerId = "C1BD152E-BBB7-4B88-9DA3-7174D04C5495";
paths = (
{
closed = 1;
nodes = (
"933 96 OFFCURVE",
"800 12 OFFCURVE",
"645 11 CURVE",
"645 11 LINE",
"746 363 LINE",
"746 363 LINE",
"808 358 OFFCURVE",
"847 318 OFFCURVE",
"840 202 CURVE",
"846 202 LINE",
"938 523 LINE",
"932 523 LINE",
"885 428 OFFCURVE",
"836 379 OFFCURVE",
"749 373 CURVE",
"749 373 LINE",
"843 701 LINE",
"843 701 LINE",
"946 701 OFFCURVE",
"1002 637 OFFCURVE",
"1031 533 CURVE SMOOTH",
"1038 508 LINE",
"1043 508 LINE",
"1043 770 LINE",
"1038 770 LINE",
"1016 712 LINE",
"695 712 LINE",
"695 707 LINE",
"650 687 LINE",
"460 25 LINE",
"494 5 LINE",
"494 0 LINE",
"927 0 LINE",
"1032 257 LINE",
"1025 257 LINE",
"1009 229 LINE SMOOTH"
);
},
{
closed = 1;
nodes = (
"50 120 OFFCURVE",
"211 0 OFFCURVE",
"452 0 CURVE SMOOTH",
"604 0 LINE",
"604 5 LINE",
"649 25 LINE",
"839 687 LINE",
"805 707 LINE",
"805 712 LINE",
"610 712 LINE SMOOTH",
"303 712 OFFCURVE",
"50 536 OFFCURVE",
"50 293 CURVE SMOOTH"
);
},
{
closed = 1;
nodes = (
"255 489 OFFCURVE",
"378 701 OFFCURVE",
"610 701 CURVE SMOOTH",
"654 701 LINE",
"456 11 LINE",
"456 11 LINE SMOOTH",
"341 11 OFFCURVE",
"255 97 OFFCURVE",
"255 266 CURVE SMOOTH"
);
}
);
width = 1041;
}
);
leftKerningGroup = O;
leftMetricsKey = "=|D";
rightKerningGroup = E;
rightMetricsKey = E;
unicode = 0152;
},
{
color = 4;
glyphname = P;
lastChange = "2023-01-13 21:05:19 +0000";
layers = (
{
anchors = (
{
name = top;
position = "{435, 712}";
}
);
background = {
paths = (
{
closed = 1;
nodes = (
"273 0 LINE",
"273 5 LINE",
"200 25 LINE",
"394 702 LINE",
"396 702 LINE SMOOTH",
"450 701 OFFCURVE",
"506 653 OFFCURVE",
"506 545 CURVE SMOOTH",
"506 435 OFFCURVE",
"447 343 OFFCURVE",
"339 338 CURVE",
"339 332 LINE",
"508 332 OFFCURVE",
"686 397 OFFCURVE",
"686 534 CURVE SMOOTH",
"686 630 OFFCURVE",
"587 712 OFFCURVE",
"397 712 CURVE SMOOTH",
"145 712 LINE",
"145 707 LINE",
"200 687 LINE",
"10 25 LINE",
"-56 5 LINE",
"-56 0 LINE"
);
}
);
};
layerId = "C1BD152E-BBB7-4B88-9DA3-7174D04C5495";
paths = (
{
closed = 1;
nodes = (
"273 0 LINE",
"273 5 LINE",
"200 25 LINE",
"394 702 LINE",
"407 702 LINE SMOOTH",
"458 702 OFFCURVE",
"511 656 OFFCURVE",
"511 541 CURVE SMOOTH",
"511 411 OFFCURVE",
"443 338 OFFCURVE",
"345 338 CURVE",
"345 338 LINE",
"345 332 LINE",
"345 332 LINE",
"532 332 OFFCURVE",
"689 399 OFFCURVE",
"689 532 CURVE SMOOTH",
"689 634 OFFCURVE",
"595 712 OFFCURVE",
"404 712 CURVE SMOOTH",
"145 712 LINE",
"145 707 LINE",
"200 687 LINE",
"10 25 LINE",
"-56 5 LINE",
"-56 0 LINE"
);
}
);
width = 636;
}
);
leftKerningGroup = H;
leftMetricsKey = H;
rightKerningGroup = P;
unicode = 0050;
},
{
color = 4;
glyphname = Thorn;
lastChange = "2022-12-21 17:09:25 +0000";
layers = (
{
background = {
paths = (
{
closed = 1;
nodes = (
"272 0 LINE",
"272 5 LINE",
"199 25 LINE",
"240 167 LINE",
"280 167 LINE SMOOTH",
"517 167 OFFCURVE",
"647 257 OFFCURVE",
"647 387 CURVE SMOOTH",
"647 491 OFFCURVE",
"541 569 OFFCURVE",
"355 569 CURVE SMOOTH",
"355 569 LINE",
"389 687 LINE",
"462 707 LINE",
"462 712 LINE",
"145 712 LINE",
"145 707 LINE",
"200 687 LINE",
"10 25 LINE",
"-56 5 LINE",
"-56 0 LINE"
);
},
{
closed = 1;
nodes = (
"243 178 LINE",
"352 559 LINE",
"352 559 LINE",
"408 556 OFFCURVE",
"466 508 OFFCURVE",
"466 400 CURVE SMOOTH",
"466 270 OFFCURVE",
"388 178 OFFCURVE",
"279 178 CURVE SMOOTH"
);
}
);
};
layerId = "C1BD152E-BBB7-4B88-9DA3-7174D04C5495";
paths = (
{
closed = 1;
nodes = (
"272 0 LINE",
"272 5 LINE",
"199 25 LINE",
"240 167 LINE",
"324 167 LINE SMOOTH",
"537 167 OFFCURVE",
"645 255 OFFCURVE",
"645 377 CURVE SMOOTH",
"645 493 OFFCURVE",
"543 569 OFFCURVE",
"361 569 CURVE SMOOTH",
"355 569 LINE",
"389 687 LINE",
"462 707 LINE",
"462 712 LINE",
"145 712 LINE",
"145 707 LINE",
"200 687 LINE",
"10 25 LINE",
"-56 5 LINE",
"-56 0 LINE"
);
},
{
closed = 1;
nodes = (
"243 178 LINE",
"352 559 LINE",
"361 559 LINE SMOOTH",
"408 559 OFFCURVE",
"466 512 OFFCURVE",
"466 400 CURVE SMOOTH",
"466 250 OFFCURVE",
"388 178 OFFCURVE",
"309 178 CURVE SMOOTH"
);
}
);
width = 637;
}
);
leftKerningGroup = H;
leftMetricsKey = H;
rightKerningGroup = Thorn;
rightMetricsKey = P;
unicode = 00DE;
},
{
color = 4;
glyphname = Q;
lastChange = "2023-01-13 21:05:19 +0000";
layers = (
{
background = {
paths = (
{
closed = 1;
nodes = (
"52 118 OFFCURVE",
"162 -6 OFFCURVE",
"354 -12 CURVE",
"354 -15 LINE",
"276 -33 OFFCURVE",
"117 -74 OFFCURVE",
"117 -148 CURVE SMOOTH",
"117 -176 OFFCURVE",
"137 -193 OFFCURVE",
"166 -193 CURVE SMOOTH",
"186 -193 OFFCURVE",
"203 -185 OFFCURVE",
"211 -180 CURVE",
"208 -160 LINE SMOOTH",
"198 -94 OFFCURVE",
"205 -63 OFFCURVE",
"234 -63 CURVE SMOOTH",
"288 -63 OFFCURVE",
"321 -208 OFFCURVE",
"482 -208 CURVE SMOOTH",
"667 -208 OFFCURVE",
"763 -131 OFFCURVE",
"763 -52 CURVE SMOOTH",
"763 2 OFFCURVE",
"718 40 OFFCURVE",
"676 40 CURVE SMOOTH",
"633 40 OFFCURVE",
"601 11 OFFCURVE",
"593 -31 CURVE",
"612 -38 LINE SMOOTH",
"664 -57 OFFCURVE",
"709 -77 OFFCURVE",
"709 -113 CURVE SMOOTH",
"709 -139 OFFCURVE",
"689 -157 OFFCURVE",
"654 -157 CURVE SMOOTH",
"570 -157 OFFCURVE",
"466 -50 OFFCURVE",
"327 -35 CURVE",
"327 -32 LINE",
"345 -27 OFFCURVE",
"377 -19 OFFCURVE",
"412 -12 CURVE SMOOTH",
"651 32 OFFCURVE",
"825 227 OFFCURVE",
"825 428 CURVE SMOOTH",
"825 599 OFFCURVE",
"704 724 OFFCURVE",
"518 724 CURVE SMOOTH",
"264 724 OFFCURVE",
"52 510 OFFCURVE",
"52 282 CURVE SMOOTH"
);
},
{
closed = 1;
nodes = (
"258 409 OFFCURVE",
"351 711 OFFCURVE",
"509 711 CURVE SMOOTH",
"565 711 OFFCURVE",
"620 638 OFFCURVE",
"620 482 CURVE SMOOTH",
"620 305 OFFCURVE",
"524 1 OFFCURVE",
"374 1 CURVE SMOOTH",
"311 1 OFFCURVE",
"258 72 OFFCURVE",
"258 226 CURVE SMOOTH"
);
}
);
};
layerId = "C1BD152E-BBB7-4B88-9DA3-7174D04C5495";
paths = (
{
closed = 1;
nodes = (
"50 98 OFFCURVE",
"166 -12 OFFCURVE",
"345 -12 CURVE SMOOTH",
"354 -12 LINE",
"354 -15 LINE",
"276 -33 OFFCURVE",
"117 -74 OFFCURVE",
"117 -148 CURVE SMOOTH",
"117 -176 OFFCURVE",
"137 -193 OFFCURVE",
"166 -193 CURVE SMOOTH",
"186 -193 OFFCURVE",
"203 -185 OFFCURVE",
"211 -180 CURVE",
"206 -159 LINE SMOOTH",
"190 -91 OFFCURVE",
"201 -66 OFFCURVE",
"224 -66 CURVE SMOOTH",
"268 -66 OFFCURVE",
"413 -208 OFFCURVE",
"558 -208 CURVE SMOOTH",
"667 -208 OFFCURVE",
"763 -129 OFFCURVE",
"763 -34 CURVE SMOOTH",
"763 18 OFFCURVE",
"732 44 OFFCURVE",
"702 44 CURVE SMOOTH",
"663 44 OFFCURVE",
"637 15 OFFCURVE",
"625 -17 CURVE",
"639 -26 LINE SMOOTH",
"682 -54 OFFCURVE",
"715 -81 OFFCURVE",
"715 -115 CURVE SMOOTH",
"715 -133 OFFCURVE",
"705 -145 OFFCURVE",
"680 -145 CURVE SMOOTH",
"586 -145 OFFCURVE",
"466 -50 OFFCURVE",
"327 -35 CURVE",
"327 -32 LINE",
"345 -27 OFFCURVE",
"377 -19 OFFCURVE",
"410 -12 CURVE SMOOTH",
"657 36 OFFCURVE",
"827 237 OFFCURVE",
"827 446 CURVE SMOOTH",
"827 615 OFFCURVE",
"710 724 OFFCURVE",
"532 724 CURVE SMOOTH",
"264 724 OFFCURVE",
"50 510 OFFCURVE",
"50 266 CURVE SMOOTH"
);
},
{
closed = 1;
nodes = (
"259 429 OFFCURVE",
"351 710 OFFCURVE",
"503 710 CURVE SMOOTH",
"565 710 OFFCURVE",
"619 648 OFFCURVE",
"619 482 CURVE SMOOTH",
"619 285 OFFCURVE",
"524 2 OFFCURVE",
"380 2 CURVE SMOOTH",
"313 2 OFFCURVE",
"259 64 OFFCURVE",
"259 226 CURVE SMOOTH"
);
}
);
width = 823;
}
);
leftKerningGroup = O;
leftMetricsKey = O;
rightKerningGroup = Q;
unicode = 0051;
},
{
color = 4;
glyphname = R;
lastChange = "2023-01-13 21:05:19 +0000";
layers = (
{
anchors = (
{
name = bottom;
position = "{303, 0}";
},
{
name = top;
position = "{440, 712}";
}
);
background = {
paths = (
{
closed = 1;
nodes = (
"393 701 LINE",
"397 701 LINE SMOOTH",
"449 701 OFFCURVE",
"504 657 OFFCURVE",
"504 560 CURVE SMOOTH",
"504 458 OFFCURVE",
"439 373 OFFCURVE",
"332 373 CURVE SMOOTH",
"299 373 LINE"
);
},
{
closed = 1;
nodes = (
"254 0 LINE",
"254 5 LINE",
"199 25 LINE",
"295 361 LINE",
"373 361 LINE",
"373 315 LINE SMOOTH",
"373 81 OFFCURVE",
"399 -10 OFFCURVE",
"492 -10 CURVE SMOOTH",
"577 -10 OFFCURVE",
"649 78 OFFCURVE",
"701 138 CURVE",
"692 138 LINE",
"676 120 OFFCURVE",
"662 101 OFFCURVE",
"639 101 CURVE SMOOTH",
"600 101 OFFCURVE",
"571 152 OFFCURVE",
"526 360 CURVE SMOOTH",
"502 470 LINE",
"502 471 LINE",
"581 486 OFFCURVE",
"683 520 OFFCURVE",
"683 592 CURVE SMOOTH",
"683 650 OFFCURVE",
"615 712 OFFCURVE",
"398 712 CURVE SMOOTH",
"146 712 LINE",
"146 707 LINE",
"201 687 LINE",
"11 25 LINE",
"-55 5 LINE",
"-55 0 LINE"
);
}
);
};
layerId = "C1BD152E-BBB7-4B88-9DA3-7174D04C5495";
paths = (
{
closed = 1;
nodes = (
"392 701 LINE",
"407 701 LINE SMOOTH",
"465 701 OFFCURVE",
"504 645 OFFCURVE",
"504 560 CURVE SMOOTH",
"504 450 OFFCURVE",
"438 373 OFFCURVE",
"342 373 CURVE SMOOTH",
"298 373 LINE"
);
},
{
closed = 1;
nodes = (
"253 0 LINE",
"253 5 LINE",
"198 25 LINE",
"294 361 LINE",
"375 361 LINE",
"375 315 LINE SMOOTH",
"375 77 OFFCURVE",
"407 -10 OFFCURVE",
"494 -10 CURVE SMOOTH",
"552 -10 OFFCURVE",
"605 28 OFFCURVE",
"701 138 CURVE",
"692 138 LINE",
"667 110 OFFCURVE",
"658 101 OFFCURVE",
"639 101 CURVE SMOOTH",
"596 101 OFFCURVE",
"569 163 OFFCURVE",
"526 360 CURVE SMOOTH",
"502 470 LINE",
"502 471 LINE",
"619 493 OFFCURVE",
"683 536 OFFCURVE",
"683 592 CURVE SMOOTH",
"683 665 OFFCURVE",
"574 712 OFFCURVE",
"404 712 CURVE SMOOTH",
"145 712 LINE",
"145 707 LINE",
"200 687 LINE",
"10 25 LINE",
"-56 5 LINE",
"-56 0 LINE"
);
}
);
width = 709;
}
);
leftKerningGroup = H;
leftMetricsKey = H;
rightKerningGroup = R;
unicode = 0052;
},
{
color = 4;
glyphname = S;
lastChange = "2023-01-13 21:05:19 +0000";
layers = (
{
anchors = (
{
name = bottom;
position = "{210, 0}";
},
{
name = top;
position = "{384, 712}";
}
);
background = {
paths = (
{
closed = 1;
nodes = (
"518 716 OFFCURVE",
"478 724 OFFCURVE",
"422 724 CURVE SMOOTH",
"237 724 OFFCURVE",
"96 618 OFFCURVE",
"96 493 CURVE SMOOTH",
"96 427 OFFCURVE",
"138 373 OFFCURVE",
"243 286 CURVE SMOOTH",
"342 204 OFFCURVE",
"404 150 OFFCURVE",
"404 92 CURVE SMOOTH",
"404 40 OFFCURVE",
"370 11 OFFCURVE",
"316 11 CURVE SMOOTH",
"196 11 OFFCURVE",
"109 163 OFFCURVE",
"77 282 CURVE",
"71 282 LINE",
"71 33 LINE",
"106 13 OFFCURVE",
"173 -11 OFFCURVE",
"263 -11 CURVE SMOOTH",
"416 -11 OFFCURVE",
"528 106 OFFCURVE",
"528 231 CURVE SMOOTH",
"528 317 OFFCURVE",
"475 385 OFFCURVE",
"379 464 CURVE SMOOTH",
"300 529 OFFCURVE",
"271 566 OFFCURVE",
"271 616 CURVE SMOOTH",
"271 674 OFFCURVE",
"317 711 OFFCURVE",
"388 711 CURVE SMOOTH",
"490 711 OFFCURVE",
"554 621 OFFCURVE",
"585 509 CURVE",
"591 509 LINE",
"592 770 LINE",
"587 770 LINE",
"562 708 LINE"
);
}
);
};
layerId = "C1BD152E-BBB7-4B88-9DA3-7174D04C5495";
paths = (
{
closed = 1;
nodes = (
"503 719 OFFCURVE",
"465 724 OFFCURVE",
"426 724 CURVE SMOOTH",
"246 724 OFFCURVE",
"96 621 OFFCURVE",
"96 497 CURVE SMOOTH",
"96 438 OFFCURVE",
"129 388 OFFCURVE",
"235 298 CURVE SMOOTH",
"283 257 LINE SMOOTH",
"377 177 OFFCURVE",
"407 135 OFFCURVE",
"407 89 CURVE SMOOTH",
"407 43 OFFCURVE",
"373 13 OFFCURVE",
"321 13 CURVE SMOOTH",
"219 13 OFFCURVE",
"112 127 OFFCURVE",
"77 284 CURVE",
"71 284 LINE",
"71 33 LINE",
"118 6 OFFCURVE",
"188 -11 OFFCURVE",
"251 -11 CURVE SMOOTH",
"408 -11 OFFCURVE",
"528 96 OFFCURVE",
"528 236 CURVE SMOOTH",
"528 324 OFFCURVE",
"482 392 OFFCURVE",
"366 482 CURVE SMOOTH",
"294 538 OFFCURVE",
"271 570 OFFCURVE",
"271 612 CURVE SMOOTH",
"271 671 OFFCURVE",
"318 710 OFFCURVE",
"387 710 CURVE SMOOTH",
"478 710 OFFCURVE",
"552 637 OFFCURVE",
"585 508 CURVE",
"591 508 LINE",
"592 770 LINE",
"587 770 LINE",
"564 708 LINE"
);
}
);
width = 568;
}
);
leftKerningGroup = S;
rightKerningGroup = S;
unicode = 0053;
},
{
color = 4;
glyphname = Germandbls;
lastChange = "2023-01-13 21:05:19 +0000";
layers = (
{
background = {
paths = (
{
closed = 1;
nodes = (
"187 0 LINE",
"303 404 LINE SMOOTH",
"324 477 OFFCURVE",
"308 525 OFFCURVE",
"308 580 CURVE SMOOTH",
"308 655 OFFCURVE",
"344 681 OFFCURVE",
"386 681 CURVE SMOOTH",
"437 681 OFFCURVE",
"499 632 OFFCURVE",
"561 586 CURVE",
"561 585 LINE",
"490 535 LINE SMOOTH",
"413 481 OFFCURVE",
"364 444 OFFCURVE",
"364 391 CURVE SMOOTH",
"364 349 OFFCURVE",
"391 311 OFFCURVE",
"458 243 CURVE SMOOTH",
"529 171 OFFCURVE",
"557 137 OFFCURVE",
"557 92 CURVE SMOOTH",
"557 45 OFFCURVE",
"523 11 OFFCURVE",
"472 11 CURVE SMOOTH",
"387 11 OFFCURVE",
"320 109 OFFCURVE",
"298 235 CURVE",
"292 235 LINE",
"292 17 LINE",
"304 11 OFFCURVE",
"348 -12 OFFCURVE",
"413 -12 CURVE SMOOTH",
"557 -12 OFFCURVE",
"673 97 OFFCURVE",
"673 232 CURVE SMOOTH",
"673 318 OFFCURVE",
"622 377 OFFCURVE",
"561 438 CURVE SMOOTH",
"526 473 OFFCURVE",
"514 490 OFFCURVE",
"514 511 CURVE SMOOTH",
"514 531 OFFCURVE",
"530 549 OFFCURVE",
"562 571 CURVE SMOOTH",
"719 679 LINE",
"720 683 LINE",
"680 697 OFFCURVE",
"609 724 OFFCURVE",
"523 724 CURVE SMOOTH",
"326 724 OFFCURVE",
"163 580 OFFCURVE",
"127 453 CURVE SMOOTH",
"4 25 LINE",
"-57 5 LINE",
"-57 0 LINE"
);
}
);
};
guideLines = (
{
angle = 90;
position = "{-60, 1}";
},
{
angle = 90;
position = "{134, 203}";
},
{
angle = 90;
position = "{20, 57}";
}
);
layerId = "C1BD152E-BBB7-4B88-9DA3-7174D04C5495";
paths = (
{
closed = 1;
nodes = (
"187 0 LINE",
"303 404 LINE SMOOTH",
"324 477 OFFCURVE",
"308 525 OFFCURVE",
"308 580 CURVE SMOOTH",
"308 655 OFFCURVE",
"344 681 OFFCURVE",
"386 681 CURVE SMOOTH",
"437 681 OFFCURVE",
"499 632 OFFCURVE",
"561 586 CURVE",
"561 585 LINE",
"490 535 LINE SMOOTH",
"413 481 OFFCURVE",
"364 444 OFFCURVE",
"364 391 CURVE SMOOTH",
"364 349 OFFCURVE",
"391 311 OFFCURVE",
"458 243 CURVE SMOOTH",
"529 171 OFFCURVE",
"557 137 OFFCURVE",
"557 92 CURVE SMOOTH",
"557 45 OFFCURVE",
"523 11 OFFCURVE",
"472 11 CURVE SMOOTH",
"387 11 OFFCURVE",
"320 109 OFFCURVE",
"298 235 CURVE",
"292 235 LINE",
"292 17 LINE",
"304 11 OFFCURVE",
"348 -12 OFFCURVE",
"413 -12 CURVE SMOOTH",
"557 -12 OFFCURVE",
"673 97 OFFCURVE",
"673 232 CURVE SMOOTH",
"673 318 OFFCURVE",
"622 377 OFFCURVE",
"561 438 CURVE SMOOTH",
"526 473 OFFCURVE",
"514 490 OFFCURVE",
"514 511 CURVE SMOOTH",
"514 531 OFFCURVE",
"530 549 OFFCURVE",
"562 571 CURVE SMOOTH",
"719 679 LINE",
"720 683 LINE",
"680 697 OFFCURVE",
"609 724 OFFCURVE",
"523 724 CURVE SMOOTH",
"326 724 OFFCURVE",
"163 580 OFFCURVE",
"127 453 CURVE SMOOTH",
"4 25 LINE",
"-57 5 LINE",
"-57 0 LINE"
);
}
);
width = 699;
}
);
leftKerningGroup = Germandbls;
leftMetricsKey = U;
rightKerningGroup = Germandbls;
unicode = 1E9E;
},
{
color = 4;
glyphname = Schwa;
lastChange = "2023-01-13 21:05:19 +0000";
layers = (
{
background = {
paths = (
{
closed = 1;
nodes = (
"28 273 OFFCURVE",
"27 251 OFFCURVE",
"27 231 CURVE SMOOTH",
"27 79 OFFCURVE",
"123 -12 OFFCURVE",
"277 -12 CURVE SMOOTH",
"502 -12 OFFCURVE",
"736 186 OFFCURVE",
"736 434 CURVE SMOOTH",
"736 615 OFFCURVE",
"601 724 OFFCURVE",
"407 724 CURVE SMOOTH",
"355 724 OFFCURVE",
"309 714 OFFCURVE",
"247 699 CURVE",
"251 770 LINE",
"247 770 LINE",
"150 509 LINE",
"156 509 LINE",
"228 610 OFFCURVE",
"317 713 OFFCURVE",
"396 713 CURVE SMOOTH",
"461 713 OFFCURVE",
"519 622 OFFCURVE",
"519 452 CURVE SMOOTH",
"519 228 OFFCURVE",
"400 -1 OFFCURVE",
"275 -1 CURVE SMOOTH",
"228 -1 OFFCURVE",
"207 50 OFFCURVE",
"207 123 CURVE SMOOTH",
"207 169 OFFCURVE",
"215 222 OFFCURVE",
"230 277 CURVE",
"504 285 LINE",
"550 295 LINE",
"32 295 LINE"
);
}
);
};
guideLines = (
{
position = "{148, 295}";
}
);
layerId = "C1BD152E-BBB7-4B88-9DA3-7174D04C5495";
paths = (
{
closed = 1;
nodes = (
"28 273 OFFCURVE",
"27 251 OFFCURVE",
"27 231 CURVE SMOOTH",
"27 81 OFFCURVE",
"119 -12 OFFCURVE",
"281 -12 CURVE SMOOTH",
"502 -12 OFFCURVE",
"736 196 OFFCURVE",
"736 454 CURVE SMOOTH",
"736 615 OFFCURVE",
"619 724 OFFCURVE",
"437 724 CURVE SMOOTH",
"375 724 OFFCURVE",
"305 712 OFFCURVE",
"247 699 CURVE",
"251 770 LINE",
"247 770 LINE",
"150 509 LINE",
"156 509 LINE",
"228 610 OFFCURVE",
"317 712 OFFCURVE",
"398 712 CURVE SMOOTH",
"463 712 OFFCURVE",
"519 642 OFFCURVE",
"519 482 CURVE SMOOTH",
"519 228 OFFCURVE",
"400 -1 OFFCURVE",
"279 -1 CURVE SMOOTH",
"224 -1 OFFCURVE",
"205 52 OFFCURVE",
"205 119 CURVE SMOOTH",
"205 169 OFFCURVE",
"215 226 OFFCURVE",
"230 277 CURVE",
"504 285 LINE",
"550 295 LINE",
"32 295 LINE"
);
}
);
width = 726;
}
);
leftKerningGroup = Schwa;
rightKerningGroup = O;
rightMetricsKey = O;
unicode = 018F;
},
{
color = 4;
glyphname = T;
lastChange = "2023-01-13 21:05:19 +0000";
layers = (
{
anchors = (
{
name = bottom;
position = "{270, 0}";
},
{
name = top;
position = "{475, 712}";
}
);
background = {
paths = (
{
closed = 1;
nodes = (
"91 508 LINE",
"111 533 LINE SMOOTH",
"194 639 OFFCURVE",
"296 700 OFFCURVE",
"382 701 CURVE",
"382 701 LINE",
"188 25 LINE",
"113 5 LINE",
"112 0 LINE",
"434 0 LINE",
"436 5 LINE",
"372 25 LINE",
"566 701 LINE",
"566 701 LINE",
"651 700 OFFCURVE",
"718 639 OFFCURVE",
"741 533 CURVE SMOOTH",
"746 508 LINE",
"751 508 LINE",
"762 770 LINE",
"757 770 LINE",
"735 712 LINE",
"219 712 LINE",
"230 770 LINE",
"226 770 LINE",
"87 508 LINE"
);
}
);
};
layerId = "C1BD152E-BBB7-4B88-9DA3-7174D04C5495";
paths = (
{
closed = 1;
nodes = (
"84 508 LINE",
"104 533 LINE SMOOTH",
"191 641 OFFCURVE",
"292 700 OFFCURVE",
"382 701 CURVE",
"382 701 LINE",
"188 25 LINE",
"112 5 LINE",
"112 0 LINE",
"441 0 LINE",
"441 5 LINE",
"377 25 LINE",
"571 701 LINE",
"571 701 LINE",
"674 701 OFFCURVE",
"729 637 OFFCURVE",
"758 533 CURVE SMOOTH",
"765 508 LINE",
"771 508 LINE",
"771 770 LINE",
"766 770 LINE",
"744 712 LINE",
"211 712 LINE",
"221 770 LINE",
"217 770 LINE",
"78 508 LINE"
);
}
);
width = 708;
}
);
leftKerningGroup = T;
rightKerningGroup = T;
unicode = 0054;
},
{
color = 4;
glyphname = Tbar;
lastChange = "2022-12-21 12:39:53 +0000";
layers = (
{
components = (
{
name = T;
}
);
layerId = "C1BD152E-BBB7-4B88-9DA3-7174D04C5495";
paths = (
{
closed = 1;
nodes = (
"160 377 LINE",
"603 377 LINE",
"603 389 LINE",
"160 389 LINE"
);
}
);
width = 708;
}
);
leftKerningGroup = T;
leftMetricsKey = T;
rightKerningGroup = T;
rightMetricsKey = T;
unicode = 0166;
},
{
color = 4;
glyphname = U;
lastChange = "2022-12-21 07:58:30 +0000";
layers = (
{
anchors = (
{
name = ogonek;
position = "{491, 0}";
},
{
name = top;
position = "{488, 712}";
}
);
background = {
paths = (
{
closed = 1;
nodes = (
"187 687 LINE",
"61 248 LINE SMOOTH",
"12 77 OFFCURVE",
"66 -13 OFFCURVE",
"266 -13 CURVE SMOOTH",
"485 -13 OFFCURVE",
"598 86 OFFCURVE",
"655 283 CURVE SMOOTH",
"771 687 LINE",
"828 707 LINE",
"829 712 LINE",
"585 712 LINE",
"584 707 LINE",
"597 704 LINE SMOOTH",
"695 682 OFFCURVE",
"738 611 OFFCURVE",
"658 332 CURVE SMOOTH",
"645 288 LINE SMOOTH",
"617 190 OFFCURVE",
"554 135 OFFCURVE",
"410 135 CURVE SMOOTH",
"262 135 OFFCURVE",
"229 188 OFFCURVE",
"258 288 CURVE SMOOTH",
"372 687 LINE",
"434 707 LINE",
"436 712 LINE",
"142 712 LINE",
"141 707 LINE"
);
}
);
};
layerId = "C1BD152E-BBB7-4B88-9DA3-7174D04C5495";
paths = (
{
closed = 1;
nodes = (
"191 687 LINE",
"91 338 LINE SMOOTH",
"25 106 OFFCURVE",
"130 -13 OFFCURVE",
"336 -13 CURVE SMOOTH",
"505 -13 OFFCURVE",
"594 70 OFFCURVE",
"647 256 CURVE SMOOTH",
"771 687 LINE",
"829 707 LINE",
"829 712 LINE",
"584 712 LINE",
"584 707 LINE",
"597 703 LINE SMOOTH",
"689 675 OFFCURVE",
"734 600 OFFCURVE",
"677 404 CURVE SMOOTH",
"635 260 LINE SMOOTH",
"612 180 OFFCURVE",
"562 135 OFFCURVE",
"448 135 CURVE SMOOTH",
"298 135 OFFCURVE",
"239 209 OFFCURVE",
"273 328 CURVE SMOOTH",
"376 687 LINE",
"439 707 LINE",
"439 712 LINE",
"145 712 LINE",
"145 707 LINE"
);
}
);
width = 713;
}
);
leftKerningGroup = U;
leftMetricsKey = H;
rightKerningGroup = U;
rightMetricsKey = H;
unicode = 0055;
},
{
glyphname = Uogonek;
lastChange = "2022-12-24 19:11:39 +0000";
layers = (
{
anchors = (
{
name = ogonek;
position = "{491, 0}";
},
{
name = top;
position = "{488, 712}";
}
);
background = {
components = (
{
name = U;
},
{
name = ogonekcomb;
transform = "{1, 0, 0, 1, 245, 0}";
}
);
};
layerId = "C1BD152E-BBB7-4B88-9DA3-7174D04C5495";
paths = (
{
closed = 1;
nodes = (
"23 101 OFFCURVE",
"140 -11 OFFCURVE",
"320 -11 CURVE SMOOTH",
"408 -11 OFFCURVE",
"462 15 OFFCURVE",
"497 40 CURVE",
"503 32 LINE",
"468 5 LINE SMOOTH",
"384 -60 OFFCURVE",
"315 -112 OFFCURVE",
"315 -168 CURVE SMOOTH",
"315 -206 OFFCURVE",
"348 -237 OFFCURVE",
"397 -237 CURVE SMOOTH",
"452 -237 OFFCURVE",
"497 -196 OFFCURVE",
"535 -144 CURVE",
"526 -144 LINE",
"517 -156 OFFCURVE",
"500 -173 OFFCURVE",
"476 -173 CURVE SMOOTH",
"451 -173 OFFCURVE",
"427 -153 OFFCURVE",
"427 -113 CURVE SMOOTH",
"427 -65 OFFCURVE",
"458 -28 OFFCURVE",
"532 46 CURVE SMOOTH",
"593 108 OFFCURVE",
"623 171 OFFCURVE",
"647 256 CURVE SMOOTH",
"771 687 LINE",
"829 707 LINE",
"829 712 LINE",
"584 712 LINE",
"584 707 LINE",
"597 703 LINE SMOOTH",
"689 675 OFFCURVE",
"734 600 OFFCURVE",
"677 404 CURVE SMOOTH",
"635 260 LINE SMOOTH",
"612 180 OFFCURVE",
"562 135 OFFCURVE",
"448 135 CURVE SMOOTH",
"298 135 OFFCURVE",
"239 209 OFFCURVE",
"273 328 CURVE SMOOTH",
"376 687 LINE",
"439 707 LINE",
"439 712 LINE",
"145 712 LINE",
"145 707 LINE",
"191 687 LINE",
"91 338 LINE SMOOTH"
);
}
);
width = 713;
}
);
leftKerningGroup = U;
rightKerningGroup = U;
unicode = 0172;
},
{
color = 4;
glyphname = V;
lastChange = "2022-12-21 07:58:30 +0000";
layers = (
{
background = {
paths = (
{
closed = 1;
nodes = (
"576 712 LINE",
"575 707 LINE",
"594 703 LINE SMOOTH",
"693 683 OFFCURVE",
"721 614 OFFCURVE",
"514 326 CURVE SMOOTH",
"430 209 LINE",
"352 687 LINE",
"429 707 LINE",
"431 712 LINE",
"117 712 LINE",
"116 707 LINE",
"152 687 LINE",
"272 -27 LINE",
"274 -27 LINE",
"783 687 LINE",
"831 707 LINE",
"833 712 LINE"
);
}
);
};
layerId = "C1BD152E-BBB7-4B88-9DA3-7174D04C5495";
paths = (
{
closed = 1;
nodes = (
"832 707 LINE",
"832 712 LINE",
"575 712 LINE",
"575 707 LINE",
"597 702 LINE SMOOTH",
"685 682 OFFCURVE",
"719 619 OFFCURVE",
"550 381 CURVE SMOOTH",
"429 211 LINE",
"352 687 LINE",
"429 707 LINE",
"429 712 LINE",
"115 712 LINE",
"115 707 LINE",
"152 687 LINE",
"269 -27 LINE",
"274 -27 LINE",
"783 687 LINE"
);
}
);
width = 685;
}
);
leftKerningGroup = V;
leftMetricsKey = A;
rightKerningGroup = V;
rightMetricsKey = A;
unicode = 0056;
},
{
color = 4;
glyphname = W;
lastChange = "2022-12-21 07:58:30 +0000";
layers = (
{
anchors = (
{
name = top;
position = "{638, 712}";
}
);
layerId = "C1BD152E-BBB7-4B88-9DA3-7174D04C5495";
paths = (
{
closed = 1;
nodes = (
"156 687 LINE",
"209 -27 LINE",
"213 -27 LINE",
"528 433 LINE",
"614 -27 LINE",
"619 -27 LINE",
"1076 687 LINE",
"1129 707 LINE",
"1129 712 LINE",
"873 712 LINE",
"873 707 LINE",
"893 702 LINE SMOOTH",
"989 678 OFFCURVE",
"1025 627 OFFCURVE",
"822 312 CURVE SMOOTH",
"764 222 LINE",
"666 739 LINE",
"661 739 LINE",
"380 234 LINE",
"350 687 LINE",
"435 707 LINE",
"435 712 LINE",
"115 712 LINE",
"115 707 LINE"
);
}
);
width = 984;
}
);
leftKerningGroup = W;
rightKerningGroup = W;
unicode = 0057;
},
{
color = 4;
glyphname = X;
lastChange = "2022-12-21 07:58:30 +0000";
layers = (
{
background = {
paths = (
{
closed = 1;
nodes = (
"459 707 LINE",
"460 712 LINE",
"137 712 LINE",
"136 707 LINE",
"173 687 LINE",
"394 25 LINE",
"312 5 LINE",
"310 0 LINE",
"642 0 LINE",
"644 5 LINE",
"607 25 LINE",
"386 687 LINE"
);
},
{
closed = 1;
nodes = (
"-37 25 LINE",
"-85 5 LINE",
"-87 0 LINE",
"183 0 LINE",
"184 5 LINE",
"165 10 LINE SMOOTH",
"66 36 OFFCURVE",
"64 89 OFFCURVE",
"249 269 CURVE SMOOTH",
"306 325 LINE",
"304 334 LINE"
);
},
{
closed = 1;
nodes = (
"740 687 LINE",
"784 707 LINE",
"785 712 LINE",
"559 712 LINE",
"557 707 LINE",
"575 702 LINE SMOOTH",
"653 680 OFFCURVE",
"659 638 OFFCURVE",
"501 488 CURVE SMOOTH",
"451 441 LINE",
"453 432 LINE"
);
}
);
};
layerId = "C1BD152E-BBB7-4B88-9DA3-7174D04C5495";
paths = (
{
closed = 1;
nodes = (
"458 707 LINE",
"458 712 LINE",
"136 712 LINE",
"136 707 LINE",
"173 687 LINE",
"396 25 LINE",
"313 5 LINE",
"313 0 LINE",
"644 0 LINE",
"644 5 LINE",
"607 25 LINE",
"384 687 LINE"
);
},
{
closed = 1;
nodes = (
"-37 25 LINE",
"-86 5 LINE",
"-86 0 LINE",
"183 0 LINE",
"183 5 LINE",
"165 10 LINE SMOOTH",
"71 36 OFFCURVE",
"59 93 OFFCURVE",
"249 268 CURVE SMOOTH",
"310 324 LINE",
"304 334 LINE"
);
},
{
closed = 1;
nodes = (
"740 687 LINE",
"785 707 LINE",
"785 712 LINE",
"558 712 LINE",
"558 707 LINE",
"575 702 LINE SMOOTH",
"651 680 OFFCURVE",
"663 634 OFFCURVE",
"501 488 CURVE SMOOTH",
"449 441 LINE",
"453 429 LINE"
);
}
);
width = 702;
}
);
leftKerningGroup = X;
rightKerningGroup = X;
unicode = 0058;
},
{
color = 4;
glyphname = Y;
lastChange = "2022-12-21 07:58:30 +0000";
layers = (
{
anchors = (
{
name = top;
position = "{467, 712}";
}
);
background = {
paths = (
{
closed = 1;
nodes = (
"143 687 LINE",
"254 324 LINE",
"169 25 LINE",
"85 5 LINE",
"85 0 LINE",
"423 0 LINE",
"423 5 LINE",
"352 25 LINE",
"451 368 LINE",
"756 687 LINE",
"804 707 LINE",
"804 712 LINE",
"542 712 LINE",
"542 707 LINE",
"566 702 LINE SMOOTH",
"668 681 OFFCURVE",
"689 632 OFFCURVE",
"498 434 CURVE SMOOTH",
"447 381 LINE",
"356 687 LINE",
"435 707 LINE",
"435 712 LINE",
"104 712 LINE",
"104 707 LINE"
);
}
);
};
layerId = "C1BD152E-BBB7-4B88-9DA3-7174D04C5495";
paths = (
{
closed = 1;
nodes = (
"145 687 LINE",
"256 331 LINE",
"169 25 LINE",
"85 5 LINE",
"85 0 LINE",
"423 0 LINE",
"423 5 LINE",
"352 25 LINE",
"451 368 LINE",
"754 687 LINE",
"802 707 LINE",
"802 712 LINE",
"542 712 LINE",
"542 707 LINE",
"562 703 LINE SMOOTH",
"659 684 OFFCURVE",
"688 631 OFFCURVE",
"498 434 CURVE SMOOTH",
"447 381 LINE",
"353 687 LINE",
"432 707 LINE",
"432 712 LINE",
"106 712 LINE",
"106 707 LINE"
);
}
);
width = 647;
}
);
leftKerningGroup = Y;
rightKerningGroup = Y;
unicode = 0059;
},
{
color = 4;
glyphname = Z;
lastChange = "2022-12-21 07:58:30 +0000";
layers = (
{
anchors = (
{
name = top;
position = "{419, 712}";
}
);
background = {
paths = (
{
closed = 1;
nodes = (
"87 508 LINE",
"92 508 LINE",
"107 531 LINE SMOOTH",
"184 651 OFFCURVE",
"265 700 OFFCURVE",
"423 700 CURVE SMOOTH",
"480 700 LINE",
"-62 2 LINE",
"-62 0 LINE",
"488 0 LINE",
"598 265 LINE",
"592 265 LINE",
"572 228 LINE SMOOTH",
"490 80 OFFCURVE",
"396 12 OFFCURVE",
"200 12 CURVE SMOOTH",
"149 12 LINE",
"691 710 LINE",
"692 712 LINE",
"202 712 LINE",
"214 770 LINE",
"210 770 LINE"
);
}
);
};
layerId = "C1BD152E-BBB7-4B88-9DA3-7174D04C5495";
paths = (
{
closed = 1;
nodes = (
"87 508 LINE",
"93 508 LINE",
"109 531 LINE SMOOTH",
"190 648 OFFCURVE",
"263 700 OFFCURVE",
"421 700 CURVE SMOOTH",
"470 700 LINE",
"-62 2 LINE",
"-62 0 LINE",
"498 0 LINE",
"608 265 LINE",
"602 265 LINE",
"580 228 LINE SMOOTH",
"494 83 OFFCURVE",
"396 12 OFFCURVE",
"202 12 CURVE SMOOTH",
"159 12 LINE",
"691 710 LINE",
"692 712 LINE",
"206 712 LINE",
"214 770 LINE",
"210 770 LINE"
);
}
);
width = 610;
}
);
leftKerningGroup = Z;
rightKerningGroup = Z;
unicode = 005A;
},
{
color = 4;
glyphname = a;
lastChange = "2023-01-13 21:05:19 +0000";
layers = (
{
anchors = (
{
name = ogonek;
position = "{448, 0}";
},
{
name = top;
position = "{365, 508}";
}
);
background = {
paths = (
{
closed = 1;
nodes = (
"459 -10 OFFCURVE",
"525 75 OFFCURVE",
"577 138 CURVE",
"568 138 LINE",
"552 120 OFFCURVE",
"536 101 OFFCURVE",
"518 101 CURVE SMOOTH",
"499 101 OFFCURVE",
"484 120 OFFCURVE",
"503 186 CURVE SMOOTH",
"597 518 LINE",
"592 518 LINE",
"547 469 LINE",
"488 495 OFFCURVE",
"442 518 OFFCURVE",
"390 518 CURVE SMOOTH",
"250 518 OFFCURVE",
"10 316 OFFCURVE",
"10 129 CURVE SMOOTH",
"10 44 OFFCURVE",
"68 -10 OFFCURVE",
"126 -10 CURVE SMOOTH",
"210 -10 OFFCURVE",
"254 113 OFFCURVE",
"352 322 CURVE SMOOTH",
"374 369 LINE",
"385 369 LINE",
"329 184 LINE SMOOTH",
"292 62 OFFCURVE",
"332 -10 OFFCURVE",
"393 -10 CURVE SMOOTH"
);
},
{
closed = 1;
nodes = (
"203 127 OFFCURVE",
"192 140 OFFCURVE",
"192 172 CURVE SMOOTH",
"192 329 OFFCURVE",
"278 498 OFFCURVE",
"344 498 CURVE SMOOTH",
"372 498 OFFCURVE",
"394 475 OFFCURVE",
"404 463 CURVE",
"341 327 LINE SMOOTH",
"277 188 OFFCURVE",
"246 127 OFFCURVE",
"220 127 CURVE SMOOTH"
);
}
);
};
layerId = "C1BD152E-BBB7-4B88-9DA3-7174D04C5495";
paths = (
{
closed = 1;
nodes = (
"203 127 OFFCURVE",
"192 140 OFFCURVE",
"192 190 CURVE SMOOTH",
"192 329 OFFCURVE",
"279 500 OFFCURVE",
"348 500 CURVE SMOOTH",
"373 500 OFFCURVE",
"395 477 OFFCURVE",
"405 465 CURVE",
"341 327 LINE SMOOTH",
"277 188 OFFCURVE",
"246 127 OFFCURVE",
"217 127 CURVE SMOOTH"
);
},
{
closed = 1;
nodes = (
"460 -12 OFFCURVE",
"525 75 OFFCURVE",
"577 138 CURVE",
"568 138 LINE",
"552 120 OFFCURVE",
"536 101 OFFCURVE",
"518 101 CURVE SMOOTH",
"499 101 OFFCURVE",
"484 120 OFFCURVE",
"503 186 CURVE SMOOTH",
"597 518 LINE",
"592 518 LINE",
"548 471 LINE",
"489 497 OFFCURVE",
"443 520 OFFCURVE",
"395 520 CURVE SMOOTH",
"251 520 OFFCURVE",
"10 316 OFFCURVE",
"10 134 CURVE SMOOTH",
"10 42 OFFCURVE",
"68 -12 OFFCURVE",
"125 -12 CURVE SMOOTH",
"210 -12 OFFCURVE",
"254 113 OFFCURVE",
"352 322 CURVE SMOOTH",
"374 369 LINE",
"383 369 LINE",
"329 184 LINE SMOOTH",
"288 42 OFFCURVE",
"332 -12 OFFCURVE",
"389 -12 CURVE SMOOTH"
);
}
);
width = 585;
}
);
leftKerningGroup = a;
rightKerningGroup = a;
unicode = 0061;
},
{
glyphname = aogonek;
lastChange = "2022-12-24 19:11:39 +0000";
layers = (
{
anchors = (
{
name = ogonek;
position = "{448, 0}";
},
{
name = top;
position = "{365, 508}";
}
);
background = {
paths = (
{
closed = 1;
nodes = (
"460 -12 OFFCURVE",
"525 75 OFFCURVE",
"577 138 CURVE",
"568 138 LINE",
"552 120 OFFCURVE",
"536 101 OFFCURVE",
"518 101 CURVE SMOOTH",
"499 101 OFFCURVE",
"484 120 OFFCURVE",
"503 186 CURVE SMOOTH",
"597 518 LINE",
"592 518 LINE",
"548 471 LINE",
"489 497 OFFCURVE",
"443 520 OFFCURVE",
"395 520 CURVE SMOOTH",
"251 520 OFFCURVE",
"10 316 OFFCURVE",
"10 134 CURVE SMOOTH",
"10 42 OFFCURVE",
"68 -12 OFFCURVE",
"125 -12 CURVE SMOOTH",
"210 -12 OFFCURVE",
"254 113 OFFCURVE",
"352 322 CURVE SMOOTH",
"374 369 LINE",
"383 369 LINE",
"329 184 LINE SMOOTH",
"288 42 OFFCURVE",
"332 -12 OFFCURVE",
"389 -12 CURVE SMOOTH"
);
},
{
closed = 1;
nodes = (
"203 127 OFFCURVE",
"192 140 OFFCURVE",
"192 190 CURVE SMOOTH",
"192 329 OFFCURVE",
"279 500 OFFCURVE",
"348 500 CURVE SMOOTH",
"373 500 OFFCURVE",
"395 477 OFFCURVE",
"405 465 CURVE",
"341 327 LINE SMOOTH",
"277 188 OFFCURVE",
"246 127 OFFCURVE",
"217 127 CURVE SMOOTH"
);
},
{
closed = 1;
nodes = (
"365 -43 OFFCURVE",
"272 -90 OFFCURVE",
"272 -161 CURVE SMOOTH",
"272 -204 OFFCURVE",
"307 -237 OFFCURVE",
"355 -237 CURVE SMOOTH",
"408 -237 OFFCURVE",
"454 -196 OFFCURVE",
"492 -144 CURVE",
"483 -144 LINE",
"474 -156 OFFCURVE",
"457 -173 OFFCURVE",
"432 -173 CURVE SMOOTH",
"405 -173 OFFCURVE",
"384 -154 OFFCURVE",
"384 -116 CURVE SMOOTH",
"384 -67 OFFCURVE",
"418 -26 OFFCURVE",
"455 4 CURVE",
"447 4 LINE"
);
}
);
};
layerId = "C1BD152E-BBB7-4B88-9DA3-7174D04C5495";
paths = (
{
closed = 1;
nodes = (
"503 186 LINE",
"597 518 LINE",
"592 518 LINE",
"548 471 LINE",
"489 497 OFFCURVE",
"443 520 OFFCURVE",
"395 520 CURVE SMOOTH",
"251 520 OFFCURVE",
"10 316 OFFCURVE",
"10 134 CURVE SMOOTH",
"10 42 OFFCURVE",
"68 -12 OFFCURVE",
"125 -12 CURVE SMOOTH",
"210 -12 OFFCURVE",
"254 113 OFFCURVE",
"352 322 CURVE SMOOTH",
"374 369 LINE",
"383 369 LINE",
"329 184 LINE"
);
},
{
closed = 1;
nodes = (
"203 127 OFFCURVE",
"192 140 OFFCURVE",
"192 190 CURVE SMOOTH",
"192 329 OFFCURVE",
"279 500 OFFCURVE",
"348 500 CURVE SMOOTH",
"373 500 OFFCURVE",
"395 477 OFFCURVE",
"405 465 CURVE",
"341 327 LINE SMOOTH",
"277 188 OFFCURVE",
"246 127 OFFCURVE",
"217 127 CURVE SMOOTH"
);
},
{
closed = 1;
nodes = (
"291 50 OFFCURVE",
"332 0 OFFCURVE",
"381 0 CURVE SMOOTH",
"406 0 OFFCURVE",
"425 13 OFFCURVE",
"459 39 CURVE",
"465 31 LINE",
"431 5 LINE SMOOTH",
"347 -59 OFFCURVE",
"276 -112 OFFCURVE",
"276 -168 CURVE SMOOTH",
"276 -206 OFFCURVE",
"309 -237 OFFCURVE",
"358 -237 CURVE SMOOTH",
"413 -237 OFFCURVE",
"458 -196 OFFCURVE",
"496 -144 CURVE",
"487 -144 LINE",
"478 -156 OFFCURVE",
"461 -173 OFFCURVE",
"437 -173 CURVE SMOOTH",
"412 -173 OFFCURVE",
"388 -153 OFFCURVE",
"388 -113 CURVE SMOOTH",
"388 -65 OFFCURVE",
"420 -26 OFFCURVE",
"480 30 CURVE SMOOTH",
"523 71 OFFCURVE",
"552 107 OFFCURVE",
"577 138 CURVE",
"568 138 LINE",
"552 120 OFFCURVE",
"536 101 OFFCURVE",
"517 101 CURVE SMOOTH",
"498 101 OFFCURVE",
"484 121 OFFCURVE",
"503 186 CURVE",
"329 184 LINE"
);
}
);
width = 585;
}
);
leftKerningGroup = a;
rightKerningGroup = a;
rightMetricsKey = a;
unicode = 0105;
},
{
color = 4;
glyphname = aringacute;
lastChange = "2022-12-23 16:51:18 +0000";
layers = (
{
anchors = (
{
name = _top;
position = "{365, 508}";
}
);
components = (
{
name = a;
}
);
layerId = "C1BD152E-BBB7-4B88-9DA3-7174D04C5495";
paths = (
{
closed = 1;
nodes = (
"472 552 OFFCURVE",
"527 598 OFFCURVE",
"527 670 CURVE SMOOTH",
"527 738 OFFCURVE",
"480 784 OFFCURVE",
"416 784 CURVE SMOOTH",
"349 784 OFFCURVE",
"294 740 OFFCURVE",
"294 664 CURVE SMOOTH",
"294 598 OFFCURVE",
"341 552 OFFCURVE",
"406 552 CURVE SMOOTH"
);
},
{
closed = 1;
nodes = (
"348 563 OFFCURVE",
"305 604 OFFCURVE",
"305 664 CURVE SMOOTH",
"305 734 OFFCURVE",
"355 773 OFFCURVE",
"416 773 CURVE SMOOTH",
"473 773 OFFCURVE",
"516 732 OFFCURVE",
"516 670 CURVE SMOOTH",
"516 603 OFFCURVE",
"466 563 OFFCURVE",
"406 563 CURVE SMOOTH"
);
},
{
closed = 1;
nodes = (
"443 771 LINE",
"537 829 OFFCURVE",
"651 908 OFFCURVE",
"704 961 CURVE",
"704 966 LINE",
"560 966 LINE",
"527 903 OFFCURVE",
"470 811 OFFCURVE",
"438 771 CURVE"
);
}
);
width = 585;
}
);
leftKerningGroup = a;
rightKerningGroup = a;
unicode = 01FB;
},
{
color = 4;
glyphname = ae;
lastChange = "2023-01-13 21:05:19 +0000";
layers = (
{
anchors = (
{
name = top;
position = "{482, 508}";
}
);
background = {
paths = (
{
closed = 1;
nodes = (
"344 69 OFFCURVE",
"417 -12 OFFCURVE",
"524 -12 CURVE SMOOTH",
"640 -12 OFFCURVE",
"707 85 OFFCURVE",
"761 187 CURVE",
"753 187 LINE",
"720 134 OFFCURVE",
"689 111 OFFCURVE",
"640 111 CURVE SMOOTH",
"566 111 OFFCURVE",
"509 160 OFFCURVE",
"509 273 CURVE SMOOTH",
"509 382 OFFCURVE",
"561 503 OFFCURVE",
"623 503 CURVE SMOOTH",
"637 503 OFFCURVE",
"649 493 OFFCURVE",
"649 461 CURVE SMOOTH",
"649 377 OFFCURVE",
"584 313 OFFCURVE",
"502 288 CURVE",
"502 279 LINE",
"645 322 OFFCURVE",
"783 375 OFFCURVE",
"783 450 CURVE SMOOTH",
"783 486 OFFCURVE",
"745 520 OFFCURVE",
"672 520 CURVE SMOOTH",
"502 520 OFFCURVE",
"344 353 OFFCURVE",
"344 188 CURVE SMOOTH"
);
}
);
};
layerId = "C1BD152E-BBB7-4B88-9DA3-7174D04C5495";
paths = (
{
closed = 1;
nodes = (
"203 127 OFFCURVE",
"192 140 OFFCURVE",
"192 190 CURVE SMOOTH",
"192 329 OFFCURVE",
"279 500 OFFCURVE",
"348 500 CURVE SMOOTH",
"373 500 OFFCURVE",
"395 477 OFFCURVE",
"405 465 CURVE",
"341 327 LINE SMOOTH",
"277 188 OFFCURVE",
"246 127 OFFCURVE",
"217 127 CURVE SMOOTH"
);
},
{
closed = 1;
nodes = (
"463 223 LINE",
"548 471 LINE",
"489 497 OFFCURVE",
"443 520 OFFCURVE",
"395 520 CURVE SMOOTH",
"251 520 OFFCURVE",
"10 316 OFFCURVE",
"10 134 CURVE SMOOTH",
"10 42 OFFCURVE",
"68 -12 OFFCURVE",
"125 -12 CURVE SMOOTH",
"210 -12 OFFCURVE",
"253 111 OFFCURVE",
"352 322 CURVE SMOOTH",
"374 369 LINE",
"383 369 LINE",
"371 328 LINE SMOOTH",
"354 270 OFFCURVE",
"344 234 OFFCURVE",
"344 188 CURVE"
);
},
{
closed = 1;
nodes = (
"344 69 OFFCURVE",
"417 -12 OFFCURVE",
"524 -12 CURVE SMOOTH",
"642 -12 OFFCURVE",
"709 85 OFFCURVE",
"761 187 CURVE",
"753 187 LINE",
"722 134 OFFCURVE",
"691 111 OFFCURVE",
"640 111 CURVE SMOOTH",
"568 111 OFFCURVE",
"516 160 OFFCURVE",
"516 273 CURVE SMOOTH",
"516 382 OFFCURVE",
"571 503 OFFCURVE",
"625 503 CURVE SMOOTH",
"638 503 OFFCURVE",
"649 491 OFFCURVE",
"649 461 CURVE SMOOTH",
"649 382 OFFCURVE",
"584 313 OFFCURVE",
"502 288 CURVE",
"502 278 LINE",
"645 322 OFFCURVE",
"785 375 OFFCURVE",
"785 449 CURVE SMOOTH",
"785 486 OFFCURVE",
"752 520 OFFCURVE",
"682 520 CURVE SMOOTH",
"502 520 OFFCURVE",
"344 353 OFFCURVE",
"344 188 CURVE SMOOTH"
);
}
);
width = 780;
}
);
leftKerningGroup = a;
leftMetricsKey = a;
rightKerningGroup = e;
rightMetricsKey = e;
unicode = 00E6;
},
{
color = 4;
glyphname = b;
lastChange = "2023-01-13 21:05:19 +0000";
layers = (
{
anchors = (
{
name = top;
position = "{438, 772}";
}
);
background = {
paths = (
{
closed = 1;
nodes = (
"-14 -10 LINE",
"31 39 LINE",
"90 13 OFFCURVE",
"136 -10 OFFCURVE",
"184 -10 CURVE SMOOTH",
"328 -10 OFFCURVE",
"568 192 OFFCURVE",
"568 374 CURVE SMOOTH",
"568 464 OFFCURVE",
"510 518 OFFCURVE",
"452 518 CURVE SMOOTH",
"368 518 OFFCURVE",
"324 395 OFFCURVE",
"226 186 CURVE SMOOTH",
"204 139 LINE",
"195 139 LINE",
"384 791 LINE",
"383 791 LINE",
"126 712 LINE",
"126 707 LINE",
"181 690 LINE",
"-19 -10 LINE"
);
},
{
closed = 1;
nodes = (
"375 381 OFFCURVE",
"386 368 OFFCURVE",
"386 318 CURVE SMOOTH",
"386 179 OFFCURVE",
"300 10 OFFCURVE",
"231 10 CURVE SMOOTH",
"206 10 OFFCURVE",
"184 33 OFFCURVE",
"174 45 CURVE",
"237 181 LINE SMOOTH",
"301 320 OFFCURVE",
"332 381 OFFCURVE",
"361 381 CURVE SMOOTH"
);
}
);
};
layerId = "C1BD152E-BBB7-4B88-9DA3-7174D04C5495";
paths = (
{
closed = 1;
nodes = (
"-15 -12 LINE",
"30 37 LINE",
"89 11 OFFCURVE",
"135 -12 OFFCURVE",
"183 -12 CURVE SMOOTH",
"327 -12 OFFCURVE",
"568 192 OFFCURVE",
"568 374 CURVE SMOOTH",
"568 466 OFFCURVE",
"510 520 OFFCURVE",
"452 520 CURVE SMOOTH",
"368 520 OFFCURVE",
"324 395 OFFCURVE",
"226 186 CURVE SMOOTH",
"204 139 LINE",
"195 139 LINE",
"383 786 LINE",
"382 786 LINE",
"126 712 LINE",
"126 707 LINE",
"181 690 LINE",
"-20 -12 LINE"
);
},
{
closed = 1;
nodes = (
"375 381 OFFCURVE",
"386 368 OFFCURVE",
"386 318 CURVE SMOOTH",
"386 179 OFFCURVE",
"299 8 OFFCURVE",
"230 8 CURVE SMOOTH",
"205 8 OFFCURVE",
"183 31 OFFCURVE",
"173 43 CURVE",
"237 181 LINE SMOOTH",
"301 320 OFFCURVE",
"332 381 OFFCURVE",
"361 381 CURVE SMOOTH"
);
}
);
width = 578;
}
);
leftKerningGroup = b;
rightKerningGroup = b;
rightMetricsKey = "=|a";
unicode = 0062;
},
{
color = 4;
glyphname = c;
lastChange = "2023-01-13 21:05:19 +0000";
layers = (
{
anchors = (
{
name = bottom;
position = "{176, 0}";
},
{
name = top;
position = "{299, 508}";
}
);
background = {
paths = (
{
closed = 1;
nodes = (
"17 69 OFFCURVE",
"92 -12 OFFCURVE",
"201 -12 CURVE SMOOTH",
"319 -12 OFFCURVE",
"384 85 OFFCURVE",
"438 187 CURVE",
"430 187 LINE",
"397 134 OFFCURVE",
"366 111 OFFCURVE",
"315 111 CURVE SMOOTH",
"239 111 OFFCURVE",
"185 160 OFFCURVE",
"185 273 CURVE SMOOTH",
"185 382 OFFCURVE",
"227 504 OFFCURVE",
"283 504 CURVE SMOOTH",
"314 504 OFFCURVE",
"328 470 OFFCURVE",
"374 340 CURVE SMOOTH",
"388 300 LINE",
"419 316 OFFCURVE",
"459 358 OFFCURVE",
"459 413 CURVE SMOOTH",
"459 467 OFFCURVE",
"422 520 OFFCURVE",
"331 520 CURVE SMOOTH",
"169 520 OFFCURVE",
"17 355 OFFCURVE",
"17 189 CURVE SMOOTH"
);
}
);
};
layerId = "C1BD152E-BBB7-4B88-9DA3-7174D04C5495";
paths = (
{
closed = 1;
nodes = (
"17 69 OFFCURVE",
"92 -12 OFFCURVE",
"197 -12 CURVE SMOOTH",
"315 -12 OFFCURVE",
"380 85 OFFCURVE",
"432 187 CURVE",
"424 187 LINE",
"393 134 OFFCURVE",
"362 111 OFFCURVE",
"311 111 CURVE SMOOTH",
"241 111 OFFCURVE",
"192 160 OFFCURVE",
"192 273 CURVE SMOOTH",
"192 382 OFFCURVE",
"233 503 OFFCURVE",
"284 503 CURVE SMOOTH",
"314 503 OFFCURVE",
"328 470 OFFCURVE",
"374 340 CURVE SMOOTH",
"388 300 LINE",
"419 316 OFFCURVE",
"459 358 OFFCURVE",
"459 413 CURVE SMOOTH",
"459 467 OFFCURVE",
"424 520 OFFCURVE",
"335 520 CURVE SMOOTH",
"171 520 OFFCURVE",
"17 353 OFFCURVE",
"17 189 CURVE SMOOTH"
);
}
);
width = 461;
}
);
leftKerningGroup = c;
rightKerningGroup = c;
unicode = 0063;
},
{
color = 4;
glyphname = d;
lastChange = "2022-12-21 12:35:02 +0000";
layers = (
{
anchors = (
{
name = top;
position = "{437, 772}";
}
);
layerId = "C1BD152E-BBB7-4B88-9DA3-7174D04C5495";
paths = (
{
closed = 1;
nodes = (
"676 786 LINE",
"675 786 LINE",
"414 712 LINE",
"414 707 LINE",
"474 690 LINE",
"422 507 LINE",
"503 186 LINE"
);
},
{
closed = 1;
nodes = (
"203 127 OFFCURVE",
"192 140 OFFCURVE",
"192 190 CURVE SMOOTH",
"192 329 OFFCURVE",
"279 500 OFFCURVE",
"348 500 CURVE SMOOTH",
"373 500 OFFCURVE",
"395 477 OFFCURVE",
"405 465 CURVE",
"341 327 LINE SMOOTH",
"277 188 OFFCURVE",
"246 127 OFFCURVE",
"217 127 CURVE SMOOTH"
);
},
{
closed = 1;
nodes = (
"461 -12 OFFCURVE",
"525 75 OFFCURVE",
"577 138 CURVE",
"568 138 LINE",
"552 120 OFFCURVE",
"536 101 OFFCURVE",
"518 101 CURVE SMOOTH",
"499 101 OFFCURVE",
"484 120 OFFCURVE",
"503 186 CURVE SMOOTH",
"598 520 LINE",
"593 520 LINE",
"548 471 LINE",
"489 497 OFFCURVE",
"443 520 OFFCURVE",
"395 520 CURVE SMOOTH",
"251 520 OFFCURVE",
"10 316 OFFCURVE",
"10 134 CURVE SMOOTH",
"10 42 OFFCURVE",
"68 -12 OFFCURVE",
"125 -12 CURVE SMOOTH",
"210 -12 OFFCURVE",
"254 113 OFFCURVE",
"352 322 CURVE SMOOTH",
"374 369 LINE",
"383 369 LINE",
"329 184 LINE SMOOTH",
"288 42 OFFCURVE",
"332 -12 OFFCURVE",
"389 -12 CURVE SMOOTH"
);
}
);
width = 585;
}
);
leftKerningGroup = a;
leftMetricsKey = a;
rightKerningGroup = d;
rightMetricsKey = a;
unicode = 0064;
},
{
color = 4;
glyphname = eth;
lastChange = "2023-01-13 21:05:19 +0000";
layers = (
{
background = {
paths = (
{
closed = 1;
nodes = (
"260 609 LINE",
"266 599 LINE",
"397 676 LINE",
"394 688 LINE"
);
},
{
closed = 1;
nodes = (
"588 790 LINE",
"582 800 LINE",
"419 703 LINE",
"423 692 LINE"
);
},
{
closed = 1;
nodes = (
"21 67 OFFCURVE",
"105 -12 OFFCURVE",
"224 -12 CURVE SMOOTH",
"405 -12 OFFCURVE",
"545 161 OFFCURVE",
"545 375 CURVE SMOOTH",
"545 574 OFFCURVE",
"396 745 OFFCURVE",
"339 800 CURVE",
"335 796 LINE",
"366 719 OFFCURVE",
"392 616 OFFCURVE",
"392 513 CURVE",
"378 516 OFFCURVE",
"358 520 OFFCURVE",
"332 520 CURVE SMOOTH",
"185 520 OFFCURVE",
"21 385 OFFCURVE",
"21 199 CURVE SMOOTH"
);
},
{
closed = 1;
nodes = (
"189 278 OFFCURVE",
"258 508 OFFCURVE",
"326 508 CURVE SMOOTH",
"353 508 OFFCURVE",
"368 461 OFFCURVE",
"368 389 CURVE SMOOTH",
"368 243 OFFCURVE",
"301 0 OFFCURVE",
"234 0 CURVE SMOOTH",
"203 0 OFFCURVE",
"189 53 OFFCURVE",
"189 130 CURVE SMOOTH"
);
}
);
};
layerId = "C1BD152E-BBB7-4B88-9DA3-7174D04C5495";
paths = (
{
closed = 1;
nodes = (
"260 609 LINE",
"266 599 LINE",
"397 676 LINE",
"394 688 LINE"
);
},
{
closed = 1;
nodes = (
"588 790 LINE",
"582 800 LINE",
"419 703 LINE",
"423 692 LINE"
);
},
{
closed = 1;
nodes = (
"17 57 OFFCURVE",
"97 -12 OFFCURVE",
"206 -12 CURVE SMOOTH",
"385 -12 OFFCURVE",
"545 161 OFFCURVE",
"545 375 CURVE SMOOTH",
"545 574 OFFCURVE",
"396 745 OFFCURVE",
"339 800 CURVE",
"335 796 LINE",
"366 719 OFFCURVE",
"392 618 OFFCURVE",
"392 516 CURVE",
"382 518 OFFCURVE",
"364 520 OFFCURVE",
"350 520 CURVE SMOOTH",
"179 520 OFFCURVE",
"17 367 OFFCURVE",
"17 173 CURVE SMOOTH"
);
},
{
closed = 1;
nodes = (
"368 243 OFFCURVE",
"301 1 OFFCURVE",
"236 1 CURVE SMOOTH",
"205 1 OFFCURVE",
"189 53 OFFCURVE",
"189 130 CURVE SMOOTH",
"189 278 OFFCURVE",
"258 507 OFFCURVE",
"326 507 CURVE SMOOTH",
"351 507 OFFCURVE",
"368 461 OFFCURVE",
"368 389 CURVE SMOOTH"
);
}
);
width = 557;
}
);
leftKerningGroup = o;
leftMetricsKey = o;
rightKerningGroup = eth;
unicode = 00F0;
},
{
color = 4;
glyphname = dcroat;
lastChange = "2022-12-21 12:42:11 +0000";
layers = (
{
components = (
{
name = d;
}
);
layerId = "C1BD152E-BBB7-4B88-9DA3-7174D04C5495";
paths = (
{
closed = 1;
nodes = (
"351 602 LINE",
"700 602 LINE",
"700 614 LINE",
"351 614 LINE"
);
}
);
width = 585;
}
);
leftKerningGroup = a;
rightKerningGroup = d;
unicode = 0111;
},
{
color = 4;
glyphname = e;
lastChange = "2023-01-13 21:05:19 +0000";
layers = (
{
anchors = (
{
name = bottom;
position = "{175, 0}";
},
{
name = ogonek;
position = "{346, 0}";
},
{
name = top;
position = "{299, 508}";
}
);
background = {
paths = (
{
closed = 1;
nodes = (
"16 69 OFFCURVE",
"89 -12 OFFCURVE",
"196 -12 CURVE SMOOTH",
"312 -12 OFFCURVE",
"379 85 OFFCURVE",
"433 187 CURVE",
"425 187 LINE",
"392 134 OFFCURVE",
"361 111 OFFCURVE",
"312 111 CURVE SMOOTH",
"238 111 OFFCURVE",
"181 160 OFFCURVE",
"181 273 CURVE SMOOTH",
"181 382 OFFCURVE",
"233 503 OFFCURVE",
"295 503 CURVE SMOOTH",
"309 503 OFFCURVE",
"321 493 OFFCURVE",
"321 461 CURVE SMOOTH",
"321 377 OFFCURVE",
"256 313 OFFCURVE",
"174 288 CURVE",
"174 279 LINE",
"317 322 OFFCURVE",
"455 375 OFFCURVE",
"455 450 CURVE SMOOTH",
"455 486 OFFCURVE",
"417 520 OFFCURVE",
"344 520 CURVE SMOOTH",
"174 520 OFFCURVE",
"16 353 OFFCURVE",
"16 188 CURVE SMOOTH"
);
}
);
};
layerId = "C1BD152E-BBB7-4B88-9DA3-7174D04C5495";
paths = (
{
closed = 1;
nodes = (
"16 69 OFFCURVE",
"89 -12 OFFCURVE",
"196 -12 CURVE SMOOTH",
"314 -12 OFFCURVE",
"381 85 OFFCURVE",
"433 187 CURVE",
"425 187 LINE",
"394 134 OFFCURVE",
"363 111 OFFCURVE",
"312 111 CURVE SMOOTH",
"240 111 OFFCURVE",
"188 160 OFFCURVE",
"188 273 CURVE SMOOTH",
"188 382 OFFCURVE",
"243 503 OFFCURVE",
"297 503 CURVE SMOOTH",
"310 503 OFFCURVE",
"321 491 OFFCURVE",
"321 461 CURVE SMOOTH",
"321 382 OFFCURVE",
"256 313 OFFCURVE",
"174 288 CURVE",
"174 278 LINE",
"317 322 OFFCURVE",
"457 375 OFFCURVE",
"457 449 CURVE SMOOTH",
"457 486 OFFCURVE",
"424 520 OFFCURVE",
"354 520 CURVE SMOOTH",
"174 520 OFFCURVE",
"16 353 OFFCURVE",
"16 188 CURVE SMOOTH"
);
}
);
width = 452;
}
);
leftKerningGroup = c;
leftMetricsKey = c;
rightKerningGroup = e;
unicode = 0065;
},
{
glyphname = eogonek;
lastChange = "2023-01-13 21:05:19 +0000";
layers = (
{
anchors = (
{
name = bottom;
position = "{175, 0}";
},
{
name = ogonek;
position = "{346, 0}";
},
{
name = top;
position = "{299, 508}";
}
);
background = {
components = (
{
name = e;
},
{
name = ogonekcomb;
transform = "{1, 0, 0, 1, 100, 0}";
}
);
};
layerId = "C1BD152E-BBB7-4B88-9DA3-7174D04C5495";
paths = (
{
closed = 1;
nodes = (
"16 69 OFFCURVE",
"91 -9 OFFCURVE",
"183 -9 CURVE SMOOTH",
"233 -9 OFFCURVE",
"266 14 OFFCURVE",
"301 39 CURVE",
"307 31 LINE",
"273 5 LINE SMOOTH",
"189 -59 OFFCURVE",
"118 -112 OFFCURVE",
"118 -168 CURVE SMOOTH",
"118 -206 OFFCURVE",
"151 -237 OFFCURVE",
"200 -237 CURVE SMOOTH",
"255 -237 OFFCURVE",
"300 -196 OFFCURVE",
"338 -144 CURVE",
"329 -144 LINE",
"320 -156 OFFCURVE",
"303 -173 OFFCURVE",
"279 -173 CURVE SMOOTH",
"254 -173 OFFCURVE",
"230 -153 OFFCURVE",
"230 -113 CURVE SMOOTH",
"230 -65 OFFCURVE",
"262 -26 OFFCURVE",
"321 31 CURVE SMOOTH",
"376 84 OFFCURVE",
"406 135 OFFCURVE",
"433 187 CURVE",
"425 187 LINE",
"394 134 OFFCURVE",
"363 111 OFFCURVE",
"312 111 CURVE SMOOTH",
"240 111 OFFCURVE",
"188 160 OFFCURVE",
"188 273 CURVE SMOOTH",
"188 382 OFFCURVE",
"243 503 OFFCURVE",
"297 503 CURVE SMOOTH",
"310 503 OFFCURVE",
"321 491 OFFCURVE",
"321 461 CURVE SMOOTH",
"321 382 OFFCURVE",
"256 313 OFFCURVE",
"174 288 CURVE",
"174 278 LINE",
"317 322 OFFCURVE",
"457 375 OFFCURVE",
"457 449 CURVE SMOOTH",
"457 486 OFFCURVE",
"424 520 OFFCURVE",
"354 520 CURVE SMOOTH",
"174 520 OFFCURVE",
"16 353 OFFCURVE",
"16 188 CURVE SMOOTH"
);
}
);
width = 452;
}
);
leftKerningGroup = c;
leftMetricsKey = e;
rightKerningGroup = e;
rightMetricsKey = e;
unicode = 0119;
},
{
color = 4;
glyphname = f;
lastChange = "2023-01-13 21:05:19 +0000";
layers = (
{
anchors = (
{
name = top;
position = "{320, 772}";
}
);
background = {
paths = (
{
closed = 1;
nodes = (
"-245 -175 OFFCURVE",
"-219 -200 OFFCURVE",
"-157 -200 CURVE SMOOTH",
"6 -200 OFFCURVE",
"143 -72 OFFCURVE",
"204 140 CURVE SMOOTH",
"306 496 LINE",
"412 496 LINE",
"412 508 LINE",
"248 508 LINE",
"224 531 OFFCURVE",
"200 564 OFFCURVE",
"200 598 CURVE SMOOTH",
"200 639 OFFCURVE",
"236 677 OFFCURVE",
"409 653 CURVE SMOOTH",
"445 648 LINE",
"452 660 OFFCURVE",
"463 683 OFFCURVE",
"463 708 CURVE SMOOTH",
"463 744 OFFCURVE",
"438 773 OFFCURVE",
"394 773 CURVE SMOOTH",
"308 773 OFFCURVE",
"196 677 OFFCURVE",
"137 508 CURVE",
"28 508 LINE",
"28 496 LINE",
"133 496 LINE",
"-36 -87 LINE SMOOTH",
"-54 -148 OFFCURVE",
"-69 -182 OFFCURVE",
"-101 -182 CURVE SMOOTH",
"-130 -182 OFFCURVE",
"-162 -135 OFFCURVE",
"-192 -92 CURVE SMOOTH",
"-203 -76 LINE",
"-222 -89 OFFCURVE",
"-245 -114 OFFCURVE",
"-245 -143 CURVE SMOOTH"
);
}
);
};
layerId = "C1BD152E-BBB7-4B88-9DA3-7174D04C5495";
paths = (
{
closed = 1;
nodes = (
"-249 -171 OFFCURVE",
"-218 -200 OFFCURVE",
"-159 -200 CURVE SMOOTH",
"6 -200 OFFCURVE",
"143 -72 OFFCURVE",
"204 140 CURVE SMOOTH",
"306 496 LINE",
"412 496 LINE",
"412 508 LINE",
"246 508 LINE",
"226 527 OFFCURVE",
"200 563 OFFCURVE",
"200 598 CURVE SMOOTH",
"200 639 OFFCURVE",
"236 677 OFFCURVE",
"409 653 CURVE SMOOTH",
"445 648 LINE",
"452 660 OFFCURVE",
"463 683 OFFCURVE",
"463 708 CURVE SMOOTH",
"463 744 OFFCURVE",
"438 773 OFFCURVE",
"392 773 CURVE SMOOTH",
"308 773 OFFCURVE",
"196 677 OFFCURVE",
"137 508 CURVE",
"32 508 LINE",
"32 496 LINE",
"133 496 LINE",
"-36 -87 LINE SMOOTH",
"-54 -148 OFFCURVE",
"-70 -182 OFFCURVE",
"-101 -182 CURVE SMOOTH",
"-134 -182 OFFCURVE",
"-163 -134 OFFCURVE",
"-191 -85 CURVE SMOOTH",
"-203 -64 LINE",
"-224 -80 OFFCURVE",
"-249 -105 OFFCURVE",
"-249 -136 CURVE SMOOTH"
);
}
);
width = 333;
}
);
leftKerningGroup = f;
rightKerningGroup = f;
unicode = 0066;
},
{
color = 4;
glyphname = g;
lastChange = "2023-01-13 21:05:19 +0000";
layers = (
{
anchors = (
{
name = bottom;
position = "{92, -200}";
},
{
name = top;
position = "{365, 508}";
}
);
background = {
paths = (
{
closed = 1;
nodes = (
"223 -169 OFFCURVE",
"192 -191 OFFCURVE",
"159 -191 CURVE SMOOTH",
"105 -191 OFFCURVE",
"49 -128 OFFCURVE",
"49 -83 CURVE SMOOTH",
"49 -30 OFFCURVE",
"129 -35 OFFCURVE",
"180 11 CURVE",
"131 -7 LINE",
"92 -32 OFFCURVE",
"-102 -15 OFFCURVE",
"-102 -94 CURVE SMOOTH",
"-102 -160 OFFCURVE",
"31 -204 OFFCURVE",
"132 -204 CURVE SMOOTH",
"311 -204 OFFCURVE",
"430 -65 OFFCURVE",
"474 90 CURVE",
"245 -96 LINE"
);
},
{
closed = 1;
nodes = (
"474 90 LINE",
"596 518 LINE",
"591 518 LINE",
"546 469 LINE",
"487 495 OFFCURVE",
"441 518 OFFCURVE",
"393 518 CURVE SMOOTH",
"249 518 OFFCURVE",
"9 316 OFFCURVE",
"9 134 CURVE SMOOTH",
"9 44 OFFCURVE",
"67 -10 OFFCURVE",
"125 -10 CURVE SMOOTH",
"209 -10 OFFCURVE",
"253 113 OFFCURVE",
"351 322 CURVE SMOOTH",
"373 369 LINE",
"382 369 LINE",
"245 -96 LINE"
);
},
{
closed = 1;
nodes = (
"202 127 OFFCURVE",
"191 140 OFFCURVE",
"191 190 CURVE SMOOTH",
"191 329 OFFCURVE",
"277 498 OFFCURVE",
"346 498 CURVE SMOOTH",
"371 498 OFFCURVE",
"393 475 OFFCURVE",
"403 463 CURVE",
"340 327 LINE SMOOTH",
"276 188 OFFCURVE",
"245 127 OFFCURVE",
"216 127 CURVE SMOOTH"
);
}
);
};
layerId = "C1BD152E-BBB7-4B88-9DA3-7174D04C5495";
paths = (
{
closed = 1;
nodes = (
"-102 -160 OFFCURVE",
"31 -204 OFFCURVE",
"132 -204 CURVE SMOOTH",
"311 -204 OFFCURVE",
"430 -65 OFFCURVE",
"474 90 CURVE SMOOTH",
"597 520 LINE",
"592 520 LINE",
"547 471 LINE",
"488 497 OFFCURVE",
"442 520 OFFCURVE",
"394 520 CURVE SMOOTH",
"250 520 OFFCURVE",
"9 316 OFFCURVE",
"9 134 CURVE SMOOTH",
"9 44 OFFCURVE",
"67 -6 OFFCURVE",
"122 -8 CURVE",
"122 -11 LINE",
"75 -31 OFFCURVE",
"-102 -18 OFFCURVE",
"-102 -94 CURVE SMOOTH"
);
},
{
closed = 1;
nodes = (
"49 -31 OFFCURVE",
"124 -33 OFFCURVE",
"178 9 CURVE SMOOTH",
"232 51 OFFCURVE",
"276 162 OFFCURVE",
"351 322 CURVE SMOOTH",
"373 369 LINE",
"382 369 LINE",
"245 -96 LINE SMOOTH",
"223 -169 OFFCURVE",
"192 -191 OFFCURVE",
"159 -191 CURVE SMOOTH",
"105 -191 OFFCURVE",
"49 -128 OFFCURVE",
"49 -83 CURVE SMOOTH"
);
},
{
closed = 1;
nodes = (
"191 329 OFFCURVE",
"278 500 OFFCURVE",
"347 500 CURVE SMOOTH",
"372 500 OFFCURVE",
"394 477 OFFCURVE",
"404 465 CURVE",
"340 327 LINE SMOOTH",
"276 188 OFFCURVE",
"245 127 OFFCURVE",
"216 127 CURVE SMOOTH",
"202 127 OFFCURVE",
"191 140 OFFCURVE",
"191 190 CURVE SMOOTH"
);
}
);
width = 571;
}
);
leftKerningGroup = a;
rightKerningGroup = g;
rightMetricsKey = q;
unicode = 0067;
},
{
color = 4;
glyphname = h;
lastChange = "2023-01-13 21:05:19 +0000";
layers = (
{
anchors = (
{
name = top;
position = "{443, 772}";
}
);
background = {
paths = (
{
closed = 1;
nodes = (
"171 0 LINE",
"222 132 LINE SMOOTH",
"286 298 OFFCURVE",
"333 381 OFFCURVE",
"366 381 CURVE SMOOTH",
"407 381 OFFCURVE",
"434 230 OFFCURVE",
"432 146 CURVE SMOOTH",
"431 99 OFFCURVE",
"410 82 OFFCURVE",
"384 82 CURVE SMOOTH",
"359 82 OFFCURVE",
"327 89 OFFCURVE",
"285 102 CURVE SMOOTH",
"256 111 LINE",
"247 97 OFFCURVE",
"234 75 OFFCURVE",
"234 47 CURVE SMOOTH",
"234 10 OFFCURVE",
"255 -10 OFFCURVE",
"282 -10 CURVE SMOOTH",
"361 -10 OFFCURVE",
"575 209 OFFCURVE",
"575 389 CURVE SMOOTH",
"575 462 OFFCURVE",
"516 518 OFFCURVE",
"458 518 CURVE SMOOTH",
"377 518 OFFCURVE",
"316 404 OFFCURVE",
"230 188 CURVE SMOOTH",
"209 135 LINE",
"198 135 LINE",
"389 791 LINE",
"388 791 LINE",
"131 712 LINE",
"131 707 LINE",
"186 690 LINE",
"-11 0 LINE"
);
}
);
};
layerId = "C1BD152E-BBB7-4B88-9DA3-7174D04C5495";
paths = (
{
closed = 1;
nodes = (
"171 0 LINE",
"222 132 LINE SMOOTH",
"286 298 OFFCURVE",
"331 381 OFFCURVE",
"367 381 CURVE SMOOTH",
"411 381 OFFCURVE",
"438 227 OFFCURVE",
"437 150 CURVE SMOOTH",
"436 90 OFFCURVE",
"422 78 OFFCURVE",
"394 78 CURVE SMOOTH",
"371 78 OFFCURVE",
"331 87 OFFCURVE",
"286 102 CURVE SMOOTH",
"271 107 LINE",
"263 96 OFFCURVE",
"245 68 OFFCURVE",
"245 36 CURVE SMOOTH",
"245 7 OFFCURVE",
"259 -12 OFFCURVE",
"288 -12 CURVE SMOOTH",
"382 -12 OFFCURVE",
"581 221 OFFCURVE",
"581 379 CURVE SMOOTH",
"581 465 OFFCURVE",
"522 520 OFFCURVE",
"465 520 CURVE SMOOTH",
"382 520 OFFCURVE",
"316 404 OFFCURVE",
"230 188 CURVE SMOOTH",
"209 135 LINE",
"200 135 LINE",
"388 786 LINE",
"387 786 LINE",
"131 712 LINE",
"131 707 LINE",
"186 690 LINE",
"-11 0 LINE"
);
}
);
width = 591;
}
);
leftKerningGroup = b;
rightKerningGroup = b;
unicode = 0068;
},
{
color = 4;
glyphname = hbar;
lastChange = "2022-12-21 12:42:11 +0000";
layers = (
{
components = (
{
name = h;
}
);
layerId = "C1BD152E-BBB7-4B88-9DA3-7174D04C5495";
paths = (
{
closed = 1;
nodes = (
"103 602 LINE",
"442 602 LINE",
"442 614 LINE",
"103 614 LINE"
);
}
);
width = 589;
}
);
leftKerningGroup = b;
rightKerningGroup = b;
unicode = 0127;
},
{
color = 4;
glyphname = idotless;
lastChange = "2023-01-13 21:05:19 +0000";
layers = (
{
anchors = (
{
name = ogonek;
position = "{163, 0}";
},
{
name = top;
position = "{218, 508}";
}
);
background = {
paths = (
{
closed = 1;
nodes = (
"16 372 LINE",
"31 388 OFFCURVE",
"52 412 OFFCURVE",
"74 412 CURVE SMOOTH",
"92 412 OFFCURVE",
"102 398 OFFCURVE",
"91 360 CURVE SMOOTH",
"41 184 LINE SMOOTH",
"6 61 OFFCURVE",
"38 -10 OFFCURVE",
"105 -10 CURVE SMOOTH",
"165 -10 OFFCURVE",
"237 75 OFFCURVE",
"288 136 CURVE",
"279 136 LINE",
"264 120 OFFCURVE",
"247 101 OFFCURVE",
"230 101 CURVE SMOOTH",
"210 101 OFFCURVE",
"196 121 OFFCURVE",
"215 186 CURVE SMOOTH",
"261 347 LINE SMOOTH",
"297 472 OFFCURVE",
"258 518 OFFCURVE",
"200 518 CURVE SMOOTH",
"124 518 OFFCURVE",
"58 437 OFFCURVE",
"7 372 CURVE"
);
}
);
};
layerId = "C1BD152E-BBB7-4B88-9DA3-7174D04C5495";
paths = (
{
closed = 1;
nodes = (
"15 370 LINE",
"31 388 OFFCURVE",
"51 412 OFFCURVE",
"73 412 CURVE SMOOTH",
"91 412 OFFCURVE",
"102 398 OFFCURVE",
"86 342 CURVE SMOOTH",
"41 184 LINE SMOOTH",
"0 41 OFFCURVE",
"43 -12 OFFCURVE",
"100 -12 CURVE SMOOTH",
"172 -12 OFFCURVE",
"237 75 OFFCURVE",
"289 138 CURVE",
"280 138 LINE",
"264 120 OFFCURVE",
"248 101 OFFCURVE",
"230 101 CURVE SMOOTH",
"211 101 OFFCURVE",
"196 121 OFFCURVE",
"215 186 CURVE SMOOTH",
"257 333 LINE SMOOTH",
"296 470 OFFCURVE",
"256 520 OFFCURVE",
"200 520 CURVE SMOOTH",
"127 520 OFFCURVE",
"58 435 OFFCURVE",
"6 370 CURVE"
);
}
);
width = 295;
}
);
leftKerningGroup = u;
leftMetricsKey = u;
rightKerningGroup = n;
rightMetricsKey = n;
unicode = 0131;
},
{
glyphname = iogonek;
lastChange = "2022-12-24 19:11:39 +0000";
layers = (
{
anchors = (
{
name = ogonek;
position = "{163, 0}";
},
{
name = top;
position = "{218, 508}";
}
);
background = {
paths = (
{
closed = 1;
nodes = (
"15 370 LINE",
"31 388 OFFCURVE",
"51 412 OFFCURVE",
"73 412 CURVE SMOOTH",
"91 412 OFFCURVE",
"102 398 OFFCURVE",
"86 342 CURVE SMOOTH",
"41 184 LINE SMOOTH",
"0 41 OFFCURVE",
"43 -12 OFFCURVE",
"100 -12 CURVE SMOOTH",
"172 -12 OFFCURVE",
"237 75 OFFCURVE",
"289 138 CURVE",
"280 138 LINE",
"264 120 OFFCURVE",
"248 101 OFFCURVE",
"230 101 CURVE SMOOTH",
"211 101 OFFCURVE",
"196 121 OFFCURVE",
"215 186 CURVE SMOOTH",
"257 333 LINE SMOOTH",
"296 470 OFFCURVE",
"256 520 OFFCURVE",
"200 520 CURVE SMOOTH",
"127 520 OFFCURVE",
"58 435 OFFCURVE",
"6 370 CURVE"
);
},
{
closed = 1;
nodes = (
"309 552 OFFCURVE",
"352 589 OFFCURVE",
"352 642 CURVE SMOOTH",
"352 696 OFFCURVE",
"312 734 OFFCURVE",
"260 734 CURVE SMOOTH",
"202 734 OFFCURVE",
"160 696 OFFCURVE",
"160 644 CURVE SMOOTH",
"160 589 OFFCURVE",
"199 552 OFFCURVE",
"252 552 CURVE SMOOTH"
);
},
{
closed = 1;
nodes = (
"80 -43 OFFCURVE",
"-13 -90 OFFCURVE",
"-13 -161 CURVE SMOOTH",
"-13 -204 OFFCURVE",
"22 -237 OFFCURVE",
"70 -237 CURVE SMOOTH",
"123 -237 OFFCURVE",
"169 -196 OFFCURVE",
"207 -144 CURVE",
"198 -144 LINE",
"189 -156 OFFCURVE",
"172 -173 OFFCURVE",
"147 -173 CURVE SMOOTH",
"120 -173 OFFCURVE",
"99 -154 OFFCURVE",
"99 -116 CURVE SMOOTH",
"99 -67 OFFCURVE",
"133 -26 OFFCURVE",
"170 4 CURVE",
"162 4 LINE"
);
}
);
};
layerId = "C1BD152E-BBB7-4B88-9DA3-7174D04C5495";
paths = (
{
closed = 1;
nodes = (
"15 370 LINE",
"31 388 OFFCURVE",
"51 412 OFFCURVE",
"73 412 CURVE SMOOTH",
"91 412 OFFCURVE",
"102 398 OFFCURVE",
"86 342 CURVE SMOOTH",
"41 184 LINE",
"215 186 LINE",
"257 333 LINE SMOOTH",
"296 470 OFFCURVE",
"256 520 OFFCURVE",
"200 520 CURVE SMOOTH",
"127 520 OFFCURVE",
"58 435 OFFCURVE",
"6 370 CURVE"
);
},
{
closed = 1;
nodes = (
"309 552 OFFCURVE",
"352 589 OFFCURVE",
"352 642 CURVE SMOOTH",
"352 696 OFFCURVE",
"312 734 OFFCURVE",
"260 734 CURVE SMOOTH",
"202 734 OFFCURVE",
"160 696 OFFCURVE",
"160 644 CURVE SMOOTH",
"160 589 OFFCURVE",
"199 552 OFFCURVE",
"252 552 CURVE SMOOTH"
);
},
{
closed = 1;
nodes = (
"2 50 OFFCURVE",
"44 0 OFFCURVE",
"93 0 CURVE SMOOTH",
"118 0 OFFCURVE",
"137 13 OFFCURVE",
"171 39 CURVE",
"177 31 LINE",
"143 5 LINE SMOOTH",
"60 -59 OFFCURVE",
"-12 -112 OFFCURVE",
"-12 -168 CURVE SMOOTH",
"-12 -206 OFFCURVE",
"21 -237 OFFCURVE",
"70 -237 CURVE SMOOTH",
"125 -237 OFFCURVE",
"170 -196 OFFCURVE",
"208 -144 CURVE",
"199 -144 LINE",
"190 -156 OFFCURVE",
"173 -173 OFFCURVE",
"149 -173 CURVE SMOOTH",
"124 -173 OFFCURVE",
"100 -153 OFFCURVE",
"100 -113 CURVE SMOOTH",
"100 -65 OFFCURVE",
"132 -26 OFFCURVE",
"192 30 CURVE SMOOTH",
"235 71 OFFCURVE",
"264 107 OFFCURVE",
"289 138 CURVE",
"280 138 LINE",
"264 120 OFFCURVE",
"248 101 OFFCURVE",
"229 101 CURVE SMOOTH",
"211 101 OFFCURVE",
"196 121 OFFCURVE",
"215 186 CURVE",
"41 184 LINE"
);
}
);
width = 295;
}
);
leftKerningGroup = i;
rightKerningGroup = n;
unicode = 012F;
},
{
color = 4;
glyphname = jdotless;
lastChange = "2023-01-13 21:05:19 +0000";
layers = (
{
anchors = (
{
name = top;
position = "{220, 508}";
}
);
background = {
paths = (
{
closed = 1;
nodes = (
"293 450 OFFCURVE",
"261 518 OFFCURVE",
"191 518 CURVE SMOOTH",
"127 518 OFFCURVE",
"59 433 OFFCURVE",
"8 372 CURVE",
"17 372 LINE",
"32 388 OFFCURVE",
"55 412 OFFCURVE",
"78 412 CURVE SMOOTH",
"93 412 OFFCURVE",
"103 398 OFFCURVE",
"95 369 CURVE",
"257 329 LINE"
);
},
{
closed = 1;
nodes = (
"-235 -164 OFFCURVE",
"-196 -200 OFFCURVE",
"-127 -200 CURVE SMOOTH",
"-18 -200 OFFCURVE",
"143 -71 OFFCURVE",
"203 140 CURVE SMOOTH",
"257 329 LINE",
"95 369 LINE",
"-34 -79 LINE SMOOTH",
"-56 -154 OFFCURVE",
"-79 -183 OFFCURVE",
"-100 -183 CURVE SMOOTH",
"-131 -183 OFFCURVE",
"-151 -131 OFFCURVE",
"-175 -64 CURVE SMOOTH",
"-179 -53 LINE",
"-202 -60 OFFCURVE",
"-235 -84 OFFCURVE",
"-235 -122 CURVE SMOOTH"
);
}
);
};
layerId = "C1BD152E-BBB7-4B88-9DA3-7174D04C5495";
paths = (
{
closed = 1;
nodes = (
"-246 -175 OFFCURVE",
"-220 -200 OFFCURVE",
"-158 -200 CURVE SMOOTH",
"5 -200 OFFCURVE",
"143 -72 OFFCURVE",
"203 140 CURVE SMOOTH",
"258 333 LINE SMOOTH",
"297 470 OFFCURVE",
"257 520 OFFCURVE",
"201 520 CURVE SMOOTH",
"128 520 OFFCURVE",
"59 435 OFFCURVE",
"7 370 CURVE",
"16 370 LINE",
"32 388 OFFCURVE",
"52 412 OFFCURVE",
"74 412 CURVE SMOOTH",
"92 412 OFFCURVE",
"103 398 OFFCURVE",
"87 342 CURVE SMOOTH",
"-37 -87 LINE SMOOTH",
"-55 -148 OFFCURVE",
"-70 -182 OFFCURVE",
"-102 -182 CURVE SMOOTH",
"-131 -182 OFFCURVE",
"-163 -135 OFFCURVE",
"-193 -92 CURVE SMOOTH",
"-204 -76 LINE",
"-223 -89 OFFCURVE",
"-246 -114 OFFCURVE",
"-246 -143 CURVE SMOOTH"
);
}
);
width = 286;
}
);
leftKerningGroup = j;
rightKerningGroup = g;
rightMetricsKey = q;
unicode = 0237;
},
{
color = 4;
glyphname = k;
lastChange = "2023-01-13 21:05:19 +0000";
layers = (
{
anchors = (
{
name = bottom;
position = "{221, 0}";
}
);
background = {
paths = (
{
closed = 1;
nodes = (
"164 0 LINE",
"215 133 LINE SMOOTH",
"291 332 OFFCURVE",
"344 404 OFFCURVE",
"390 404 CURVE SMOOTH",
"408 404 OFFCURVE",
"420 393 OFFCURVE",
"420 368 CURVE SMOOTH",
"420 307 OFFCURVE",
"348 251 OFFCURVE",
"293 237 CURVE",
"293 215 LINE SMOOTH",
"293 69 OFFCURVE",
"321 -10 OFFCURVE",
"395 -10 CURVE SMOOTH",
"472 -10 OFFCURVE",
"540 77 OFFCURVE",
"592 138 CURVE",
"583 138 LINE",
"567 120 OFFCURVE",
"551 101 OFFCURVE",
"523 101 CURVE SMOOTH",
"477 101 OFFCURVE",
"439 148 OFFCURVE",
"421 297 CURVE SMOOTH",
"419 314 LINE",
"419 316 LINE",
"533 347 OFFCURVE",
"576 376 OFFCURVE",
"576 432 CURVE SMOOTH",
"576 483 OFFCURVE",
"539 520 OFFCURVE",
"492 520 CURVE SMOOTH",
"400 520 OFFCURVE",
"301 386 OFFCURVE",
"224 189 CURVE SMOOTH",
"203 135 LINE",
"194 135 LINE",
"383 786 LINE",
"382 786 LINE",
"126 712 LINE",
"126 707 LINE",
"181 690 LINE",
"-17 0 LINE"
);
}
);
};
layerId = "C1BD152E-BBB7-4B88-9DA3-7174D04C5495";
paths = (
{
closed = 1;
nodes = (
"164 0 LINE",
"215 133 LINE SMOOTH",
"291 332 OFFCURVE",
"343 404 OFFCURVE",
"383 404 CURVE SMOOTH",
"401 404 OFFCURVE",
"418 389 OFFCURVE",
"418 356 CURVE SMOOTH",
"418 297 OFFCURVE",
"369 252 OFFCURVE",
"293 237 CURVE",
"293 215 LINE SMOOTH",
"293 69 OFFCURVE",
"321 -10 OFFCURVE",
"395 -10 CURVE SMOOTH",
"472 -10 OFFCURVE",
"540 77 OFFCURVE",
"592 138 CURVE",
"583 138 LINE",
"567 120 OFFCURVE",
"551 101 OFFCURVE",
"523 101 CURVE SMOOTH",
"477 101 OFFCURVE",
"438 147 OFFCURVE",
"421 294 CURVE SMOOTH",
"419 311 LINE",
"419 313 LINE",
"533 344 OFFCURVE",
"576 373 OFFCURVE",
"576 432 CURVE SMOOTH",
"576 483 OFFCURVE",
"539 520 OFFCURVE",
"492 520 CURVE SMOOTH",
"400 520 OFFCURVE",
"301 386 OFFCURVE",
"224 189 CURVE SMOOTH",
"203 135 LINE",
"194 135 LINE",
"383 786 LINE",
"382 786 LINE",
"126 712 LINE",
"126 707 LINE",
"181 690 LINE",
"-17 0 LINE"
);
}
);
width = 590;
}
);
leftKerningGroup = b;
leftMetricsKey = b;
rightKerningGroup = k;
unicode = 006B;
},
{
color = 4;
glyphname = kgreenlandic;
lastChange = "2023-01-13 21:05:19 +0000";
layers = (
{
background = {
paths = (
{
closed = 1;
nodes = (
"171 0 LINE",
"222 133 LINE SMOOTH",
"298 332 OFFCURVE",
"351 404 OFFCURVE",
"397 404 CURVE SMOOTH",
"415 404 OFFCURVE",
"427 393 OFFCURVE",
"427 368 CURVE SMOOTH",
"427 307 OFFCURVE",
"355 251 OFFCURVE",
"300 237 CURVE",
"300 215 LINE SMOOTH",
"300 69 OFFCURVE",
"328 -10 OFFCURVE",
"402 -10 CURVE SMOOTH",
"479 -10 OFFCURVE",
"547 77 OFFCURVE",
"599 138 CURVE",
"590 138 LINE",
"574 120 OFFCURVE",
"558 101 OFFCURVE",
"530 101 CURVE SMOOTH",
"484 101 OFFCURVE",
"446 148 OFFCURVE",
"428 297 CURVE SMOOTH",
"426 314 LINE",
"426 316 LINE",
"540 347 OFFCURVE",
"583 376 OFFCURVE",
"583 432 CURVE SMOOTH",
"583 483 OFFCURVE",
"546 520 OFFCURVE",
"499 520 CURVE SMOOTH",
"409 520 OFFCURVE",
"308 386 OFFCURVE",
"231 189 CURVE SMOOTH",
"210 135 LINE",
"201 135 LINE",
"257 329 LINE",
"88 342 LINE",
"-11 0 LINE"
);
},
{
closed = 1;
nodes = (
"257 329 LINE",
"296 464 OFFCURVE",
"258 520 OFFCURVE",
"202 520 CURVE SMOOTH",
"129 520 OFFCURVE",
"60 436 OFFCURVE",
"8 370 CURVE",
"17 370 LINE",
"33 388 OFFCURVE",
"53 412 OFFCURVE",
"75 412 CURVE SMOOTH",
"93 412 OFFCURVE",
"104 398 OFFCURVE",
"88 342 CURVE"
);
}
);
};
layerId = "C1BD152E-BBB7-4B88-9DA3-7174D04C5495";
paths = (
{
closed = 1;
nodes = (
"129 520 OFFCURVE",
"60 436 OFFCURVE",
"8 370 CURVE",
"17 370 LINE",
"33 388 OFFCURVE",
"53 412 OFFCURVE",
"75 412 CURVE SMOOTH",
"93 412 OFFCURVE",
"104 398 OFFCURVE",
"88 342 CURVE",
"257 329 LINE",
"296 464 OFFCURVE",
"258 520 OFFCURVE",
"202 520 CURVE SMOOTH"
);
},
{
closed = 1;
nodes = (
"171 0 LINE",
"222 133 LINE SMOOTH",
"298 332 OFFCURVE",
"350 404 OFFCURVE",
"390 404 CURVE SMOOTH",
"408 404 OFFCURVE",
"425 389 OFFCURVE",
"425 356 CURVE SMOOTH",
"425 297 OFFCURVE",
"376 252 OFFCURVE",
"300 237 CURVE",
"300 215 LINE SMOOTH",
"300 69 OFFCURVE",
"328 -10 OFFCURVE",
"402 -10 CURVE SMOOTH",
"479 -10 OFFCURVE",
"547 77 OFFCURVE",
"599 138 CURVE",
"590 138 LINE",
"574 120 OFFCURVE",
"558 101 OFFCURVE",
"530 101 CURVE SMOOTH",
"484 101 OFFCURVE",
"445 147 OFFCURVE",
"428 294 CURVE SMOOTH",
"426 311 LINE",
"426 313 LINE",
"540 344 OFFCURVE",
"583 373 OFFCURVE",
"583 432 CURVE SMOOTH",
"583 483 OFFCURVE",
"546 520 OFFCURVE",
"499 520 CURVE SMOOTH",
"407 520 OFFCURVE",
"308 386 OFFCURVE",
"231 189 CURVE SMOOTH",
"210 135 LINE",
"201 135 LINE",
"257 329 LINE",
"88 342 LINE",
"-10 0 LINE"
);
}
);
width = 597;
}
);
leftKerningGroup = n;
leftMetricsKey = n;
rightKerningGroup = k;
rightMetricsKey = k;
unicode = 0138;
},
{
color = 4;
glyphname = l;
lastChange = "2022-12-21 17:16:44 +0000";
layers = (
{
anchors = (
{
name = bottom;
position = "{60, 0}";
},
{
name = top;
position = "{281, 772}";
}
);
background = {
paths = (
{
closed = 1;
nodes = (
"-4 61 OFFCURVE",
"28 -10 OFFCURVE",
"95 -10 CURVE SMOOTH",
"155 -10 OFFCURVE",
"227 75 OFFCURVE",
"278 136 CURVE",
"269 136 LINE",
"254 120 OFFCURVE",
"237 101 OFFCURVE",
"220 101 CURVE SMOOTH",
"200 101 OFFCURVE",
"186 120 OFFCURVE",
"205 186 CURVE SMOOTH",
"377 791 LINE",
"376 791 LINE",
"127 717 LINE",
"127 712 LINE",
"177 695 LINE",
"31 184 LINE SMOOTH"
);
}
);
};
layerId = "C1BD152E-BBB7-4B88-9DA3-7174D04C5495";
paths = (
{
closed = 1;
nodes = (
"-9 43 OFFCURVE",
"34 -10 OFFCURVE",
"91 -10 CURVE SMOOTH",
"163 -10 OFFCURVE",
"227 75 OFFCURVE",
"279 138 CURVE",
"270 138 LINE",
"254 120 OFFCURVE",
"238 101 OFFCURVE",
"220 101 CURVE SMOOTH",
"201 101 OFFCURVE",
"186 121 OFFCURVE",
"205 186 CURVE SMOOTH",
"378 786 LINE",
"377 786 LINE",
"126 712 LINE",
"126 707 LINE",
"176 690 LINE",
"31 184 LINE SMOOTH"
);
}
);
width = 287;
}
);
leftKerningGroup = b;
rightKerningGroup = d;
rightMetricsKey = a;
unicode = 006C;
},
{
color = 4;
glyphname = lslash;
lastChange = "2022-12-21 17:25:48 +0000";
layers = (
{
components = (
{
name = l;
}
);
layerId = "C1BD152E-BBB7-4B88-9DA3-7174D04C5495";
paths = (
{
closed = 1;
nodes = (
"11 296 LINE",
"358 472 LINE",
"358 485 LINE",
"11 309 LINE"
);
}
);
width = 287;
}
);
leftKerningGroup = b;
rightKerningGroup = d;
unicode = 0142;
},
{
color = 4;
glyphname = m;
lastChange = "2022-12-21 12:36:45 +0000";
layers = (
{
anchors = (
{
name = bottom;
position = "{363, 0}";
},
{
name = top;
position = "{510, 508}";
}
);
background = {
paths = (
{
closed = 1;
nodes = (
"173 0 LINE",
"224 133 LINE SMOOTH",
"300 332 OFFCURVE",
"336 390 OFFCURVE",
"370 390 CURVE SMOOTH",
"383 390 OFFCURVE",
"394 379 OFFCURVE",
"383 345 CURVE SMOOTH",
"329 179 LINE SMOOTH",
"291 61 OFFCURVE",
"330 -10 OFFCURVE",
"397 -10 CURVE SMOOTH",
"457 -10 OFFCURVE",
"529 75 OFFCURVE",
"580 136 CURVE",
"571 136 LINE",
"556 120 OFFCURVE",
"539 101 OFFCURVE",
"521 101 CURVE SMOOTH",
"501 101 OFFCURVE",
"486 121 OFFCURVE",
"506 186 CURVE SMOOTH",
"551 329 LINE SMOOTH",
"589 449 OFFCURVE",
"550 518 OFFCURVE",
"479 518 CURVE SMOOTH",
"406 518 OFFCURVE",
"321 417 OFFCURVE",
"232 189 CURVE SMOOTH",
"211 135 LINE",
"200 135 LINE",
"258 329 LINE SMOOTH",
"294 450 OFFCURVE",
"262 518 OFFCURVE",
"191 518 CURVE SMOOTH",
"127 518 OFFCURVE",
"59 433 OFFCURVE",
"8 372 CURVE",
"17 372 LINE",
"32 388 OFFCURVE",
"55 412 OFFCURVE",
"78 412 CURVE SMOOTH",
"93 412 OFFCURVE",
"103 398 OFFCURVE",
"95 369 CURVE SMOOTH",
"-9 0 LINE"
);
}
);
};
layerId = "C1BD152E-BBB7-4B88-9DA3-7174D04C5495";
paths = (
{
closed = 1;
nodes = (
"172 0 LINE",
"223 133 LINE SMOOTH",
"299 332 OFFCURVE",
"337 392 OFFCURVE",
"372 392 CURVE SMOOTH",
"385 392 OFFCURVE",
"397 381 OFFCURVE",
"386 347 CURVE SMOOTH",
"273 0 LINE",
"447 0 LINE",
"549 329 LINE SMOOTH",
"590 461 OFFCURVE",
"549 520 OFFCURVE",
"488 520 CURVE SMOOTH",
"406 520 OFFCURVE",
"320 417 OFFCURVE",
"231 189 CURVE SMOOTH",
"210 135 LINE",
"201 135 LINE",
"258 333 LINE SMOOTH",
"297 470 OFFCURVE",
"258 520 OFFCURVE",
"202 520 CURVE SMOOTH",
"129 520 OFFCURVE",
"60 435 OFFCURVE",
"8 370 CURVE",
"17 370 LINE",
"33 388 OFFCURVE",
"53 412 OFFCURVE",
"75 412 CURVE SMOOTH",
"93 412 OFFCURVE",
"104 398 OFFCURVE",
"88 342 CURVE SMOOTH",
"-10 0 LINE"
);
},
{
closed = 1;
nodes = (
"462 0 LINE",
"513 133 LINE SMOOTH",
"589 332 OFFCURVE",
"627 392 OFFCURVE",
"662 392 CURVE SMOOTH",
"675 392 OFFCURVE",
"686 381 OFFCURVE",
"675 347 CURVE SMOOTH",
"620 179 LINE SMOOTH",
"576 43 OFFCURVE",
"626 -12 OFFCURVE",
"682 -12 CURVE SMOOTH",
"754 -12 OFFCURVE",
"819 75 OFFCURVE",
"871 138 CURVE",
"862 138 LINE",
"846 120 OFFCURVE",
"830 101 OFFCURVE",
"811 101 CURVE SMOOTH",
"792 101 OFFCURVE",
"776 121 OFFCURVE",
"796 186 CURVE SMOOTH",
"841 329 LINE SMOOTH",
"882 460 OFFCURVE",
"841 520 OFFCURVE",
"778 520 CURVE SMOOTH",
"696 520 OFFCURVE",
"610 417 OFFCURVE",
"521 189 CURVE SMOOTH",
"500 135 LINE",
"491 135 LINE",
"283 0 LINE"
);
}
);
width = 877;
}
);
leftKerningGroup = n;
leftMetricsKey = n;
rightKerningGroup = n;
rightMetricsKey = n;
unicode = 006D;
},
{
color = 4;
glyphname = n;
lastChange = "2023-01-13 21:05:19 +0000";
layers = (
{
anchors = (
{
name = bottom;
position = "{213, 0}";
},
{
name = top;
position = "{360, 508}";
}
);
background = {
paths = (
{
closed = 1;
nodes = (
"172 0 LINE",
"223 133 LINE SMOOTH",
"299 332 OFFCURVE",
"337 390 OFFCURVE",
"371 390 CURVE SMOOTH",
"385 390 OFFCURVE",
"395 379 OFFCURVE",
"384 345 CURVE SMOOTH",
"330 179 LINE SMOOTH",
"286 43 OFFCURVE",
"336 -12 OFFCURVE",
"392 -12 CURVE SMOOTH",
"464 -12 OFFCURVE",
"529 75 OFFCURVE",
"581 138 CURVE",
"572 138 LINE",
"556 120 OFFCURVE",
"540 101 OFFCURVE",
"521 101 CURVE SMOOTH",
"502 101 OFFCURVE",
"485 121 OFFCURVE",
"506 186 CURVE SMOOTH",
"553 333 LINE SMOOTH",
"593 458 OFFCURVE",
"550 520 OFFCURVE",
"487 520 CURVE SMOOTH",
"405 520 OFFCURVE",
"320 417 OFFCURVE",
"231 189 CURVE SMOOTH",
"210 135 LINE",
"201 135 LINE",
"258 333 LINE SMOOTH",
"297 468 OFFCURVE",
"257 520 OFFCURVE",
"201 520 CURVE SMOOTH",
"128 520 OFFCURVE",
"59 436 OFFCURVE",
"7 370 CURVE",
"16 370 LINE",
"32 388 OFFCURVE",
"52 412 OFFCURVE",
"74 412 CURVE SMOOTH",
"92 412 OFFCURVE",
"103 398 OFFCURVE",
"87 342 CURVE SMOOTH",
"-9 0 LINE"
);
}
);
};
layerId = "C1BD152E-BBB7-4B88-9DA3-7174D04C5495";
paths = (
{
closed = 1;
nodes = (
"172 0 LINE",
"223 133 LINE SMOOTH",
"299 332 OFFCURVE",
"338 392 OFFCURVE",
"372 392 CURVE SMOOTH",
"386 392 OFFCURVE",
"396 381 OFFCURVE",
"385 347 CURVE SMOOTH",
"330 179 LINE SMOOTH",
"286 43 OFFCURVE",
"336 -12 OFFCURVE",
"392 -12 CURVE SMOOTH",
"464 -12 OFFCURVE",
"529 75 OFFCURVE",
"581 138 CURVE",
"572 138 LINE",
"556 120 OFFCURVE",
"540 101 OFFCURVE",
"521 101 CURVE SMOOTH",
"502 101 OFFCURVE",
"485 121 OFFCURVE",
"506 186 CURVE SMOOTH",
"553 333 LINE SMOOTH",
"593 458 OFFCURVE",
"550 520 OFFCURVE",
"487 520 CURVE SMOOTH",
"405 520 OFFCURVE",
"320 417 OFFCURVE",
"231 189 CURVE SMOOTH",
"210 135 LINE",
"201 135 LINE",
"258 333 LINE SMOOTH",
"297 468 OFFCURVE",
"258 520 OFFCURVE",
"202 520 CURVE SMOOTH",
"129 520 OFFCURVE",
"60 436 OFFCURVE",
"8 370 CURVE",
"17 370 LINE",
"33 388 OFFCURVE",
"53 412 OFFCURVE",
"75 412 CURVE SMOOTH",
"93 412 OFFCURVE",
"104 398 OFFCURVE",
"88 342 CURVE SMOOTH",
"-10 0 LINE"
);
}
);
width = 587;
}
);
leftKerningGroup = n;
rightKerningGroup = n;
unicode = 006E;
},
{
color = 4;
glyphname = eng;
lastChange = "2022-12-23 10:48:21 +0000";
layers = (
{
background = {
paths = (
{
closed = 1;
nodes = (
"172 0 LINE",
"223 133 LINE SMOOTH",
"299 332 OFFCURVE",
"337 390 OFFCURVE",
"371 390 CURVE SMOOTH",
"385 390 OFFCURVE",
"395 379 OFFCURVE",
"384 345 CURVE SMOOTH",
"330 179 LINE",
"498 140 LINE",
"553 333 LINE SMOOTH",
"589 458 OFFCURVE",
"549 518 OFFCURVE",
"486 518 CURVE SMOOTH",
"404 518 OFFCURVE",
"320 417 OFFCURVE",
"231 189 CURVE SMOOTH",
"210 135 LINE",
"201 135 LINE",
"258 333 LINE SMOOTH",
"297 468 OFFCURVE",
"257 520 OFFCURVE",
"201 520 CURVE SMOOTH",
"128 520 OFFCURVE",
"59 436 OFFCURVE",
"7 370 CURVE",
"16 370 LINE",
"32 388 OFFCURVE",
"52 412 OFFCURVE",
"74 412 CURVE SMOOTH",
"92 412 OFFCURVE",
"103 398 OFFCURVE",
"87 342 CURVE SMOOTH",
"-9 0 LINE"
);
},
{
closed = 1;
nodes = (
"49 -175 OFFCURVE",
"75 -200 OFFCURVE",
"137 -200 CURVE SMOOTH",
"300 -200 OFFCURVE",
"438 -72 OFFCURVE",
"498 140 CURVE",
"258 -87 LINE",
"240 -148 OFFCURVE",
"225 -182 OFFCURVE",
"193 -182 CURVE SMOOTH",
"164 -182 OFFCURVE",
"132 -135 OFFCURVE",
"102 -92 CURVE SMOOTH",
"91 -76 LINE",
"72 -89 OFFCURVE",
"49 -114 OFFCURVE",
"49 -143 CURVE SMOOTH"
);
}
);
};
layerId = "C1BD152E-BBB7-4B88-9DA3-7174D04C5495";
paths = (
{
closed = 1;
nodes = (
"172 0 LINE",
"223 133 LINE SMOOTH",
"299 332 OFFCURVE",
"338 392 OFFCURVE",
"372 392 CURVE SMOOTH",
"386 392 OFFCURVE",
"394 381 OFFCURVE",
"384 345 CURVE SMOOTH",
"259 -87 LINE SMOOTH",
"241 -148 OFFCURVE",
"225 -182 OFFCURVE",
"193 -182 CURVE SMOOTH",
"164 -182 OFFCURVE",
"132 -135 OFFCURVE",
"102 -92 CURVE SMOOTH",
"91 -76 LINE",
"72 -89 OFFCURVE",
"49 -114 OFFCURVE",
"49 -143 CURVE SMOOTH",
"49 -175 OFFCURVE",
"75 -200 OFFCURVE",
"137 -200 CURVE SMOOTH",
"300 -200 OFFCURVE",
"438 -72 OFFCURVE",
"498 140 CURVE SMOOTH",
"553 333 LINE SMOOTH",
"589 458 OFFCURVE",
"550 520 OFFCURVE",
"487 520 CURVE SMOOTH",
"405 520 OFFCURVE",
"320 417 OFFCURVE",
"231 189 CURVE SMOOTH",
"210 135 LINE",
"201 135 LINE",
"258 333 LINE SMOOTH",
"297 468 OFFCURVE",
"258 520 OFFCURVE",
"202 520 CURVE SMOOTH",
"129 520 OFFCURVE",
"60 436 OFFCURVE",
"8 370 CURVE",
"17 370 LINE",
"33 388 OFFCURVE",
"53 412 OFFCURVE",
"75 412 CURVE SMOOTH",
"93 412 OFFCURVE",
"104 398 OFFCURVE",
"88 342 CURVE SMOOTH",
"-10 0 LINE"
);
}
);
width = 581;
}
);
leftKerningGroup = n;
leftMetricsKey = n;
rightKerningGroup = g;
rightMetricsKey = q;
unicode = 014B;
},
{
color = 4;
glyphname = o;
lastChange = "2023-01-13 21:05:19 +0000";
layers = (
{
anchors = (
{
name = ogonek;
position = "{401, 0}";
},
{
name = top;
position = "{329, 508}";
}
);
background = {
paths = (
{
closed = 1;
nodes = (
"536 447 OFFCURVE",
"451 520 OFFCURVE",
"332 520 CURVE SMOOTH",
"185 520 OFFCURVE",
"21 387 OFFCURVE",
"21 199 CURVE SMOOTH",
"21 67 OFFCURVE",
"105 -12 OFFCURVE",
"224 -12 CURVE SMOOTH",
"379 -12 OFFCURVE",
"536 131 OFFCURVE",
"536 313 CURVE SMOOTH"
);
},
{
closed = 1;
nodes = (
"368 243 OFFCURVE",
"301 0 OFFCURVE",
"234 0 CURVE SMOOTH",
"203 0 OFFCURVE",
"189 53 OFFCURVE",
"189 130 CURVE SMOOTH",
"189 278 OFFCURVE",
"258 508 OFFCURVE",
"326 508 CURVE SMOOTH",
"353 508 OFFCURVE",
"368 461 OFFCURVE",
"368 389 CURVE SMOOTH"
);
}
);
};
layerId = "C1BD152E-BBB7-4B88-9DA3-7174D04C5495";
paths = (
{
closed = 1;
nodes = (
"540 454 OFFCURVE",
"457 520 OFFCURVE",
"350 520 CURVE SMOOTH",
"179 520 OFFCURVE",
"17 367 OFFCURVE",
"17 173 CURVE SMOOTH",
"17 57 OFFCURVE",
"97 -12 OFFCURVE",
"206 -12 CURVE SMOOTH",
"375 -12 OFFCURVE",
"540 151 OFFCURVE",
"540 333 CURVE SMOOTH"
);
},
{
closed = 1;
nodes = (
"368 243 OFFCURVE",
"301 1 OFFCURVE",
"236 1 CURVE SMOOTH",
"205 1 OFFCURVE",
"189 53 OFFCURVE",
"189 130 CURVE SMOOTH",
"189 278 OFFCURVE",
"258 507 OFFCURVE",
"326 507 CURVE SMOOTH",
"351 507 OFFCURVE",
"368 461 OFFCURVE",
"368 389 CURVE SMOOTH"
);
}
);
width = 556;
}
);
leftKerningGroup = o;
rightKerningGroup = o;
unicode = 006F;
},
{
color = 4;
glyphname = oslash;
lastChange = "2022-12-21 12:48:51 +0000";
layers = (
{
anchors = (
{
name = top;
position = "{347, 508}";
}
);
background = {
paths = (
{
closed = 1;
nodes = (
"-30 -75 LINE",
"-22 -81 LINE",
"655 584 LINE",
"648 590 LINE"
);
},
{
closed = 1;
nodes = (
"392 -10 OFFCURVE",
"567 122 OFFCURVE",
"612 278 CURVE SMOOTH",
"652 417 OFFCURVE",
"564 518 OFFCURVE",
"399 518 CURVE SMOOTH",
"216 518 OFFCURVE",
"48 386 OFFCURVE",
"6 241 CURVE SMOOTH",
"-36 95 OFFCURVE",
"47 -10 OFFCURVE",
"224 -10 CURVE SMOOTH"
);
},
{
closed = 1;
nodes = (
"270 451 OFFCURVE",
"320 506 OFFCURVE",
"357 506 CURVE SMOOTH",
"405 506 OFFCURVE",
"440 391 OFFCURVE",
"388 208 CURVE SMOOTH",
"345 58 OFFCURVE",
"295 2 OFFCURVE",
"262 2 CURVE SMOOTH",
"210 2 OFFCURVE",
"175 118 OFFCURVE",
"227 300 CURVE SMOOTH"
);
}
);
};
components = (
{
name = o;
}
);
layerId = "C1BD152E-BBB7-4B88-9DA3-7174D04C5495";
paths = (
{
closed = 1;
nodes = (
"-24 -75 LINE",
"-16 -81 LINE",
"561 584 LINE",
"554 590 LINE"
);
}
);
width = 556;
}
);
leftKerningGroup = o;
rightKerningGroup = o;
unicode = 00F8;
},
{
color = 4;
glyphname = oe;
lastChange = "2023-01-13 21:05:19 +0000";
layers = (
{
background = {
paths = (
{
closed = 1;
nodes = (
"525 441 OFFCURVE",
"442 520 OFFCURVE",
"325 520 CURVE SMOOTH",
"178 520 OFFCURVE",
"14 385 OFFCURVE",
"14 199 CURVE SMOOTH",
"14 67 OFFCURVE",
"98 -12 OFFCURVE",
"217 -12 CURVE SMOOTH",
"372 -12 OFFCURVE",
"525 133 OFFCURVE",
"525 309 CURVE SMOOTH"
);
},
{
closed = 1;
nodes = (
"361 243 OFFCURVE",
"294 0 OFFCURVE",
"227 0 CURVE SMOOTH",
"196 0 OFFCURVE",
"182 53 OFFCURVE",
"182 130 CURVE SMOOTH",
"182 278 OFFCURVE",
"251 508 OFFCURVE",
"319 508 CURVE SMOOTH",
"346 508 OFFCURVE",
"361 461 OFFCURVE",
"361 389 CURVE SMOOTH"
);
}
);
};
layerId = "C1BD152E-BBB7-4B88-9DA3-7174D04C5495";
paths = (
{
closed = 1;
nodes = (
"532 454 OFFCURVE",
"453 520 OFFCURVE",
"346 520 CURVE SMOOTH",
"175 520 OFFCURVE",
"17 367 OFFCURVE",
"17 173 CURVE SMOOTH",
"17 57 OFFCURVE",
"93 -12 OFFCURVE",
"202 -12 CURVE SMOOTH",
"371 -12 OFFCURVE",
"532 151 OFFCURVE",
"532 333 CURVE SMOOTH"
);
},
{
closed = 1;
nodes = (
"364 243 OFFCURVE",
"297 1 OFFCURVE",
"232 1 CURVE SMOOTH",
"201 1 OFFCURVE",
"185 53 OFFCURVE",
"185 130 CURVE SMOOTH",
"185 278 OFFCURVE",
"254 507 OFFCURVE",
"322 507 CURVE SMOOTH",
"347 507 OFFCURVE",
"364 461 OFFCURVE",
"364 389 CURVE SMOOTH"
);
},
{
closed = 1;
nodes = (
"360 69 OFFCURVE",
"433 -12 OFFCURVE",
"540 -12 CURVE SMOOTH",
"658 -12 OFFCURVE",
"725 85 OFFCURVE",
"777 187 CURVE",
"769 187 LINE",
"738 134 OFFCURVE",
"707 111 OFFCURVE",
"656 111 CURVE SMOOTH",
"584 111 OFFCURVE",
"532 160 OFFCURVE",
"532 273 CURVE SMOOTH",
"532 382 OFFCURVE",
"587 503 OFFCURVE",
"641 503 CURVE SMOOTH",
"654 503 OFFCURVE",
"665 491 OFFCURVE",
"665 461 CURVE SMOOTH",
"665 382 OFFCURVE",
"600 313 OFFCURVE",
"518 288 CURVE",
"518 278 LINE",
"661 322 OFFCURVE",
"801 375 OFFCURVE",
"801 449 CURVE SMOOTH",
"801 486 OFFCURVE",
"768 520 OFFCURVE",
"698 520 CURVE SMOOTH",
"518 520 OFFCURVE",
"360 353 OFFCURVE",
"360 188 CURVE SMOOTH"
);
}
);
width = 796;
}
);
leftKerningGroup = o;
leftMetricsKey = o;
rightKerningGroup = e;
rightMetricsKey = e;
unicode = 0153;
},
{
color = 4;
glyphname = p;
lastChange = "2023-01-13 21:05:19 +0000";
layers = (
{
anchors = (
{
name = top;
position = "{381, 605}";
}
);
background = {
paths = (
{
closed = 1;
nodes = (
"-70 -200 LINE",
"105 -200 LINE",
"161 1 LINE",
"86 342 LINE"
);
},
{
closed = 1;
nodes = (
"13 369 LINE",
"250 472 OFFCURVE",
"279 484 OFFCURVE",
"300 484 CURVE SMOOTH",
"338 484 OFFCURVE",
"374 419 OFFCURVE",
"374 316 CURVE SMOOTH",
"374 152 OFFCURVE",
"299 -1 OFFCURVE",
"226 -1 CURVE SMOOTH",
"199 -1 OFFCURVE",
"180 14 OFFCURVE",
"169 29 CURVE",
"345 641 LINE",
"171 641 LINE",
"86 342 LINE",
"35 3 LINE",
"102 -6 OFFCURVE",
"166 -12 OFFCURVE",
"216 -12 CURVE SMOOTH",
"385 -12 OFFCURVE",
"551 171 OFFCURVE",
"551 354 CURVE SMOOTH",
"551 454 OFFCURVE",
"493 520 OFFCURVE",
"411 520 CURVE SMOOTH",
"347 520 OFFCURVE",
"229 477 OFFCURVE",
"9 380 CURVE"
);
}
);
};
layerId = "C1BD152E-BBB7-4B88-9DA3-7174D04C5495";
paths = (
{
closed = 1;
nodes = (
"-70 -200 LINE",
"105 -200 LINE",
"161 1 LINE",
"171 641 LINE"
);
},
{
closed = 1;
nodes = (
"13 369 LINE",
"250 472 OFFCURVE",
"279 484 OFFCURVE",
"300 484 CURVE SMOOTH",
"338 484 OFFCURVE",
"374 419 OFFCURVE",
"374 316 CURVE SMOOTH",
"374 152 OFFCURVE",
"299 -1 OFFCURVE",
"226 -1 CURVE SMOOTH",
"199 -1 OFFCURVE",
"180 14 OFFCURVE",
"169 29 CURVE",
"345 641 LINE",
"171 641 LINE",
"109 316 LINE",
"35 3 LINE",
"102 -6 OFFCURVE",
"166 -12 OFFCURVE",
"216 -12 CURVE SMOOTH",
"385 -12 OFFCURVE",
"551 171 OFFCURVE",
"551 354 CURVE SMOOTH",
"551 454 OFFCURVE",
"493 520 OFFCURVE",
"411 520 CURVE SMOOTH",
"347 520 OFFCURVE",
"229 477 OFFCURVE",
"9 380 CURVE"
);
}
);
width = 565;
}
);
leftKerningGroup = p;
rightKerningGroup = p;
unicode = 0070;
},
{
color = 4;
glyphname = thorn;
lastChange = "2023-01-13 21:05:19 +0000";
layers = (
{
background = {
paths = (
{
closed = 1;
nodes = (
"345 641 LINE",
"387 786 LINE",
"386 786 LINE",
"130 712 LINE",
"130 707 LINE",
"185 690 LINE",
"171 641 LINE"
);
},
{
closed = 1;
nodes = (
"-70 -200 LINE",
"105 -200 LINE",
"161 1 LINE",
"86 342 LINE"
);
},
{
closed = 1;
nodes = (
"13 369 LINE",
"250 472 OFFCURVE",
"279 484 OFFCURVE",
"300 484 CURVE SMOOTH",
"340 484 OFFCURVE",
"374 419 OFFCURVE",
"374 316 CURVE SMOOTH",
"374 152 OFFCURVE",
"299 -1 OFFCURVE",
"226 -1 CURVE SMOOTH",
"199 -1 OFFCURVE",
"180 14 OFFCURVE",
"169 29 CURVE",
"345 641 LINE",
"171 641 LINE",
"86 342 LINE",
"35 3 LINE",
"102 -6 OFFCURVE",
"166 -12 OFFCURVE",
"216 -12 CURVE SMOOTH",
"385 -12 OFFCURVE",
"551 171 OFFCURVE",
"551 354 CURVE SMOOTH",
"551 454 OFFCURVE",
"493 520 OFFCURVE",
"411 520 CURVE SMOOTH",
"347 520 OFFCURVE",
"229 477 OFFCURVE",
"9 380 CURVE"
);
}
);
};
layerId = "C1BD152E-BBB7-4B88-9DA3-7174D04C5495";
paths = (
{
closed = 1;
nodes = (
"-70 -200 LINE",
"105 -200 LINE",
"161 1 LINE",
"171 641 LINE"
);
},
{
closed = 1;
nodes = (
"13 369 LINE",
"250 472 OFFCURVE",
"279 484 OFFCURVE",
"300 484 CURVE SMOOTH",
"338 484 OFFCURVE",
"374 419 OFFCURVE",
"374 316 CURVE SMOOTH",
"374 152 OFFCURVE",
"299 -1 OFFCURVE",
"226 -1 CURVE SMOOTH",
"199 -1 OFFCURVE",
"180 14 OFFCURVE",
"169 29 CURVE",
"345 641 LINE",
"171 641 LINE",
"109 316 LINE",
"35 3 LINE",
"102 -6 OFFCURVE",
"166 -12 OFFCURVE",
"216 -12 CURVE SMOOTH",
"385 -12 OFFCURVE",
"551 171 OFFCURVE",
"551 354 CURVE SMOOTH",
"551 454 OFFCURVE",
"493 520 OFFCURVE",
"411 520 CURVE SMOOTH",
"347 520 OFFCURVE",
"229 477 OFFCURVE",
"9 380 CURVE"
);
},
{
closed = 1;
nodes = (
"171 641 LINE",
"345 641 LINE",
"387 786 LINE",
"386 786 LINE",
"130 712 LINE",
"130 707 LINE",
"185 690 LINE"
);
}
);
width = 565;
}
);
leftKerningGroup = p;
leftMetricsKey = p;
rightKerningGroup = p;
rightMetricsKey = p;
unicode = 00FE;
},
{
color = 4;
glyphname = q;
lastChange = "2023-01-13 21:05:19 +0000";
layers = (
{
background = {
paths = (
{
closed = 1;
nodes = (
"391 -200 LINE",
"597 518 LINE",
"592 518 LINE",
"547 469 LINE",
"488 495 OFFCURVE",
"441 518 OFFCURVE",
"389 518 CURVE SMOOTH",
"254 518 OFFCURVE",
"10 316 OFFCURVE",
"10 129 CURVE SMOOTH",
"10 44 OFFCURVE",
"68 -10 OFFCURVE",
"126 -10 CURVE SMOOTH",
"210 -10 OFFCURVE",
"254 113 OFFCURVE",
"352 322 CURVE SMOOTH",
"374 369 LINE",
"385 369 LINE",
"215 -200 LINE"
);
},
{
closed = 1;
nodes = (
"203 127 OFFCURVE",
"192 140 OFFCURVE",
"192 172 CURVE SMOOTH",
"192 329 OFFCURVE",
"278 498 OFFCURVE",
"343 498 CURVE SMOOTH",
"372 498 OFFCURVE",
"394 475 OFFCURVE",
"404 463 CURVE",
"341 327 LINE SMOOTH",
"277 188 OFFCURVE",
"246 127 OFFCURVE",
"220 127 CURVE SMOOTH"
);
}
);
};
layerId = "C1BD152E-BBB7-4B88-9DA3-7174D04C5495";
paths = (
{
closed = 1;
nodes = (
"203 127 OFFCURVE",
"192 140 OFFCURVE",
"192 190 CURVE SMOOTH",
"192 329 OFFCURVE",
"279 500 OFFCURVE",
"348 500 CURVE SMOOTH",
"373 500 OFFCURVE",
"395 477 OFFCURVE",
"405 465 CURVE",
"341 327 LINE SMOOTH",
"277 188 OFFCURVE",
"246 127 OFFCURVE",
"217 127 CURVE SMOOTH"
);
},
{
closed = 1;
nodes = (
"391 -200 LINE",
"598 520 LINE",
"593 520 LINE",
"548 471 LINE",
"489 497 OFFCURVE",
"443 520 OFFCURVE",
"395 520 CURVE SMOOTH",
"251 520 OFFCURVE",
"10 316 OFFCURVE",
"10 134 CURVE SMOOTH",
"10 42 OFFCURVE",
"68 -12 OFFCURVE",
"126 -12 CURVE SMOOTH",
"210 -12 OFFCURVE",
"254 113 OFFCURVE",
"352 322 CURVE SMOOTH",
"374 369 LINE",
"383 369 LINE",
"215 -200 LINE"
);
}
);
width = 572;
}
);
leftKerningGroup = a;
leftMetricsKey = a;
rightKerningGroup = g;
unicode = 0071;
},
{
color = 4;
glyphname = r;
lastChange = "2023-01-13 21:05:19 +0000";
layers = (
{
anchors = (
{
name = bottom;
position = "{80, 0}";
},
{
name = top;
position = "{308, 508}";
}
);
background = {
paths = (
{
closed = 1;
nodes = (
"173 0 LINE",
"224 132 LINE SMOOTH",
"301 331 OFFCURVE",
"341 390 OFFCURVE",
"373 390 CURVE SMOOTH",
"388 390 OFFCURVE",
"399 379 OFFCURVE",
"388 345 CURVE SMOOTH",
"334 179 LINE SMOOTH",
"296 61 OFFCURVE",
"335 -10 OFFCURVE",
"402 -10 CURVE SMOOTH",
"462 -10 OFFCURVE",
"534 75 OFFCURVE",
"585 136 CURVE",
"576 136 LINE",
"561 120 OFFCURVE",
"544 101 OFFCURVE",
"526 101 CURVE SMOOTH",
"506 101 OFFCURVE",
"491 121 OFFCURVE",
"511 186 CURVE SMOOTH",
"556 329 LINE SMOOTH",
"594 449 OFFCURVE",
"555 518 OFFCURVE",
"484 518 CURVE SMOOTH",
"414 518 OFFCURVE",
"323 413 OFFCURVE",
"232 187 CURVE SMOOTH",
"211 135 LINE",
"200 135 LINE",
"258 329 LINE SMOOTH",
"294 450 OFFCURVE",
"262 518 OFFCURVE",
"191 518 CURVE SMOOTH",
"127 518 OFFCURVE",
"59 433 OFFCURVE",
"8 372 CURVE",
"17 372 LINE",
"32 388 OFFCURVE",
"55 412 OFFCURVE",
"78 412 CURVE SMOOTH",
"93 412 OFFCURVE",
"103 398 OFFCURVE",
"95 369 CURVE SMOOTH",
"-9 0 LINE"
);
}
);
};
layerId = "C1BD152E-BBB7-4B88-9DA3-7174D04C5495";
paths = (
{
closed = 1;
nodes = (
"172 0 LINE",
"237 169 LINE SMOOTH",
"303 342 OFFCURVE",
"344 370 OFFCURVE",
"458 370 CURVE SMOOTH",
"469 370 LINE",
"475 389 OFFCURVE",
"480 414 OFFCURVE",
"480 439 CURVE SMOOTH",
"480 492 OFFCURVE",
"456 520 OFFCURVE",
"431 520 CURVE SMOOTH",
"384 520 OFFCURVE",
"336 460 OFFCURVE",
"231 189 CURVE SMOOTH",
"210 135 LINE",
"201 135 LINE",
"258 333 LINE SMOOTH",
"297 468 OFFCURVE",
"258 520 OFFCURVE",
"202 520 CURVE SMOOTH",
"129 520 OFFCURVE",
"60 435 OFFCURVE",
"8 370 CURVE",
"17 370 LINE",
"33 388 OFFCURVE",
"53 412 OFFCURVE",
"75 412 CURVE SMOOTH",
"93 412 OFFCURVE",
"104 398 OFFCURVE",
"88 342 CURVE SMOOTH",
"-10 0 LINE"
);
}
);
width = 476;
}
);
leftKerningGroup = n;
leftMetricsKey = n;
rightKerningGroup = r;
unicode = 0072;
},
{
color = 4;
glyphname = s;
lastChange = "2023-01-13 21:05:19 +0000";
layers = (
{
anchors = (
{
name = bottom;
position = "{136, 0}";
},
{
name = top;
position = "{266, 508}";
}
);
background = {
paths = (
{
closed = 1;
nodes = (
"47 291 OFFCURVE",
"83 247 OFFCURVE",
"165 177 CURVE SMOOTH",
"249 106 OFFCURVE",
"267 78 OFFCURVE",
"267 54 CURVE SMOOTH",
"267 33 OFFCURVE",
"252 19 OFFCURVE",
"224 19 CURVE SMOOTH",
"159 19 OFFCURVE",
"100 78 OFFCURVE",
"41 137 CURVE SMOOTH",
"29 149 LINE",
"12 135 OFFCURVE",
"-13 109 OFFCURVE",
"-13 73 CURVE SMOOTH",
"-13 29 OFFCURVE",
"27 -12 OFFCURVE",
"124 -12 CURVE SMOOTH",
"284 -12 OFFCURVE",
"373 84 OFFCURVE",
"373 186 CURVE SMOOTH",
"373 250 OFFCURVE",
"333 305 OFFCURVE",
"255 365 CURVE SMOOTH",
"185 418 OFFCURVE",
"163 440 OFFCURVE",
"163 464 CURVE SMOOTH",
"163 483 OFFCURVE",
"178 495 OFFCURVE",
"205 495 CURVE SMOOTH",
"259 495 OFFCURVE",
"317 448 OFFCURVE",
"380 379 CURVE SMOOTH",
"392 366 LINE",
"408 380 OFFCURVE",
"427 405 OFFCURVE",
"427 436 CURVE SMOOTH",
"427 476 OFFCURVE",
"385 520 OFFCURVE",
"285 520 CURVE SMOOTH",
"151 520 OFFCURVE",
"47 440 OFFCURVE",
"47 350 CURVE SMOOTH"
);
}
);
};
guideLines = (
{
angle = 74;
position = "{61, 417}";
},
{
angle = 74;
position = "{361, 130}";
}
);
layerId = "C1BD152E-BBB7-4B88-9DA3-7174D04C5495";
paths = (
{
closed = 1;
nodes = (
"49 318 OFFCURVE",
"73 277 OFFCURVE",
"157 176 CURVE SMOOTH",
"214 109 OFFCURVE",
"233 78 OFFCURVE",
"233 47 CURVE SMOOTH",
"233 23 OFFCURVE",
"217 9 OFFCURVE",
"193 9 CURVE SMOOTH",
"153 9 OFFCURVE",
"111 42 OFFCURVE",
"42 132 CURVE SMOOTH",
"29 149 LINE",
"2 127 OFFCURVE",
"-13 100 OFFCURVE",
"-13 73 CURVE SMOOTH",
"-13 20 OFFCURVE",
"36 -12 OFFCURVE",
"122 -12 CURVE SMOOTH",
"257 -12 OFFCURVE",
"369 72 OFFCURVE",
"369 172 CURVE SMOOTH",
"369 222 OFFCURVE",
"346 264 OFFCURVE",
"261 362 CURVE SMOOTH",
"210 421 OFFCURVE",
"196 443 OFFCURVE",
"196 470 CURVE SMOOTH",
"196 491 OFFCURVE",
"211 504 OFFCURVE",
"234 504 CURVE SMOOTH",
"276 504 OFFCURVE",
"310 470 OFFCURVE",
"375 381 CURVE SMOOTH",
"386 366 LINE",
"409 386 OFFCURVE",
"421 410 OFFCURVE",
"421 434 CURVE SMOOTH",
"421 486 OFFCURVE",
"366 520 OFFCURVE",
"285 520 CURVE SMOOTH",
"158 520 OFFCURVE",
"49 446 OFFCURVE",
"49 360 CURVE SMOOTH"
);
}
);
width = 413;
}
);
leftKerningGroup = s;
rightKerningGroup = s;
unicode = 0073;
},
{
color = 4;
glyphname = germandbls;
lastChange = "2023-01-13 21:05:19 +0000";
layers = (
{
background = {
paths = (
{
closed = 1;
nodes = (
"204 140 LINE",
"287 429 LINE SMOOTH",
"314 524 OFFCURVE",
"281 563 OFFCURVE",
"281 636 CURVE SMOOTH",
"281 696 OFFCURVE",
"312 722 OFFCURVE",
"353 722 CURVE SMOOTH",
"399 722 OFFCURVE",
"437 679 OFFCURVE",
"437 616 CURVE SMOOTH",
"437 558 OFFCURVE",
"416 517 OFFCURVE",
"386 480 CURVE SMOOTH",
"344 427 OFFCURVE",
"299 378 OFFCURVE",
"299 311 CURVE SMOOTH",
"299 267 OFFCURVE",
"326 223 OFFCURVE",
"383 167 CURVE SMOOTH",
"428 122 OFFCURVE",
"465 90 OFFCURVE",
"465 60 CURVE SMOOTH",
"465 40 OFFCURVE",
"450 31 OFFCURVE",
"430 31 CURVE SMOOTH",
"385 31 OFFCURVE",
"340 64 OFFCURVE",
"278 126 CURVE SMOOTH",
"267 137 LINE",
"249 123 OFFCURVE",
"226 98 OFFCURVE",
"226 64 CURVE SMOOTH",
"226 23 OFFCURVE",
"261 -12 OFFCURVE",
"333 -12 CURVE SMOOTH",
"462 -12 OFFCURVE",
"543 92 OFFCURVE",
"543 199 CURVE SMOOTH",
"543 275 OFFCURVE",
"499 326 OFFCURVE",
"449 374 CURVE SMOOTH",
"403 419 OFFCURVE",
"391 434 OFFCURVE",
"391 455 CURVE SMOOTH",
"391 476 OFFCURVE",
"408 496 OFFCURVE",
"484 549 CURVE SMOOTH",
"575 613 OFFCURVE",
"602 643 OFFCURVE",
"602 680 CURVE SMOOTH",
"602 728 OFFCURVE",
"555 774 OFFCURVE",
"474 774 CURVE SMOOTH",
"336 774 OFFCURVE",
"182 658 OFFCURVE",
"131 483 CURVE SMOOTH",
"-36 -87 LINE"
);
},
{
closed = 1;
nodes = (
"-54 -148 OFFCURVE",
"-70 -182 OFFCURVE",
"-101 -182 CURVE SMOOTH",
"-134 -182 OFFCURVE",
"-163 -134 OFFCURVE",
"-191 -85 CURVE SMOOTH",
"-203 -64 LINE",
"-224 -80 OFFCURVE",
"-249 -105 OFFCURVE",
"-249 -136 CURVE SMOOTH",
"-249 -171 OFFCURVE",
"-218 -200 OFFCURVE",
"-159 -200 CURVE SMOOTH",
"6 -200 OFFCURVE",
"143 -72 OFFCURVE",
"204 140 CURVE",
"-36 -87 LINE"
);
},
{
closed = 1;
nodes = (
"147 508 LINE",
"32 508 LINE",
"32 496 LINE",
"143 496 LINE"
);
}
);
};
layerId = "C1BD152E-BBB7-4B88-9DA3-7174D04C5495";
paths = (
{
closed = 1;
nodes = (
"462 -12 OFFCURVE",
"543 92 OFFCURVE",
"543 199 CURVE SMOOTH",
"543 275 OFFCURVE",
"499 326 OFFCURVE",
"449 374 CURVE SMOOTH",
"403 419 OFFCURVE",
"391 434 OFFCURVE",
"391 455 CURVE SMOOTH",
"391 476 OFFCURVE",
"408 496 OFFCURVE",
"484 549 CURVE SMOOTH",
"575 613 OFFCURVE",
"602 643 OFFCURVE",
"602 680 CURVE SMOOTH",
"602 728 OFFCURVE",
"555 774 OFFCURVE",
"474 774 CURVE SMOOTH",
"336 774 OFFCURVE",
"182 658 OFFCURVE",
"131 483 CURVE SMOOTH",
"-36 -87 LINE SMOOTH",
"-54 -148 OFFCURVE",
"-70 -182 OFFCURVE",
"-101 -182 CURVE SMOOTH",
"-134 -182 OFFCURVE",
"-163 -134 OFFCURVE",
"-191 -85 CURVE SMOOTH",
"-203 -64 LINE",
"-224 -80 OFFCURVE",
"-249 -105 OFFCURVE",
"-249 -136 CURVE SMOOTH",
"-249 -171 OFFCURVE",
"-218 -200 OFFCURVE",
"-159 -200 CURVE SMOOTH",
"6 -200 OFFCURVE",
"143 -72 OFFCURVE",
"204 140 CURVE SMOOTH",
"287 429 LINE SMOOTH",
"314 524 OFFCURVE",
"281 563 OFFCURVE",
"281 636 CURVE SMOOTH",
"281 696 OFFCURVE",
"312 722 OFFCURVE",
"353 722 CURVE SMOOTH",
"399 722 OFFCURVE",
"437 679 OFFCURVE",
"437 616 CURVE SMOOTH",
"437 558 OFFCURVE",
"416 517 OFFCURVE",
"386 480 CURVE SMOOTH",
"344 427 OFFCURVE",
"299 378 OFFCURVE",
"299 311 CURVE SMOOTH",
"299 267 OFFCURVE",
"328 225 OFFCURVE",
"383 167 CURVE SMOOTH",
"428 120 OFFCURVE",
"455 90 OFFCURVE",
"455 60 CURVE SMOOTH",
"455 34 OFFCURVE",
"438 21 OFFCURVE",
"414 21 CURVE SMOOTH",
"375 21 OFFCURVE",
"330 51 OFFCURVE",
"278 122 CURVE SMOOTH",
"267 137 LINE",
"249 123 OFFCURVE",
"226 98 OFFCURVE",
"226 64 CURVE SMOOTH",
"226 23 OFFCURVE",
"261 -12 OFFCURVE",
"333 -12 CURVE SMOOTH"
);
},
{
closed = 1;
nodes = (
"147 508 LINE",
"32 508 LINE",
"32 496 LINE",
"143 496 LINE"
);
}
);
width = 567;
}
);
leftKerningGroup = f;
leftMetricsKey = f;
rightKerningGroup = germandbls;
unicode = 00DF;
},
{
color = 4;
glyphname = t;
lastChange = "2023-01-13 21:05:19 +0000";
layers = (
{
anchors = (
{
name = bottom;
position = "{113, 0}";
},
{
name = top;
position = "{251, 608}";
}
);
background = {
paths = (
{
closed = 1;
nodes = (
"-6 60 OFFCURVE",
"39 -10 OFFCURVE",
"119 -10 CURVE SMOOTH",
"180 -10 OFFCURVE",
"256 76 OFFCURVE",
"308 138 CURVE",
"299 138 LINE",
"283 120 OFFCURVE",
"266 101 OFFCURVE",
"242 101 CURVE SMOOTH",
"211 101 OFFCURVE",
"188 130 OFFCURVE",
"209 204 CURVE SMOOTH",
"293 496 LINE",
"395 496 LINE",
"395 508 LINE",
"296 508 LINE",
"334 644 LINE",
"329 644 LINE",
"291 578 OFFCURVE",
"207 527 OFFCURVE",
"144 508 CURVE",
"64 508 LINE",
"64 496 LINE",
"119 496 LINE",
"37 211 LINE SMOOTH"
);
}
);
};
layerId = "C1BD152E-BBB7-4B88-9DA3-7174D04C5495";
paths = (
{
closed = 1;
nodes = (
"-8 55 OFFCURVE",
"39 -12 OFFCURVE",
"107 -12 CURVE SMOOTH",
"186 -12 OFFCURVE",
"257 76 OFFCURVE",
"308 138 CURVE",
"299 138 LINE",
"282 120 OFFCURVE",
"264 101 OFFCURVE",
"240 101 CURVE SMOOTH",
"211 101 OFFCURVE",
"188 130 OFFCURVE",
"209 204 CURVE SMOOTH",
"293 496 LINE",
"395 496 LINE",
"395 508 LINE",
"296 508 LINE",
"334 644 LINE",
"329 644 LINE",
"291 578 OFFCURVE",
"207 527 OFFCURVE",
"144 508 CURVE",
"64 508 LINE",
"64 496 LINE",
"119 496 LINE",
"37 211 LINE SMOOTH"
);
}
);
width = 328;
}
);
leftKerningGroup = t;
rightKerningGroup = t;
unicode = 0074;
},
{
color = 4;
glyphname = tbar;
lastChange = "2022-12-21 12:47:38 +0000";
layers = (
{
layerId = "C1BD152E-BBB7-4B88-9DA3-7174D04C5495";
paths = (
{
closed = 1;
nodes = (
"-8 55 OFFCURVE",
"39 -12 OFFCURVE",
"107 -12 CURVE SMOOTH",
"186 -12 OFFCURVE",
"257 76 OFFCURVE",
"308 138 CURVE",
"299 138 LINE",
"282 120 OFFCURVE",
"264 101 OFFCURVE",
"240 101 CURVE SMOOTH",
"211 101 OFFCURVE",
"188 130 OFFCURVE",
"209 204 CURVE SMOOTH",
"293 496 LINE",
"395 496 LINE",
"395 508 LINE",
"296 508 LINE",
"334 644 LINE",
"329 644 LINE",
"291 578 OFFCURVE",
"207 527 OFFCURVE",
"144 508 CURVE",
"64 508 LINE",
"64 496 LINE",
"119 496 LINE",
"37 211 LINE SMOOTH"
);
},
{
closed = 1;
nodes = (
"12 315 LINE",
"324 315 LINE",
"324 327 LINE",
"12 327 LINE"
);
}
);
width = 328;
}
);
leftKerningGroup = t;
rightKerningGroup = t;
rightMetricsKey = t;
unicode = 0167;
},
{
color = 4;
glyphname = tcaron;
lastChange = "2022-12-21 17:43:14 +0000";
layers = (
{
background = {
paths = (
{
closed = 1;
nodes = (
"408 576 OFFCURVE",
"574 646 OFFCURVE",
"574 749 CURVE SMOOTH",
"574 802 OFFCURVE",
"534 846 OFFCURVE",
"467 846 CURVE SMOOTH",
"402 846 OFFCURVE",
"363 810 OFFCURVE",
"356 761 CURVE",
"407 736 OFFCURVE",
"443 705 OFFCURVE",
"443 660 CURVE SMOOTH",
"443 613 OFFCURVE",
"404 584 OFFCURVE",
"355 559 CURVE",
"358 552 LINE"
);
}
);
};
components = (
{
name = t;
}
);
layerId = "C1BD152E-BBB7-4B88-9DA3-7174D04C5495";
paths = (
{
closed = 1;
nodes = (
"500 604 OFFCURVE",
"585 672 OFFCURVE",
"585 746 CURVE SMOOTH",
"585 797 OFFCURVE",
"545 836 OFFCURVE",
"493 836 CURVE SMOOTH",
"442 836 OFFCURVE",
"408 809 OFFCURVE",
"393 770 CURVE",
"434 742 OFFCURVE",
"460 709 OFFCURVE",
"460 666 CURVE SMOOTH",
"460 621 OFFCURVE",
"422 590 OFFCURVE",
"344 558 CURVE",
"347 552 LINE"
);
}
);
width = 328;
}
);
leftKerningGroup = t;
leftMetricsKey = t;
rightKerningGroup = tcaron;
unicode = 0165;
},
{
color = 4;
glyphname = u;
lastChange = "2023-01-13 21:05:19 +0000";
layers = (
{
anchors = (
{
name = bottom;
position = "{198, 0}";
},
{
name = ogonek;
position = "{446, 0}";
},
{
name = top;
position = "{341, 508}";
}
);
background = {
paths = (
{
closed = 1;
nodes = (
"15 370 LINE",
"31 388 OFFCURVE",
"51 412 OFFCURVE",
"73 412 CURVE SMOOTH",
"91 412 OFFCURVE",
"102 398 OFFCURVE",
"85 342 CURVE SMOOTH",
"34 177 LINE SMOOTH",
"-4 54 OFFCURVE",
"47 -12 OFFCURVE",
"108 -12 CURVE SMOOTH",
"183 -12 OFFCURVE",
"259 91 OFFCURVE",
"348 319 CURVE SMOOTH",
"369 373 LINE",
"378 373 LINE",
"322 179 LINE SMOOTH",
"282 41 OFFCURVE",
"328 -12 OFFCURVE",
"384 -12 CURVE SMOOTH",
"456 -12 OFFCURVE",
"521 75 OFFCURVE",
"573 138 CURVE",
"564 138 LINE",
"548 120 OFFCURVE",
"532 101 OFFCURVE",
"513 101 CURVE SMOOTH",
"494 101 OFFCURVE",
"480 121 OFFCURVE",
"498 186 CURVE SMOOTH",
"588 508 LINE",
"407 508 LINE",
"356 375 LINE SMOOTH",
"280 176 OFFCURVE",
"247 118 OFFCURVE",
"214 118 CURVE SMOOTH",
"200 118 OFFCURVE",
"190 129 OFFCURVE",
"201 163 CURVE SMOOTH",
"257 333 LINE SMOOTH",
"301 468 OFFCURVE",
"256 520 OFFCURVE",
"200 520 CURVE SMOOTH",
"127 520 OFFCURVE",
"58 435 OFFCURVE",
"6 370 CURVE"
);
}
);
};
layerId = "C1BD152E-BBB7-4B88-9DA3-7174D04C5495";
paths = (
{
closed = 1;
nodes = (
"15 370 LINE",
"31 388 OFFCURVE",
"51 412 OFFCURVE",
"73 412 CURVE SMOOTH",
"91 412 OFFCURVE",
"102 398 OFFCURVE",
"85 342 CURVE SMOOTH",
"34 177 LINE SMOOTH",
"-6 48 OFFCURVE",
"37 -12 OFFCURVE",
"102 -12 CURVE SMOOTH",
"183 -12 OFFCURVE",
"259 91 OFFCURVE",
"348 319 CURVE SMOOTH",
"369 373 LINE",
"378 373 LINE",
"322 179 LINE SMOOTH",
"282 41 OFFCURVE",
"327 -12 OFFCURVE",
"383 -12 CURVE SMOOTH",
"455 -12 OFFCURVE",
"520 75 OFFCURVE",
"572 138 CURVE",
"563 138 LINE",
"547 120 OFFCURVE",
"531 101 OFFCURVE",
"512 101 CURVE SMOOTH",
"493 101 OFFCURVE",
"478 121 OFFCURVE",
"497 186 CURVE SMOOTH",
"589 508 LINE",
"407 508 LINE",
"356 375 LINE SMOOTH",
"280 176 OFFCURVE",
"246 116 OFFCURVE",
"213 116 CURVE SMOOTH",
"199 116 OFFCURVE",
"189 127 OFFCURVE",
"200 161 CURVE SMOOTH",
"257 333 LINE SMOOTH",
"302 468 OFFCURVE",
"256 520 OFFCURVE",
"200 520 CURVE SMOOTH",
"127 520 OFFCURVE",
"58 435 OFFCURVE",
"6 370 CURVE"
);
}
);
width = 580;
}
);
leftKerningGroup = u;
rightKerningGroup = a;
rightMetricsKey = a;
unicode = 0075;
},
{
glyphname = uogonek;
lastChange = "2022-12-24 19:11:39 +0000";
layers = (
{
anchors = (
{
name = bottom;
position = "{198, 0}";
},
{
name = ogonek;
position = "{446, 0}";
},
{
name = top;
position = "{341, 508}";
}
);
background = {
paths = (
{
closed = 1;
nodes = (
"15 370 LINE",
"31 388 OFFCURVE",
"51 412 OFFCURVE",
"73 412 CURVE SMOOTH",
"91 412 OFFCURVE",
"102 398 OFFCURVE",
"85 342 CURVE SMOOTH",
"34 177 LINE SMOOTH",
"-6 48 OFFCURVE",
"37 -12 OFFCURVE",
"102 -12 CURVE SMOOTH",
"183 -12 OFFCURVE",
"259 91 OFFCURVE",
"348 319 CURVE SMOOTH",
"369 373 LINE",
"378 373 LINE",
"322 179 LINE SMOOTH",
"282 41 OFFCURVE",
"328 -12 OFFCURVE",
"384 -12 CURVE SMOOTH",
"456 -12 OFFCURVE",
"521 75 OFFCURVE",
"573 138 CURVE",
"564 138 LINE",
"548 120 OFFCURVE",
"532 101 OFFCURVE",
"513 101 CURVE SMOOTH",
"494 101 OFFCURVE",
"480 121 OFFCURVE",
"498 186 CURVE SMOOTH",
"588 508 LINE",
"407 508 LINE",
"356 375 LINE SMOOTH",
"280 176 OFFCURVE",
"246 116 OFFCURVE",
"213 116 CURVE SMOOTH",
"199 116 OFFCURVE",
"189 127 OFFCURVE",
"200 161 CURVE SMOOTH",
"257 333 LINE SMOOTH",
"302 468 OFFCURVE",
"256 520 OFFCURVE",
"200 520 CURVE SMOOTH",
"127 520 OFFCURVE",
"58 435 OFFCURVE",
"6 370 CURVE"
);
},
{
closed = 1;
nodes = (
"363 -43 OFFCURVE",
"270 -90 OFFCURVE",
"270 -161 CURVE SMOOTH",
"270 -204 OFFCURVE",
"305 -237 OFFCURVE",
"353 -237 CURVE SMOOTH",
"406 -237 OFFCURVE",
"452 -196 OFFCURVE",
"490 -144 CURVE",
"481 -144 LINE",
"472 -156 OFFCURVE",
"455 -173 OFFCURVE",
"430 -173 CURVE SMOOTH",
"403 -173 OFFCURVE",
"382 -154 OFFCURVE",
"382 -116 CURVE SMOOTH",
"382 -67 OFFCURVE",
"416 -26 OFFCURVE",
"453 4 CURVE",
"445 4 LINE"
);
}
);
};
layerId = "C1BD152E-BBB7-4B88-9DA3-7174D04C5495";
paths = (
{
closed = 1;
nodes = (
"15 370 LINE",
"31 388 OFFCURVE",
"51 412 OFFCURVE",
"73 412 CURVE SMOOTH",
"91 412 OFFCURVE",
"102 398 OFFCURVE",
"85 342 CURVE SMOOTH",
"34 177 LINE SMOOTH",
"-6 48 OFFCURVE",
"37 -12 OFFCURVE",
"102 -12 CURVE SMOOTH",
"183 -12 OFFCURVE",
"259 91 OFFCURVE",
"348 319 CURVE SMOOTH",
"369 373 LINE",
"378 373 LINE",
"322 179 LINE SMOOTH",
"285 50 OFFCURVE",
"327 0 OFFCURVE",
"376 0 CURVE SMOOTH",
"401 0 OFFCURVE",
"420 13 OFFCURVE",
"454 39 CURVE",
"460 31 LINE",
"426 5 LINE SMOOTH",
"343 -59 OFFCURVE",
"271 -112 OFFCURVE",
"271 -168 CURVE SMOOTH",
"271 -206 OFFCURVE",
"304 -237 OFFCURVE",
"353 -237 CURVE SMOOTH",
"408 -237 OFFCURVE",
"453 -196 OFFCURVE",
"491 -144 CURVE",
"482 -144 LINE",
"473 -156 OFFCURVE",
"456 -173 OFFCURVE",
"432 -173 CURVE SMOOTH",
"407 -173 OFFCURVE",
"383 -153 OFFCURVE",
"383 -113 CURVE SMOOTH",
"383 -65 OFFCURVE",
"415 -26 OFFCURVE",
"475 30 CURVE SMOOTH",
"518 71 OFFCURVE",
"547 107 OFFCURVE",
"572 138 CURVE",
"563 138 LINE",
"547 120 OFFCURVE",
"531 101 OFFCURVE",
"512 101 CURVE SMOOTH",
"493 101 OFFCURVE",
"478 121 OFFCURVE",
"497 186 CURVE SMOOTH",
"589 508 LINE",
"407 508 LINE",
"356 375 LINE SMOOTH",
"280 176 OFFCURVE",
"246 116 OFFCURVE",
"213 116 CURVE SMOOTH",
"199 116 OFFCURVE",
"189 127 OFFCURVE",
"200 161 CURVE SMOOTH",
"257 333 LINE SMOOTH",
"302 468 OFFCURVE",
"256 520 OFFCURVE",
"200 520 CURVE SMOOTH",
"127 520 OFFCURVE",
"58 435 OFFCURVE",
"6 370 CURVE"
);
}
);
width = 580;
}
);
leftKerningGroup = u;
leftMetricsKey = u;
rightKerningGroup = a;
rightMetricsKey = u;
unicode = 0173;
},
{
color = 4;
glyphname = v;
lastChange = "2023-01-13 21:05:19 +0000";
layers = (
{
background = {
paths = (
{
closed = 1;
nodes = (
"12 370 LINE",
"28 388 OFFCURVE",
"51 412 OFFCURVE",
"71 412 CURVE SMOOTH",
"86 412 OFFCURVE",
"99 401 OFFCURVE",
"99 347 CURVE SMOOTH",
"99 244 OFFCURVE",
"48 65 OFFCURVE",
"18 -27 CURVE",
"22 -27 LINE",
"106 7 LINE SMOOTH",
"306 88 OFFCURVE",
"527 272 OFFCURVE",
"527 417 CURVE",
"391 347 LINE",
"391 251 OFFCURVE",
"334 142 OFFCURVE",
"208 69 CURVE",
"206 69 LINE",
"233 152 OFFCURVE",
"265 278 OFFCURVE",
"265 375 CURVE SMOOTH",
"265 456 OFFCURVE",
"238 520 OFFCURVE",
"181 520 CURVE SMOOTH",
"115 520 OFFCURVE",
"55 435 OFFCURVE",
"3 370 CURVE"
);
},
{
closed = 1;
nodes = (
"527 483 OFFCURVE",
"485 520 OFFCURVE",
"441 520 CURVE SMOOTH",
"370 520 OFFCURVE",
"317 424 OFFCURVE",
"219 202 CURVE",
"228 196 LINE",
"311 389 OFFCURVE",
"338 412 OFFCURVE",
"359 412 CURVE SMOOTH",
"376 412 OFFCURVE",
"391 392 OFFCURVE",
"391 347 CURVE",
"527 417 LINE"
);
}
);
};
layerId = "C1BD152E-BBB7-4B88-9DA3-7174D04C5495";
paths = (
{
closed = 1;
nodes = (
"12 370 LINE",
"28 388 OFFCURVE",
"51 412 OFFCURVE",
"71 412 CURVE SMOOTH",
"86 412 OFFCURVE",
"99 401 OFFCURVE",
"99 347 CURVE SMOOTH",
"99 244 OFFCURVE",
"45 65 OFFCURVE",
"18 -27 CURVE",
"22 -27 LINE",
"106 7 LINE SMOOTH",
"306 88 OFFCURVE",
"527 272 OFFCURVE",
"527 417 CURVE",
"391 347 LINE",
"391 251 OFFCURVE",
"334 142 OFFCURVE",
"208 69 CURVE",
"206 69 LINE",
"232 152 OFFCURVE",
"265 278 OFFCURVE",
"265 375 CURVE SMOOTH",
"265 456 OFFCURVE",
"238 520 OFFCURVE",
"181 520 CURVE SMOOTH",
"115 520 OFFCURVE",
"55 435 OFFCURVE",
"3 370 CURVE"
);
},
{
closed = 1;
nodes = (
"527 483 OFFCURVE",
"485 520 OFFCURVE",
"441 520 CURVE SMOOTH",
"381 520 OFFCURVE",
"334 452 OFFCURVE",
"262 298 CURVE",
"219 298 LINE",
"228 196 LINE",
"311 389 OFFCURVE",
"338 412 OFFCURVE",
"359 412 CURVE SMOOTH",
"376 412 OFFCURVE",
"391 392 OFFCURVE",
"391 347 CURVE",
"527 417 LINE"
);
}
);
width = 517;
}
);
leftKerningGroup = v;
rightKerningGroup = v;
unicode = 0076;
},
{
color = 4;
glyphname = w;
lastChange = "2023-01-13 21:05:19 +0000";
layers = (
{
anchors = (
{
name = top;
position = "{480, 508}";
}
);
background = {
paths = (
{
closed = 1;
nodes = (
"312 -27 LINE",
"396 7 LINE SMOOTH",
"595 88 OFFCURVE",
"812 272 OFFCURVE",
"812 427 CURVE",
"677 335 LINE",
"677 251 OFFCURVE",
"622 142 OFFCURVE",
"497 69 CURVE",
"495 69 LINE",
"518 139 OFFCURVE",
"553 274 OFFCURVE",
"553 375 CURVE SMOOTH",
"553 456 OFFCURVE",
"522 520 OFFCURVE",
"457 520 CURVE SMOOTH",
"384 520 OFFCURVE",
"314 435 OFFCURVE",
"239 352 CURVE",
"247 350 LINE",
"287 391 OFFCURVE",
"311 412 OFFCURVE",
"340 412 CURVE SMOOTH",
"366 412 OFFCURVE",
"389 391 OFFCURVE",
"389 335 CURVE SMOOTH",
"389 237 OFFCURVE",
"336 63 OFFCURVE",
"308 -27 CURVE"
);
},
{
closed = 1;
nodes = (
"812 485 OFFCURVE",
"780 520 OFFCURVE",
"738 520 CURVE SMOOTH",
"672 520 OFFCURVE",
"602 435 OFFCURVE",
"527 352 CURVE",
"535 350 LINE",
"575 391 OFFCURVE",
"599 412 OFFCURVE",
"628 412 CURVE SMOOTH",
"654 412 OFFCURVE",
"677 391 OFFCURVE",
"677 335 CURVE",
"812 427 LINE"
);
},
{
closed = 1;
nodes = (
"12 370 LINE",
"28 388 OFFCURVE",
"51 412 OFFCURVE",
"71 412 CURVE SMOOTH",
"86 412 OFFCURVE",
"99 401 OFFCURVE",
"99 347 CURVE SMOOTH",
"99 244 OFFCURVE",
"48 65 OFFCURVE",
"18 -27 CURVE",
"22 -27 LINE",
"106 7 LINE SMOOTH",
"245 63 OFFCURVE",
"320 131 OFFCURVE",
"363 187 CURVE",
"436 187 LINE",
"389 335 LINE",
"389 251 OFFCURVE",
"334 142 OFFCURVE",
"208 69 CURVE",
"206 69 LINE",
"233 152 OFFCURVE",
"265 278 OFFCURVE",
"265 375 CURVE SMOOTH",
"265 456 OFFCURVE",
"238 520 OFFCURVE",
"181 520 CURVE SMOOTH",
"115 520 OFFCURVE",
"55 435 OFFCURVE",
"3 370 CURVE"
);
}
);
};
layerId = "C1BD152E-BBB7-4B88-9DA3-7174D04C5495";
paths = (
{
closed = 1;
nodes = (
"12 370 LINE",
"28 388 OFFCURVE",
"51 412 OFFCURVE",
"71 412 CURVE SMOOTH",
"86 412 OFFCURVE",
"99 401 OFFCURVE",
"99 347 CURVE SMOOTH",
"99 244 OFFCURVE",
"45 65 OFFCURVE",
"18 -27 CURVE",
"22 -27 LINE",
"106 7 LINE SMOOTH",
"245 63 OFFCURVE",
"320 131 OFFCURVE",
"363 187 CURVE",
"436 187 LINE",
"389 346 LINE",
"389 251 OFFCURVE",
"334 142 OFFCURVE",
"208 69 CURVE",
"206 69 LINE",
"232 152 OFFCURVE",
"265 278 OFFCURVE",
"265 375 CURVE SMOOTH",
"265 456 OFFCURVE",
"238 520 OFFCURVE",
"181 520 CURVE SMOOTH",
"115 520 OFFCURVE",
"55 435 OFFCURVE",
"3 370 CURVE"
);
},
{
closed = 1;
nodes = (
"813 483 OFFCURVE",
"770 520 OFFCURVE",
"726 520 CURVE SMOOTH",
"667 520 OFFCURVE",
"621 454 OFFCURVE",
"551 305 CURVE",
"510 305 LINE",
"514 196 LINE",
"597 389 OFFCURVE",
"624 412 OFFCURVE",
"645 412 CURVE SMOOTH",
"662 412 OFFCURVE",
"677 392 OFFCURVE",
"677 346 CURVE",
"813 417 LINE"
);
},
{
closed = 1;
nodes = (
"312 -27 LINE",
"396 7 LINE SMOOTH",
"595 88 OFFCURVE",
"813 272 OFFCURVE",
"813 417 CURVE",
"677 346 LINE",
"677 251 OFFCURVE",
"622 142 OFFCURVE",
"497 69 CURVE",
"495 69 LINE",
"517 139 OFFCURVE",
"552 274 OFFCURVE",
"552 361 CURVE SMOOTH",
"552 464 OFFCURVE",
"508 520 OFFCURVE",
"449 520 CURVE SMOOTH",
"383 520 OFFCURVE",
"334 454 OFFCURVE",
"263 305 CURVE",
"226 305 LINE",
"226 196 LINE",
"309 389 OFFCURVE",
"335 412 OFFCURVE",
"357 412 CURVE SMOOTH",
"374 412 OFFCURVE",
"389 392 OFFCURVE",
"389 346 CURVE SMOOTH",
"389 237 OFFCURVE",
"334 63 OFFCURVE",
"308 -27 CURVE"
);
}
);
width = 803;
}
);
leftKerningGroup = v;
leftMetricsKey = v;
rightKerningGroup = v;
rightMetricsKey = v;
unicode = 0077;
},
{
color = 4;
glyphname = x;
lastChange = "2023-01-13 21:05:19 +0000";
layers = (
{
background = {
paths = (
{
closed = 1;
nodes = (
"91 370 LINE",
"107 389 OFFCURVE",
"124 412 OFFCURVE",
"145 412 CURVE SMOOTH",
"163 412 OFFCURVE",
"180 392 OFFCURVE",
"200 311 CURVE SMOOTH",
"242 142 LINE SMOOTH",
"270 31 OFFCURVE",
"299 -12 OFFCURVE",
"349 -12 CURVE SMOOTH",
"403 -12 OFFCURVE",
"460 67 OFFCURVE",
"515 138 CURVE",
"506 138 LINE",
"490 118 OFFCURVE",
"478 101 OFFCURVE",
"459 101 CURVE SMOOTH",
"436 101 OFFCURVE",
"418 123 OFFCURVE",
"399 197 CURVE SMOOTH",
"351 380 LINE SMOOTH",
"326 477 OFFCURVE",
"297 520 OFFCURVE",
"254 520 CURVE SMOOTH",
"197 520 OFFCURVE",
"139 441 OFFCURVE",
"82 370 CURVE"
);
},
{
closed = 1;
nodes = (
"367 297 LINE",
"403 351 OFFCURVE",
"425 370 OFFCURVE",
"544 370 CURVE SMOOTH",
"575 370 LINE",
"581 389 OFFCURVE",
"586 414 OFFCURVE",
"586 439 CURVE SMOOTH",
"586 492 OFFCURVE",
"562 520 OFFCURVE",
"537 520 CURVE SMOOTH",
"493 520 OFFCURVE",
"452 459 OFFCURVE",
"370 318 CURVE",
"363 318 LINE"
);
},
{
closed = 1;
nodes = (
"223 222 LINE",
"183 157 OFFCURVE",
"157 138 OFFCURVE",
"38 138 CURVE SMOOTH",
"7 138 LINE",
"2 120 OFFCURVE",
"-4 94 OFFCURVE",
"-4 69 CURVE SMOOTH",
"-4 14 OFFCURVE",
"19 -12 OFFCURVE",
"48 -12 CURVE SMOOTH",
"93 -12 OFFCURVE",
"137 49 OFFCURVE",
"224 205 CURVE",
"238 205 LINE"
);
}
);
};
guideLines = (
{
angle = 74;
position = "{276, 170}";
}
);
layerId = "C1BD152E-BBB7-4B88-9DA3-7174D04C5495";
paths = (
{
closed = 1;
nodes = (
"91 370 LINE",
"107 389 OFFCURVE",
"125 412 OFFCURVE",
"145 412 CURVE SMOOTH",
"162 412 OFFCURVE",
"179 392 OFFCURVE",
"199 311 CURVE SMOOTH",
"236 160 LINE SMOOTH",
"267 31 OFFCURVE",
"295 -12 OFFCURVE",
"347 -12 CURVE SMOOTH",
"408 -12 OFFCURVE",
"460 66 OFFCURVE",
"515 138 CURVE",
"506 138 LINE",
"490 118 OFFCURVE",
"477 101 OFFCURVE",
"459 101 CURVE SMOOTH",
"436 101 OFFCURVE",
"418 123 OFFCURVE",
"397 206 CURVE SMOOTH",
"352 381 LINE SMOOTH",
"327 478 OFFCURVE",
"298 520 OFFCURVE",
"254 520 CURVE SMOOTH",
"197 520 OFFCURVE",
"139 441 OFFCURVE",
"82 370 CURVE"
);
},
{
closed = 1;
nodes = (
"367 297 LINE",
"403 351 OFFCURVE",
"425 370 OFFCURVE",
"544 370 CURVE SMOOTH",
"575 370 LINE",
"581 389 OFFCURVE",
"586 414 OFFCURVE",
"586 439 CURVE SMOOTH",
"586 492 OFFCURVE",
"562 520 OFFCURVE",
"536 520 CURVE SMOOTH",
"493 520 OFFCURVE",
"452 459 OFFCURVE",
"370 318 CURVE",
"363 318 LINE"
);
},
{
closed = 1;
nodes = (
"222 222 LINE",
"183 157 OFFCURVE",
"157 138 OFFCURVE",
"38 138 CURVE SMOOTH",
"7 138 LINE",
"2 120 OFFCURVE",
"-4 94 OFFCURVE",
"-4 69 CURVE SMOOTH",
"-4 14 OFFCURVE",
"19 -12 OFFCURVE",
"48 -12 CURVE SMOOTH",
"93 -12 OFFCURVE",
"137 49 OFFCURVE",
"223 205 CURVE",
"237 205 LINE"
);
}
);
width = 580;
}
);
leftKerningGroup = x;
rightKerningGroup = x;
unicode = 0078;
},
{
color = 4;
glyphname = y;
lastChange = "2023-01-13 21:05:19 +0000";
layers = (
{
anchors = (
{
name = top;
position = "{365, 508}";
}
);
background = {
paths = (
{
closed = 1;
nodes = (
"-160 -175 OFFCURVE",
"-130 -203 OFFCURVE",
"-65 -203 CURVE SMOOTH",
"191 -203 OFFCURVE",
"556 204 OFFCURVE",
"556 408 CURVE",
"418 329 LINE",
"418 200 OFFCURVE",
"367 67 OFFCURVE",
"271 -25 CURVE",
"269 -25 LINE",
"290 45 OFFCURVE",
"304 132 OFFCURVE",
"304 250 CURVE SMOOTH",
"304 399 OFFCURVE",
"269 520 OFFCURVE",
"182 520 CURVE SMOOTH",
"108 520 OFFCURVE",
"51 436 OFFCURVE",
"-1 370 CURVE",
"8 370 LINE",
"24 388 OFFCURVE",
"42 412 OFFCURVE",
"65 412 CURVE SMOOTH",
"110 412 OFFCURVE",
"139 315 OFFCURVE",
"139 180 CURVE SMOOTH",
"139 -14 OFFCURVE",
"100 -173 OFFCURVE",
"27 -173 CURVE SMOOTH",
"-9 -173 OFFCURVE",
"-40 -130 OFFCURVE",
"-75 -63 CURVE SMOOTH",
"-86 -42 LINE",
"-123 -63 OFFCURVE",
"-160 -99 OFFCURVE",
"-160 -141 CURVE SMOOTH"
);
},
{
closed = 1;
nodes = (
"556 483 OFFCURVE",
"514 520 OFFCURVE",
"467 520 CURVE SMOOTH",
"392 520 OFFCURVE",
"339 423 OFFCURVE",
"241 202 CURVE",
"250 196 LINE",
"333 389 OFFCURVE",
"358 412 OFFCURVE",
"381 412 CURVE SMOOTH",
"401 412 OFFCURVE",
"418 388 OFFCURVE",
"418 329 CURVE",
"556 408 LINE"
);
}
);
};
layerId = "C1BD152E-BBB7-4B88-9DA3-7174D04C5495";
paths = (
{
closed = 1;
nodes = (
"-160 -175 OFFCURVE",
"-130 -203 OFFCURVE",
"-65 -203 CURVE SMOOTH",
"191 -203 OFFCURVE",
"556 204 OFFCURVE",
"556 408 CURVE",
"418 329 LINE",
"418 190 OFFCURVE",
"367 59 OFFCURVE",
"271 -25 CURVE",
"269 -25 LINE",
"290 45 OFFCURVE",
"304 132 OFFCURVE",
"304 250 CURVE SMOOTH",
"304 399 OFFCURVE",
"269 520 OFFCURVE",
"182 520 CURVE SMOOTH",
"108 520 OFFCURVE",
"51 436 OFFCURVE",
"-1 370 CURVE",
"8 370 LINE",
"24 388 OFFCURVE",
"42 412 OFFCURVE",
"65 412 CURVE SMOOTH",
"110 412 OFFCURVE",
"139 315 OFFCURVE",
"139 180 CURVE SMOOTH",
"139 -14 OFFCURVE",
"100 -173 OFFCURVE",
"27 -173 CURVE SMOOTH",
"-10 -173 OFFCURVE",
"-39 -130 OFFCURVE",
"-75 -61 CURVE SMOOTH",
"-86 -40 LINE",
"-123 -61 OFFCURVE",
"-160 -98 OFFCURVE",
"-160 -140 CURVE SMOOTH"
);
},
{
closed = 1;
nodes = (
"556 483 OFFCURVE",
"514 520 OFFCURVE",
"467 520 CURVE SMOOTH",
"409 520 OFFCURVE",
"365 462 OFFCURVE",
"302 335 CURVE",
"241 335 LINE",
"250 196 LINE",
"333 389 OFFCURVE",
"357 412 OFFCURVE",
"380 412 CURVE SMOOTH",
"401 412 OFFCURVE",
"418 388 OFFCURVE",
"418 329 CURVE",
"556 408 LINE"
);
}
);
width = 555;
}
);
leftKerningGroup = y;
rightKerningGroup = y;
unicode = 0079;
},
{
color = 4;
glyphname = z;
lastChange = "2023-01-13 21:05:19 +0000";
layers = (
{
anchors = (
{
name = top;
position = "{334, 508}";
}
);
background = {
paths = (
{
closed = 1;
nodes = (
"-13 92 OFFCURVE",
"-37 60 OFFCURVE",
"-37 31 CURVE SMOOTH",
"-37 3 OFFCURVE",
"-15 -12 OFFCURVE",
"16 -12 CURVE SMOOTH",
"39 -12 OFFCURVE",
"59 -2 OFFCURVE",
"67 2 CURVE",
"60 26 LINE SMOOTH",
"35 110 OFFCURVE",
"54 126 OFFCURVE",
"69 126 CURVE SMOOTH",
"110 126 OFFCURVE",
"208 -12 OFFCURVE",
"327 -12 CURVE SMOOTH",
"424 -12 OFFCURVE",
"507 77 OFFCURVE",
"507 169 CURVE SMOOTH",
"507 230 OFFCURVE",
"465 262 OFFCURVE",
"426 262 CURVE SMOOTH",
"387 262 OFFCURVE",
"354 238 OFFCURVE",
"346 195 CURVE",
"367 188 LINE SMOOTH",
"416 172 OFFCURVE",
"478 144 OFFCURVE",
"478 107 CURVE SMOOTH",
"478 88 OFFCURVE",
"466 76 OFFCURVE",
"446 76 CURVE SMOOTH",
"382 76 OFFCURVE",
"264 209 OFFCURVE",
"198 209 CURVE",
"198 211 LINE",
"427 354 LINE SMOOTH",
"518 411 OFFCURVE",
"548 447 OFFCURVE",
"548 479 CURVE SMOOTH",
"548 504 OFFCURVE",
"530 520 OFFCURVE",
"502 520 CURVE SMOOTH",
"479 520 OFFCURVE",
"460 510 OFFCURVE",
"451 505 CURVE",
"459 482 LINE SMOOTH",
"485 406 OFFCURVE",
"475 391 OFFCURVE",
"456 391 CURVE SMOOTH",
"410 391 OFFCURVE",
"341 520 OFFCURVE",
"241 520 CURVE SMOOTH",
"141 520 OFFCURVE",
"52 417 OFFCURVE",
"52 354 CURVE SMOOTH",
"52 324 OFFCURVE",
"72 304 OFFCURVE",
"106 304 CURVE SMOOTH",
"130 304 OFFCURVE",
"146 314 OFFCURVE",
"154 320 CURVE",
"137 358 LINE SMOOTH",
"100 440 OFFCURVE",
"113 462 OFFCURVE",
"134 462 CURVE SMOOTH",
"173 462 OFFCURVE",
"257 307 OFFCURVE",
"328 307 CURVE",
"328 305 LINE",
"72 145 LINE SMOOTH"
);
}
);
};
layerId = "C1BD152E-BBB7-4B88-9DA3-7174D04C5495";
paths = (
{
closed = 1;
nodes = (
"-13 92 OFFCURVE",
"-37 60 OFFCURVE",
"-37 31 CURVE SMOOTH",
"-37 3 OFFCURVE",
"-15 -12 OFFCURVE",
"16 -12 CURVE SMOOTH",
"39 -12 OFFCURVE",
"59 -2 OFFCURVE",
"67 2 CURVE",
"60 26 LINE SMOOTH",
"35 110 OFFCURVE",
"54 126 OFFCURVE",
"69 126 CURVE SMOOTH",
"110 126 OFFCURVE",
"213 -12 OFFCURVE",
"339 -12 CURVE SMOOTH",
"434 -12 OFFCURVE",
"517 83 OFFCURVE",
"517 174 CURVE SMOOTH",
"517 234 OFFCURVE",
"473 266 OFFCURVE",
"434 266 CURVE SMOOTH",
"397 266 OFFCURVE",
"364 242 OFFCURVE",
"356 200 CURVE",
"377 193 LINE SMOOTH",
"426 177 OFFCURVE",
"488 149 OFFCURVE",
"488 111 CURVE SMOOTH",
"488 91 OFFCURVE",
"476 79 OFFCURVE",
"456 79 CURVE SMOOTH",
"388 79 OFFCURVE",
"267 209 OFFCURVE",
"199 209 CURVE",
"199 211 LINE",
"427 354 LINE SMOOTH",
"518 411 OFFCURVE",
"548 447 OFFCURVE",
"548 479 CURVE SMOOTH",
"548 504 OFFCURVE",
"530 520 OFFCURVE",
"502 520 CURVE SMOOTH",
"479 520 OFFCURVE",
"460 510 OFFCURVE",
"451 505 CURVE",
"459 482 LINE SMOOTH",
"485 406 OFFCURVE",
"475 391 OFFCURVE",
"456 391 CURVE SMOOTH",
"410 391 OFFCURVE",
"341 520 OFFCURVE",
"241 520 CURVE SMOOTH",
"141 520 OFFCURVE",
"52 417 OFFCURVE",
"52 354 CURVE SMOOTH",
"52 324 OFFCURVE",
"72 304 OFFCURVE",
"106 304 CURVE SMOOTH",
"130 304 OFFCURVE",
"146 314 OFFCURVE",
"154 320 CURVE",
"137 358 LINE SMOOTH",
"100 440 OFFCURVE",
"113 462 OFFCURVE",
"134 462 CURVE SMOOTH",
"173 462 OFFCURVE",
"260 306 OFFCURVE",
"326 306 CURVE",
"326 304 LINE",
"72 145 LINE SMOOTH"
);
}
);
width = 532;
}
);
leftKerningGroup = z;
rightKerningGroup = z;
unicode = 007A;
},
{
color = 4;
glyphname = T_h.dlig;
lastChange = "2022-12-21 12:57:05 +0000";
layers = (
{
anchors = (
{
name = bottom;
position = "{267, 0}";
},
{
name = top;
position = "{472, 712}";
}
);
background = {
paths = (
{
closed = 1;
nodes = (
"710 0 LINE",
"761 132 LINE SMOOTH",
"825 298 OFFCURVE",
"872 381 OFFCURVE",
"906 381 CURVE SMOOTH",
"954 381 OFFCURVE",
"979 223 OFFCURVE",
"978 150 CURVE SMOOTH",
"977 88 OFFCURVE",
"958 76 OFFCURVE",
"931 76 CURVE SMOOTH",
"907 76 OFFCURVE",
"873 86 OFFCURVE",
"829 100 CURVE SMOOTH",
"810 106 LINE",
"803 95 OFFCURVE",
"786 66 OFFCURVE",
"786 37 CURVE SMOOTH",
"786 8 OFFCURVE",
"802 -12 OFFCURVE",
"830 -12 CURVE SMOOTH",
"921 -12 OFFCURVE",
"1120 221 OFFCURVE",
"1120 379 CURVE SMOOTH",
"1120 465 OFFCURVE",
"1061 520 OFFCURVE",
"1004 520 CURVE SMOOTH",
"921 520 OFFCURVE",
"855 404 OFFCURVE",
"769 188 CURVE SMOOTH",
"748 135 LINE",
"739 135 LINE",
"927 786 LINE",
"926 786 LINE",
"670 712 LINE",
"670 707 LINE",
"729 703 LINE",
"528 0 LINE"
);
}
);
};
layerId = "C1BD152E-BBB7-4B88-9DA3-7174D04C5495";
paths = (
{
closed = 1;
nodes = (
"84 508 LINE",
"104 533 LINE SMOOTH",
"191 641 OFFCURVE",
"282 700 OFFCURVE",
"379 701 CURVE",
"379 701 LINE",
"185 25 LINE",
"109 5 LINE",
"109 0 LINE",
"438 0 LINE",
"438 5 LINE",
"374 25 LINE",
"568 701 LINE",
"804 701 LINE",
"734 712 LINE",
"211 712 LINE",
"221 770 LINE",
"217 770 LINE",
"78 508 LINE"
);
},
{
closed = 1;
nodes = (
"710 0 LINE",
"761 132 LINE SMOOTH",
"825 298 OFFCURVE",
"870 381 OFFCURVE",
"906 381 CURVE SMOOTH",
"950 381 OFFCURVE",
"977 227 OFFCURVE",
"976 150 CURVE SMOOTH",
"975 90 OFFCURVE",
"961 78 OFFCURVE",
"933 78 CURVE SMOOTH",
"910 78 OFFCURVE",
"870 87 OFFCURVE",
"825 102 CURVE SMOOTH",
"810 107 LINE",
"802 96 OFFCURVE",
"784 68 OFFCURVE",
"784 36 CURVE SMOOTH",
"784 7 OFFCURVE",
"798 -12 OFFCURVE",
"827 -12 CURVE SMOOTH",
"921 -12 OFFCURVE",
"1120 221 OFFCURVE",
"1120 379 CURVE SMOOTH",
"1120 465 OFFCURVE",
"1061 520 OFFCURVE",
"1004 520 CURVE SMOOTH",
"921 520 OFFCURVE",
"855 404 OFFCURVE",
"769 188 CURVE SMOOTH",
"748 135 LINE",
"739 135 LINE",
"927 786 LINE",
"926 786 LINE",
"670 712 LINE",
"670 707 LINE",
"729 703 LINE",
"528 0 LINE"
);
}
);
width = 1130;
}
);
leftKerningGroup = T;
leftMetricsKey = T;
rightKerningGroup = b;
rightMetricsKey = h;
},
{
color = 4;
glyphname = ordfeminine;
lastChange = "2022-12-21 17:36:32 +0000";
layers = (
{
anchors = (
{
name = ogonek;
position = "{411, 0}";
}
);
background = {
paths = (
{
closed = 1;
nodes = (
"427 407 OFFCURVE",
"473 466 OFFCURVE",
"510 509 CURVE",
"503 509 LINE",
"492 498 OFFCURVE",
"482 485 OFFCURVE",
"468 485 CURVE SMOOTH",
"456 485 OFFCURVE",
"445 498 OFFCURVE",
"459 545 CURVE SMOOTH",
"525 777 LINE",
"520 777 LINE",
"489 742 LINE",
"448 760 OFFCURVE",
"415 777 OFFCURVE",
"382 777 CURVE SMOOTH",
"282 777 OFFCURVE",
"112 635 OFFCURVE",
"112 507 CURVE SMOOTH",
"112 445 OFFCURVE",
"153 407 OFFCURVE",
"193 407 CURVE SMOOTH",
"251 407 OFFCURVE",
"282 492 OFFCURVE",
"350 639 CURVE SMOOTH",
"366 672 LINE",
"372 672 LINE",
"334 542 LINE SMOOTH",
"306 445 OFFCURVE",
"336 407 OFFCURVE",
"377 407 CURVE SMOOTH"
);
},
{
closed = 1;
nodes = (
"247 502 OFFCURVE",
"240 511 OFFCURVE",
"240 547 CURVE SMOOTH",
"240 645 OFFCURVE",
"303 762 OFFCURVE",
"347 762 CURVE SMOOTH",
"365 762 OFFCURVE",
"380 746 OFFCURVE",
"388 737 CURVE",
"344 643 LINE SMOOTH",
"298 546 OFFCURVE",
"275 502 OFFCURVE",
"258 502 CURVE SMOOTH"
);
}
);
};
layerId = "C1BD152E-BBB7-4B88-9DA3-7174D04C5495";
paths = (
{
closed = 1;
nodes = (
"248 502 OFFCURVE",
"240 511 OFFCURVE",
"240 547 CURVE SMOOTH",
"240 645 OFFCURVE",
"303 762 OFFCURVE",
"347 762 CURVE SMOOTH",
"366 762 OFFCURVE",
"379 749 OFFCURVE",
"387 742 CURVE",
"341 643 LINE SMOOTH",
"296 546 OFFCURVE",
"275 502 OFFCURVE",
"258 502 CURVE SMOOTH"
);
},
{
closed = 1;
nodes = (
"427 407 OFFCURVE",
"473 466 OFFCURVE",
"510 509 CURVE",
"502 509 LINE",
"492 498 OFFCURVE",
"482 485 OFFCURVE",
"469 485 CURVE SMOOTH",
"456 485 OFFCURVE",
"446 498 OFFCURVE",
"459 545 CURVE SMOOTH",
"525 777 LINE",
"520 777 LINE",
"489 742 LINE",
"448 760 OFFCURVE",
"415 777 OFFCURVE",
"382 777 CURVE SMOOTH",
"282 777 OFFCURVE",
"114 635 OFFCURVE",
"114 509 CURVE SMOOTH",
"114 449 OFFCURVE",
"155 407 OFFCURVE",
"196 407 CURVE SMOOTH",
"251 407 OFFCURVE",
"281 491 OFFCURVE",
"350 638 CURVE SMOOTH",
"366 672 LINE",
"373 672 LINE",
"334 542 LINE SMOOTH",
"305 445 OFFCURVE",
"336 407 OFFCURVE",
"377 407 CURVE SMOOTH"
);
}
);
width = 412;
}
);
leftMetricsKey = a;
rightMetricsKey = a;
unicode = 00AA;
},
{
color = 4;
glyphname = ordmasculine;
lastChange = "2023-01-13 21:05:19 +0000";
layers = (
{
anchors = (
{
name = ogonek;
position = "{335, 0}";
},
{
name = top;
position = "{287, 508}";
}
);
background = {
paths = (
{
closed = 1;
nodes = (
"481 725 OFFCURVE",
"421 777 OFFCURVE",
"337 777 CURVE SMOOTH",
"234 777 OFFCURVE",
"118 684 OFFCURVE",
"118 553 CURVE SMOOTH",
"118 462 OFFCURVE",
"178 407 OFFCURVE",
"261 407 CURVE SMOOTH",
"371 407 OFFCURVE",
"481 507 OFFCURVE",
"481 634 CURVE SMOOTH"
);
},
{
closed = 1;
nodes = (
"360 580 OFFCURVE",
"317 417 OFFCURVE",
"269 417 CURVE SMOOTH",
"252 417 OFFCURVE",
"240 442 OFFCURVE",
"240 509 CURVE SMOOTH",
"240 612 OFFCURVE",
"283 767 OFFCURVE",
"332 767 CURVE SMOOTH",
"349 767 OFFCURVE",
"360 746 OFFCURVE",
"360 683 CURVE SMOOTH"
);
}
);
};
layerId = "C1BD152E-BBB7-4B88-9DA3-7174D04C5495";
paths = (
{
closed = 1;
nodes = (
"480 731 OFFCURVE",
"423 777 OFFCURVE",
"348 777 CURVE SMOOTH",
"229 777 OFFCURVE",
"117 671 OFFCURVE",
"117 536 CURVE SMOOTH",
"117 455 OFFCURVE",
"172 407 OFFCURVE",
"248 407 CURVE SMOOTH",
"366 407 OFFCURVE",
"480 520 OFFCURVE",
"480 647 CURVE SMOOTH"
);
},
{
closed = 1;
nodes = (
"359 584 OFFCURVE",
"314 418 OFFCURVE",
"269 418 CURVE SMOOTH",
"247 418 OFFCURVE",
"238 452 OFFCURVE",
"238 506 CURVE SMOOTH",
"238 609 OFFCURVE",
"284 766 OFFCURVE",
"332 766 CURVE SMOOTH",
"349 766 OFFCURVE",
"359 736 OFFCURVE",
"359 686 CURVE SMOOTH"
);
}
);
width = 402;
}
);
leftMetricsKey = o;
rightMetricsKey = o;
unicode = 00BA;
},
{
color = 4;
glyphname = "Be-cy";
lastChange = "2022-12-21 17:05:13 +0000";
layers = (
{
layerId = "C1BD152E-BBB7-4B88-9DA3-7174D04C5495";
paths = (
{
closed = 1;
nodes = (
"199 25 LINE",
"393 701 LINE",
"393 701 LINE",
"496 701 OFFCURVE",
"552 637 OFFCURVE",
"581 533 CURVE SMOOTH",
"588 508 LINE",
"593 508 LINE",
"593 770 LINE",
"588 770 LINE",
"566 712 LINE",
"145 712 LINE",
"145 707 LINE",
"200 687 LINE",
"10 25 LINE"
);
},
{
closed = 1;
nodes = (
"277 0 LINE SMOOTH",
"490 0 OFFCURVE",
"598 88 OFFCURVE",
"598 210 CURVE SMOOTH",
"598 326 OFFCURVE",
"496 402 OFFCURVE",
"314 402 CURVE SMOOTH",
"308 402 LINE",
"389 687 LINE",
"147 712 LINE",
"145 707 LINE",
"200 687 LINE",
"10 25 LINE",
"-56 5 LINE",
"-56 0 LINE"
);
},
{
closed = 1;
nodes = (
"195 11 LINE",
"305 392 LINE",
"316 392 LINE SMOOTH",
"361 392 OFFCURVE",
"419 345 OFFCURVE",
"419 233 CURVE SMOOTH",
"419 83 OFFCURVE",
"341 11 OFFCURVE",
"262 11 CURVE SMOOTH"
);
}
);
width = 638;
}
);
leftKerningGroup = H;
leftMetricsKey = H;
rightKerningGroup = "Be-cy";
rightMetricsKey = P;
unicode = 0411;
},
{
color = 4;
glyphname = "Ge-cy";
lastChange = "2022-12-21 07:58:22 +0000";
layers = (
{
anchors = (
{
name = top;
position = "{407, 712}";
}
);
layerId = "C1BD152E-BBB7-4B88-9DA3-7174D04C5495";
paths = (
{
closed = 1;
nodes = (
"273 5 LINE",
"199 25 LINE",
"393 701 LINE",
"393 701 LINE",
"496 701 OFFCURVE",
"551 637 OFFCURVE",
"580 533 CURVE SMOOTH",
"587 508 LINE",
"593 508 LINE",
"593 770 LINE",
"588 770 LINE",
"566 712 LINE",
"145 712 LINE",
"145 707 LINE",
"200 687 LINE",
"10 25 LINE",
"-56 5 LINE",
"-56 0 LINE",
"273 0 LINE"
);
}
);
width = 525;
}
);
leftKerningGroup = H;
leftMetricsKey = H;
rightKerningGroup = T;
unicode = 0413;
},
{
color = 4;
glyphname = "Gheupturn-cy";
lastChange = "2022-12-21 07:58:22 +0000";
layers = (
{
layerId = "C1BD152E-BBB7-4B88-9DA3-7174D04C5495";
paths = (
{
closed = 1;
nodes = (
"273 0 LINE",
"273 5 LINE",
"199 25 LINE",
"393 701 LINE",
"578 701 LINE",
"663 879 LINE",
"657 879 LINE",
"586 767 OFFCURVE",
"494 712 OFFCURVE",
"358 712 CURVE SMOOTH",
"145 712 LINE",
"145 707 LINE",
"200 687 LINE",
"10 25 LINE",
"-56 5 LINE",
"-56 0 LINE"
);
}
);
width = 468;
}
);
leftKerningGroup = H;
leftMetricsKey = H;
rightKerningGroup = "Gheupturn-cy";
unicode = 0490;
},
{
color = 4;
glyphname = "De-cy";
lastChange = "2022-12-21 07:58:22 +0000";
layers = (
{
background = {
paths = (
{
closed = 1;
nodes = (
"557 12 LINE",
"355 12 LINE",
"351 0 LINE",
"481 0 OFFCURVE",
"511 -61 OFFCURVE",
"523 -148 CURVE SMOOTH",
"527 -180 LINE",
"532 -180 LINE"
);
},
{
closed = 1;
nodes = (
"-147 -180 LINE",
"-123 -146 LINE SMOOTH",
"-61 -59 OFFCURVE",
"3 0 OFFCURVE",
"132 0 CURVE",
"134 6 LINE",
"28 12 LINE",
"-59 29 LINE",
"-151 -180 LINE"
);
},
{
closed = 1;
nodes = (
"24 3 LINE",
"80 108 OFFCURVE",
"172 277 OFFCURVE",
"287 534 CURVE SMOOTH",
"362 700 LINE",
"503 700 LINE",
"306 12 LINE",
"-49 12 LINE",
"-52 0 LINE",
"486 0 LINE",
"683 687 LINE",
"749 707 LINE",
"751 712 LINE",
"229 712 LINE",
"227 707 LINE",
"282 687 LINE",
"268 618 OFFCURVE",
"244 502 OFFCURVE",
"226 439 CURVE SMOOTH",
"191 319 OFFCURVE",
"57 100 OFFCURVE",
"-11 6 CURVE"
);
}
);
};
layerId = "C1BD152E-BBB7-4B88-9DA3-7174D04C5495";
paths = (
{
closed = 1;
nodes = (
"30 3 LINE",
"89 108 OFFCURVE",
"214 328 OFFCURVE",
"297 544 CURVE SMOOTH",
"357 700 LINE",
"503 700 LINE",
"306 12 LINE",
"-47 12 LINE",
"-50 0 LINE",
"493 0 LINE",
"690 687 LINE",
"756 707 LINE",
"756 712 LINE",
"214 712 LINE",
"214 707 LINE",
"269 687 LINE",
"265 405 OFFCURVE",
"154 239 OFFCURVE",
"-11 6 CURVE"
);
},
{
closed = 1;
nodes = (
"-143 -180 LINE",
"-121 -146 LINE SMOOTH",
"-59 -51 OFFCURVE",
"3 0 OFFCURVE",
"136 0 CURVE",
"136 6 LINE",
"30 12 LINE",
"-57 29 LINE",
"-149 -180 LINE"
);
},
{
closed = 1;
nodes = (
"575 12 LINE",
"361 12 LINE",
"361 0 LINE",
"496 0 OFFCURVE",
"544 -50 OFFCURVE",
"565 -159 CURVE SMOOTH",
"569 -180 LINE",
"575 -180 LINE"
);
}
);
width = 644;
}
);
leftKerningGroup = "De-cy";
rightKerningGroup = "Tse-cy";
rightMetricsKey = "Tse-cy";
unicode = 0414;
},
{
color = 4;
glyphname = "Zhe-cy";
lastChange = "2022-12-21 07:58:22 +0000";
layers = (
{
background = {
paths = (
{
closed = 1;
nodes = (
"623 0 LINE",
"624 5 LINE",
"574 25 LINE",
"681 398 LINE",
"732 398 LINE",
"759 124 LINE SMOOTH",
"767 48 OFFCURVE",
"781 -5 OFFCURVE",
"850 -5 CURVE SMOOTH",
"892 -5 OFFCURVE",
"936 10 OFFCURVE",
"979 25 CURVE SMOOTH",
"1071 56 LINE",
"1073 63 LINE",
"1059 59 OFFCURVE",
"1047 56 OFFCURVE",
"1034 56 CURVE SMOOTH",
"1009 56 OFFCURVE",
"993 67 OFFCURVE",
"978 120 CURVE SMOOTH",
"863 518 LINE",
"1072 687 LINE",
"1159 707 LINE",
"1161 712 LINE",
"915 712 LINE",
"914 707 LINE",
"923 705 LINE SMOOTH",
"1006 687 OFFCURVE",
"1011 667 OFFCURVE",
"801 469 CURVE SMOOTH",
"738 410 LINE",
"685 410 LINE",
"764 687 LINE",
"821 707 LINE",
"822 712 LINE",
"527 712 LINE",
"526 707 LINE",
"580 687 LINE",
"391 25 LINE",
"325 5 LINE",
"323 0 LINE"
);
},
{
closed = 1;
nodes = (
"629 5 LINE",
"574 25 LINE",
"764 687 LINE",
"830 707 LINE",
"831 712 LINE",
"536 712 LINE",
"535 707 LINE",
"580 687 LINE",
"501 410 LINE",
"448 410 LINE",
"419 469 LINE SMOOTH",
"322 667 OFFCURVE",
"338 687 OFFCURVE",
"432 705 CURVE SMOOTH",
"442 707 LINE",
"444 712 LINE",
"198 712 LINE",
"196 707 LINE",
"273 687 LINE",
"384 518 LINE",
"42 120 LINE SMOOTH",
"-4 67 OFFCURVE",
"-26 56 OFFCURVE",
"-51 56 CURVE SMOOTH",
"-65 56 OFFCURVE",
"-75 59 OFFCURVE",
"-86 63 CURVE",
"-88 56 LINE",
"-14 25 LINE SMOOTH",
"20 10 OFFCURVE",
"55 -5 OFFCURVE",
"98 -5 CURVE SMOOTH",
"167 -5 OFFCURVE",
"211 48 OFFCURVE",
"262 124 CURVE SMOOTH",
"446 398 LINE",
"498 398 LINE",
"391 25 LINE",
"329 5 LINE",
"328 0 LINE",
"627 0 LINE"
);
}
);
};
layerId = "C1BD152E-BBB7-4B88-9DA3-7174D04C5495";
paths = (
{
closed = 1;
nodes = (
"74 0 LINE SMOOTH",
"172 0 OFFCURVE",
"219 34 OFFCURVE",
"310 180 CURVE SMOOTH",
"446 398 LINE",
"495 398 LINE",
"388 25 LINE",
"322 5 LINE",
"322 0 LINE",
"633 0 LINE",
"633 5 LINE",
"578 25 LINE",
"685 398 LINE",
"737 398 LINE",
"745 305 LINE SMOOTH",
"765 72 OFFCURVE",
"802 -10 OFFCURVE",
"889 -10 CURVE SMOOTH",
"947 -10 OFFCURVE",
"998 26 OFFCURVE",
"1094 138 CURVE",
"1085 138 LINE",
"1060 109 OFFCURVE",
"1047 101 OFFCURVE",
"1029 101 CURVE SMOOTH",
"981 101 OFFCURVE",
"955 164 OFFCURVE",
"901 410 CURVE SMOOTH",
"876 524 LINE",
"1075 687 LINE",
"1164 707 LINE",
"1164 712 LINE",
"919 712 LINE",
"919 707 LINE",
"928 705 LINE SMOOTH",
"1015 686 OFFCURVE",
"996 649 OFFCURVE",
"804 469 CURVE SMOOTH",
"741 410 LINE",
"689 410 LINE",
"768 687 LINE",
"835 707 LINE",
"835 712 LINE",
"523 712 LINE",
"523 707 LINE",
"578 687 LINE",
"498 410 LINE",
"449 410 LINE",
"411 485 LINE SMOOTH",
"321 663 OFFCURVE",
"322 684 OFFCURVE",
"424 704 CURVE SMOOTH",
"439 707 LINE",
"439 712 LINE",
"196 712 LINE",
"196 707 LINE",
"273 687 LINE",
"380 524 LINE",
"18 92 LINE SMOOTH",
"-42 21 OFFCURVE",
"-59 9 OFFCURVE",
"-101 6 CURVE",
"-101 0 LINE"
);
}
);
width = 1102;
}
);
leftKerningGroup = "Zhe-cy";
rightKerningGroup = K;
rightMetricsKey = K;
unicode = 0416;
},
{
color = 4;
glyphname = "Ze-cy";
lastChange = "2023-01-13 21:05:19 +0000";
layers = (
{
background = {
paths = (
{
closed = 1;
nodes = (
"1 14 LINE",
"29 7 OFFCURVE",
"87 -12 OFFCURVE",
"193 -12 CURVE SMOOTH",
"376 -12 OFFCURVE",
"531 86 OFFCURVE",
"531 240 CURVE SMOOTH",
"531 362 OFFCURVE",
"431 427 OFFCURVE",
"361 446 CURVE",
"361 448 LINE",
"499 492 OFFCURVE",
"577 549 OFFCURVE",
"577 608 CURVE SMOOTH",
"577 670 OFFCURVE",
"500 724 OFFCURVE",
"372 724 CURVE SMOOTH",
"308 724 OFFCURVE",
"244 705 OFFCURVE",
"210 696 CURVE",
"221 770 LINE",
"217 770 LINE",
"115 509 LINE",
"122 509 LINE",
"175 591 OFFCURVE",
"287 713 OFFCURVE",
"356 713 CURVE SMOOTH",
"385 713 OFFCURVE",
"407 688 OFFCURVE",
"407 624 CURVE SMOOTH",
"407 525 OFFCURVE",
"338 390 OFFCURVE",
"243 390 CURVE SMOOTH",
"166 390 LINE",
"166 378 LINE",
"213 378 LINE SMOOTH",
"272 378 OFFCURVE",
"324 334 OFFCURVE",
"324 230 CURVE SMOOTH",
"324 123 OFFCURVE",
"272 -1 OFFCURVE",
"192 -1 CURVE SMOOTH",
"88 -1 OFFCURVE",
"19 166 OFFCURVE",
"8 257 CURVE",
"1 257 LINE"
);
}
);
};
layerId = "C1BD152E-BBB7-4B88-9DA3-7174D04C5495";
paths = (
{
closed = 1;
nodes = (
"1 26 LINE",
"59 5 OFFCURVE",
"136 -12 OFFCURVE",
"207 -12 CURVE SMOOTH",
"406 -12 OFFCURVE",
"531 92 OFFCURVE",
"531 238 CURVE SMOOTH",
"531 340 OFFCURVE",
"460 418 OFFCURVE",
"361 446 CURVE",
"361 448 LINE",
"501 480 OFFCURVE",
"573 538 OFFCURVE",
"573 602 CURVE SMOOTH",
"573 673 OFFCURVE",
"488 724 OFFCURVE",
"372 724 CURVE SMOOTH",
"320 724 OFFCURVE",
"274 714 OFFCURVE",
"212 699 CURVE",
"216 770 LINE",
"212 770 LINE",
"115 509 LINE",
"121 509 LINE",
"193 610 OFFCURVE",
"294 713 OFFCURVE",
"357 713 CURVE SMOOTH",
"388 713 OFFCURVE",
"407 682 OFFCURVE",
"407 624 CURVE SMOOTH",
"407 505 OFFCURVE",
"327 390 OFFCURVE",
"243 390 CURVE SMOOTH",
"166 390 LINE",
"166 378 LINE",
"213 378 LINE SMOOTH",
"286 378 OFFCURVE",
"324 326 OFFCURVE",
"324 230 CURVE SMOOTH",
"324 107 OFFCURVE",
"264 -1 OFFCURVE",
"196 -1 CURVE SMOOTH",
"116 -1 OFFCURVE",
"24 128 OFFCURVE",
"8 257 CURVE",
"1 257 LINE"
);
}
);
width = 570;
}
);
leftKerningGroup = "Ze-cy";
rightKerningGroup = B;
rightMetricsKey = B;
unicode = 0417;
},
{
color = 4;
glyphname = "Ii-cy";
lastChange = "2023-01-13 21:05:19 +0000";
layers = (
{
anchors = (
{
name = top;
position = "{506, 712}";
}
);
background = {
paths = (
{
closed = 1;
nodes = (
"0 -25 LINE",
"562 532 LINE",
"416 25 LINE",
"348 5 LINE",
"348 0 LINE",
"660 0 LINE",
"660 5 LINE",
"606 25 LINE",
"797 687 LINE",
"862 707 LINE",
"862 712 LINE",
"704 712 LINE",
"265 254 LINE",
"389 687 LINE",
"456 707 LINE",
"456 712 LINE",
"145 712 LINE",
"145 707 LINE",
"199 687 LINE",
"-5 -25 LINE"
);
}
);
};
layerId = "C1BD152E-BBB7-4B88-9DA3-7174D04C5495";
paths = (
{
closed = 1;
nodes = (
"0 -25 LINE",
"561 532 LINE",
"562 532 LINE",
"416 25 LINE",
"348 5 LINE",
"348 0 LINE",
"660 0 LINE",
"660 5 LINE",
"606 25 LINE",
"797 687 LINE",
"862 707 LINE",
"862 712 LINE",
"704 712 LINE",
"266 254 LINE",
"265 254 LINE",
"389 687 LINE",
"456 707 LINE",
"456 712 LINE",
"145 712 LINE",
"145 707 LINE",
"199 687 LINE",
"-5 -25 LINE"
);
}
);
width = 747;
}
);
leftKerningGroup = "Ii-cy";
leftMetricsKey = H;
rightKerningGroup = H;
rightMetricsKey = H;
unicode = 0418;
},
{
color = 4;
glyphname = "El-cy";
lastChange = "2022-12-26 10:10:37 +0000";
layers = (
{
background = {
paths = (
{
closed = 1;
nodes = (
"-44 29 OFFCURVE",
"-29 -10 OFFCURVE",
"9 -10 CURVE SMOOTH",
"75 -10 OFFCURVE",
"181 94 OFFCURVE",
"369 517 CURVE SMOOTH",
"450 700 LINE",
"592 700 LINE",
"398 25 LINE",
"332 5 LINE",
"331 0 LINE",
"635 0 LINE",
"636 5 LINE",
"582 25 LINE",
"772 687 LINE",
"838 707 LINE",
"839 712 LINE",
"317 712 LINE",
"316 707 LINE",
"370 687 LINE",
"355 619 OFFCURVE",
"334 524 OFFCURVE",
"309 436 CURVE SMOOTH",
"269 297 OFFCURVE",
"204 183 OFFCURVE",
"108 183 CURVE SMOOTH",
"86 183 OFFCURVE",
"67 187 OFFCURVE",
"43 192 CURVE SMOOTH",
"22 196 LINE",
"8 173 OFFCURVE",
"-13 138 OFFCURVE",
"-25 95 CURVE SMOOTH"
);
}
);
};
layerId = "C1BD152E-BBB7-4B88-9DA3-7174D04C5495";
paths = (
{
closed = 1;
nodes = (
"393 25 LINE",
"326 5 LINE",
"326 0 LINE",
"636 0 LINE",
"636 5 LINE",
"582 25 LINE",
"772 687 LINE",
"837 707 LINE",
"837 712 LINE",
"297 712 LINE",
"297 707 LINE",
"351 687 LINE",
"347 382 OFFCURVE",
"244 185 OFFCURVE",
"78 185 CURVE SMOOTH",
"58 185 OFFCURVE",
"27 188 OFFCURVE",
"1 192 CURVE",
"-13 158 OFFCURVE",
"-26 123 OFFCURVE",
"-26 82 CURVE SMOOTH",
"-26 26 OFFCURVE",
"0 -12 OFFCURVE",
"44 -12 CURVE SMOOTH",
"131 -12 OFFCURVE",
"223 136 OFFCURVE",
"362 499 CURVE SMOOTH",
"439 700 LINE",
"587 700 LINE"
);
}
);
width = 723;
}
);
leftKerningGroup = "El-cy";
rightKerningGroup = H;
rightMetricsKey = H;
unicode = 041B;
},
{
color = 4;
glyphname = "Pe-cy";
lastChange = "2022-12-21 07:58:22 +0000";
layers = (
{
layerId = "C1BD152E-BBB7-4B88-9DA3-7174D04C5495";
paths = (
{
closed = 1;
nodes = (
"255 0 LINE",
"255 5 LINE",
"200 25 LINE",
"394 700 LINE",
"611 700 LINE",
"417 25 LINE",
"351 5 LINE",
"351 0 LINE",
"661 0 LINE",
"661 5 LINE",
"607 25 LINE",
"796 687 LINE",
"862 707 LINE",
"862 712 LINE",
"145 712 LINE",
"145 707 LINE",
"200 687 LINE",
"10 25 LINE",
"-56 5 LINE",
"-56 0 LINE"
);
}
);
width = 748;
}
);
leftKerningGroup = H;
leftMetricsKey = H;
rightKerningGroup = H;
rightMetricsKey = H;
unicode = 041F;
},
{
color = 4;
glyphname = "U-cy";
lastChange = "2022-12-21 07:58:22 +0000";
layers = (
{
anchors = (
{
name = top;
position = "{499, 712}";
}
);
background = {
paths = (
{
closed = 1;
nodes = (
"149 687 LINE",
"319 150 LINE",
"303 131 OFFCURVE",
"288 120 OFFCURVE",
"253 120 CURVE SMOOTH",
"221 120 OFFCURVE",
"191 129 OFFCURVE",
"129 151 CURVE SMOOTH",
"109 158 LINE",
"96 141 OFFCURVE",
"79 116 OFFCURVE",
"69 84 CURVE SMOOTH",
"53 27 OFFCURVE",
"74 -12 OFFCURVE",
"125 -12 CURVE SMOOTH",
"182 -12 OFFCURVE",
"252 53 OFFCURVE",
"345 168 CURVE SMOOTH",
"762 687 LINE",
"805 707 LINE",
"805 712 LINE",
"572 712 LINE",
"570 707 LINE",
"589 702 LINE SMOOTH",
"688 676 OFFCURVE",
"702 631 OFFCURVE",
"534 419 CURVE SMOOTH",
"473 342 LINE",
"367 687 LINE",
"442 707 LINE",
"444 712 LINE",
"115 712 LINE",
"114 707 LINE"
);
}
);
};
layerId = "C1BD152E-BBB7-4B88-9DA3-7174D04C5495";
paths = (
{
closed = 1;
nodes = (
"155 687 LINE",
"318 151 LINE",
"300 130 OFFCURVE",
"289 121 OFFCURVE",
"257 121 CURVE SMOOTH",
"234 121 OFFCURVE",
"205 127 OFFCURVE",
"119 152 CURVE SMOOTH",
"98 158 LINE",
"76 122 OFFCURVE",
"64 91 OFFCURVE",
"64 61 CURVE SMOOTH",
"64 16 OFFCURVE",
"89 -12 OFFCURVE",
"128 -12 CURVE SMOOTH",
"181 -12 OFFCURVE",
"247 42 OFFCURVE",
"362 186 CURVE SMOOTH",
"762 687 LINE",
"805 707 LINE",
"805 712 LINE",
"564 712 LINE",
"564 707 LINE",
"583 703 LINE SMOOTH",
"678 683 OFFCURVE",
"709 642 OFFCURVE",
"530 416 CURVE SMOOTH",
"466 335 LINE",
"361 687 LINE",
"436 707 LINE",
"436 712 LINE",
"116 712 LINE",
"116 707 LINE"
);
}
);
width = 655;
}
);
leftKerningGroup = "U-cy";
rightKerningGroup = "U-cy";
unicode = 0423;
},
{
color = 4;
glyphname = "Ef-cy";
lastChange = "2023-01-13 21:05:19 +0000";
layers = (
{
background = {
paths = (
{
closed = 1;
nodes = (
"232 5 LINE",
"231 0 LINE",
"561 0 LINE",
"563 5 LINE",
"497 25 LINE",
"687 687 LINE",
"764 707 LINE",
"765 712 LINE",
"435 712 LINE",
"434 707 LINE",
"499 687 LINE",
"309 25 LINE"
);
},
{
closed = 1;
nodes = (
"759 135 OFFCURVE",
"950 231 OFFCURVE",
"950 407 CURVE SMOOTH",
"950 519 OFFCURVE",
"837 601 OFFCURVE",
"660 601 CURVE",
"640 601 LINE",
"637 591 LINE",
"659 591 LINE",
"713 586 OFFCURVE",
"769 536 OFFCURVE",
"769 436 CURVE SMOOTH",
"769 287 OFFCURVE",
"679 146 OFFCURVE",
"542 146 CURVE SMOOTH",
"506 146 LINE",
"505 135 LINE",
"541 135 LINE SMOOTH"
);
},
{
closed = 1;
nodes = (
"244 601 OFFCURVE",
"53 505 OFFCURVE",
"53 329 CURVE SMOOTH",
"53 217 OFFCURVE",
"166 135 OFFCURVE",
"343 135 CURVE",
"363 135 LINE",
"366 145 LINE",
"344 145 LINE",
"290 150 OFFCURVE",
"234 200 OFFCURVE",
"234 300 CURVE SMOOTH",
"234 449 OFFCURVE",
"324 590 OFFCURVE",
"461 590 CURVE SMOOTH",
"497 590 LINE",
"498 601 LINE",
"462 601 LINE SMOOTH"
);
}
);
};
layerId = "C1BD152E-BBB7-4B88-9DA3-7174D04C5495";
paths = (
{
closed = 1;
nodes = (
"232 5 LINE",
"231 0 LINE",
"561 0 LINE",
"563 5 LINE",
"497 25 LINE",
"687 687 LINE",
"764 707 LINE",
"765 712 LINE",
"435 712 LINE",
"434 707 LINE",
"499 687 LINE",
"309 25 LINE"
);
},
{
closed = 1;
nodes = (
"799 135 OFFCURVE",
"947 231 OFFCURVE",
"947 391 CURVE SMOOTH",
"947 519 OFFCURVE",
"845 601 OFFCURVE",
"668 601 CURVE",
"640 601 LINE",
"637 591 LINE",
"667 591 LINE",
"711 591 OFFCURVE",
"769 546 OFFCURVE",
"769 420 CURVE SMOOTH",
"769 247 OFFCURVE",
"671 146 OFFCURVE",
"562 146 CURVE SMOOTH",
"506 146 LINE",
"505 135 LINE",
"571 135 LINE SMOOTH"
);
},
{
closed = 1;
nodes = (
"204 601 OFFCURVE",
"56 505 OFFCURVE",
"56 345 CURVE SMOOTH",
"56 217 OFFCURVE",
"158 135 OFFCURVE",
"335 135 CURVE",
"363 135 LINE",
"366 145 LINE",
"336 145 LINE",
"292 145 OFFCURVE",
"234 190 OFFCURVE",
"234 316 CURVE SMOOTH",
"234 489 OFFCURVE",
"332 590 OFFCURVE",
"441 590 CURVE SMOOTH",
"497 590 LINE",
"498 601 LINE",
"432 601 LINE SMOOTH"
);
}
);
width = 937;
}
);
leftKerningGroup = "Ef-cy";
rightKerningGroup = "Ef-cy";
unicode = 0424;
},
{
color = 4;
glyphname = "Che-cy";
lastChange = "2022-12-21 07:58:22 +0000";
layers = (
{
background = {
paths = (
{
closed = 1;
nodes = (
"94 351 OFFCURVE",
"138 291 OFFCURVE",
"247 291 CURVE SMOOTH",
"313 291 OFFCURVE",
"374 314 OFFCURVE",
"476 346 CURVE",
"572 207 LINE",
"622 384 LINE",
"479 358 LINE",
"459 351 OFFCURVE",
"427 340 OFFCURVE",
"393 340 CURVE SMOOTH",
"324 340 OFFCURVE",
"294 388 OFFCURVE",
"321 484 CURVE SMOOTH",
"379 687 LINE",
"445 707 LINE",
"447 712 LINE",
"141 712 LINE",
"140 707 LINE",
"190 687 LINE",
"131 480 LINE SMOOTH"
);
},
{
closed = 1;
nodes = (
"763 687 LINE",
"830 707 LINE",
"830 712 LINE",
"518 712 LINE",
"518 707 LINE",
"573 687 LINE",
"383 25 LINE",
"317 5 LINE",
"317 0 LINE",
"628 0 LINE",
"628 5 LINE",
"573 25 LINE"
);
}
);
};
layerId = "C1BD152E-BBB7-4B88-9DA3-7174D04C5495";
paths = (
{
closed = 1;
nodes = (
"330 291 OFFCURVE",
"397 312 OFFCURVE",
"472 335 CURVE",
"383 25 LINE",
"317 5 LINE",
"317 0 LINE",
"628 0 LINE",
"628 5 LINE",
"573 25 LINE",
"763 687 LINE",
"830 707 LINE",
"830 712 LINE",
"518 712 LINE",
"518 707 LINE",
"573 687 LINE",
"475 347 LINE",
"457 344 OFFCURVE",
"430 340 OFFCURVE",
"407 340 CURVE SMOOTH",
"324 340 OFFCURVE",
"296 397 OFFCURVE",
"321 484 CURVE SMOOTH",
"379 687 LINE",
"445 707 LINE",
"447 712 LINE",
"141 712 LINE",
"140 707 LINE",
"190 687 LINE",
"141 515 LINE SMOOTH",
"97 362 OFFCURVE",
"158 291 OFFCURVE",
"270 291 CURVE SMOOTH"
);
}
);
width = 715;
}
);
leftKerningGroup = "Che-cy";
rightKerningGroup = H;
rightMetricsKey = H;
unicode = 0427;
},
{
color = 4;
glyphname = "Tse-cy";
lastChange = "2022-12-21 07:58:22 +0000";
layers = (
{
background = {
paths = (
{
closed = 1;
nodes = (
"144 707 LINE",
"199 687 LINE",
"9 25 LINE",
"-57 5 LINE",
"-59 0 LINE",
"659 0 LINE",
"659 1 LINE",
"599 3 LINE",
"795 687 LINE",
"861 707 LINE",
"863 712 LINE",
"558 712 LINE",
"557 707 LINE",
"612 687 LINE",
"418 12 LINE",
"189 12 LINE",
"382 687 LINE",
"448 707 LINE",
"450 712 LINE",
"145 712 LINE"
);
},
{
closed = 1;
nodes = (
"669 12 LINE",
"467 12 LINE",
"463 0 LINE",
"593 0 OFFCURVE",
"624 -61 OFFCURVE",
"635 -148 CURVE SMOOTH",
"639 -180 LINE",
"644 -180 LINE"
);
}
);
};
layerId = "C1BD152E-BBB7-4B88-9DA3-7174D04C5495";
paths = (
{
closed = 1;
nodes = (
"550 712 LINE",
"550 707 LINE",
"605 687 LINE",
"411 12 LINE",
"195 12 LINE",
"389 687 LINE",
"455 707 LINE",
"455 712 LINE",
"145 712 LINE",
"145 707 LINE",
"199 687 LINE",
"10 25 LINE",
"-56 5 LINE",
"-56 0 LINE",
"662 0 LINE",
"662 5 LINE",
"599 3 LINE",
"795 687 LINE",
"861 707 LINE",
"861 712 LINE"
);
},
{
closed = 1;
nodes = (
"680 12 LINE",
"466 12 LINE",
"466 0 LINE",
"600 0 OFFCURVE",
"649 -50 OFFCURVE",
"670 -159 CURVE SMOOTH",
"674 -180 LINE",
"680 -180 LINE"
);
}
);
width = 749;
}
);
leftKerningGroup = H;
leftMetricsKey = H;
rightKerningGroup = "Tse-cy";
unicode = 0426;
},
{
color = 4;
glyphname = "Sha-cy";
lastChange = "2022-12-21 07:58:22 +0000";
layers = (
{
background = {
paths = (
{
closed = 1;
nodes = (
"1028 0 LINE",
"1029 5 LINE",
"975 25 LINE",
"1165 687 LINE",
"1231 707 LINE",
"1232 712 LINE",
"928 712 LINE",
"926 707 LINE",
"981 687 LINE",
"787 12 LINE",
"580 12 LINE",
"774 687 LINE",
"840 707 LINE",
"841 712 LINE",
"537 712 LINE",
"536 707 LINE",
"590 687 LINE",
"397 12 LINE",
"190 12 LINE",
"383 687 LINE",
"449 707 LINE",
"451 712 LINE",
"147 712 LINE",
"145 707 LINE",
"200 687 LINE",
"10 25 LINE",
"-56 5 LINE",
"-58 0 LINE"
);
}
);
};
layerId = "C1BD152E-BBB7-4B88-9DA3-7174D04C5495";
paths = (
{
closed = 1;
nodes = (
"1027 0 LINE",
"1027 5 LINE",
"972 25 LINE",
"1162 687 LINE",
"1228 707 LINE",
"1228 712 LINE",
"917 712 LINE",
"917 707 LINE",
"972 687 LINE",
"778 12 LINE",
"581 12 LINE",
"775 687 LINE",
"841 707 LINE",
"841 712 LINE",
"531 712 LINE",
"531 707 LINE",
"586 687 LINE",
"392 12 LINE",
"195 12 LINE",
"389 687 LINE",
"455 707 LINE",
"455 712 LINE",
"145 712 LINE",
"145 707 LINE",
"199 687 LINE",
"10 25 LINE",
"-56 5 LINE",
"-56 0 LINE"
);
}
);
width = 1114;
}
);
leftKerningGroup = H;
leftMetricsKey = H;
rightKerningGroup = H;
rightMetricsKey = H;
unicode = 0428;
},
{
color = 4;
glyphname = "Shcha-cy";
lastChange = "2022-12-21 07:58:22 +0000";
layers = (
{
layerId = "C1BD152E-BBB7-4B88-9DA3-7174D04C5495";
paths = (
{
closed = 1;
nodes = (
"1047 12 LINE",
"833 12 LINE",
"833 0 LINE",
"967 0 OFFCURVE",
"1016 -50 OFFCURVE",
"1037 -159 CURVE SMOOTH",
"1041 -180 LINE",
"1047 -180 LINE"
);
},
{
closed = 1;
nodes = (
"1027 0 LINE",
"1027 5 LINE",
"967 8 LINE",
"1162 687 LINE",
"1228 707 LINE",
"1228 712 LINE",
"917 712 LINE",
"917 707 LINE",
"972 687 LINE",
"778 12 LINE",
"581 12 LINE",
"775 687 LINE",
"841 707 LINE",
"841 712 LINE",
"531 712 LINE",
"531 707 LINE",
"586 687 LINE",
"392 12 LINE",
"195 12 LINE",
"389 687 LINE",
"455 707 LINE",
"455 712 LINE",
"145 712 LINE",
"145 707 LINE",
"199 687 LINE",
"10 25 LINE",
"-56 5 LINE",
"-56 0 LINE"
);
}
);
width = 1116;
}
);
leftKerningGroup = H;
leftMetricsKey = H;
rightKerningGroup = "Tse-cy";
rightMetricsKey = "Tse-cy";
unicode = 0429;
},
{
color = 4;
glyphname = "Softsign-cy";
lastChange = "2023-01-13 21:05:19 +0000";
layers = (
{
background = {
paths = (
{
closed = 1;
nodes = (
"233 0 LINE SMOOTH",
"470 0 OFFCURVE",
"600 90 OFFCURVE",
"600 220 CURVE SMOOTH",
"600 324 OFFCURVE",
"494 402 OFFCURVE",
"308 402 CURVE SMOOTH",
"308 402 LINE",
"389 687 LINE",
"462 707 LINE",
"462 712 LINE",
"145 712 LINE",
"145 707 LINE",
"200 687 LINE",
"10 25 LINE",
"-56 5 LINE",
"-56 0 LINE"
);
},
{
closed = 1;
nodes = (
"195 11 LINE",
"305 392 LINE",
"305 392 LINE",
"361 389 OFFCURVE",
"419 341 OFFCURVE",
"419 233 CURVE SMOOTH",
"419 103 OFFCURVE",
"341 11 OFFCURVE",
"232 11 CURVE SMOOTH"
);
}
);
};
layerId = "C1BD152E-BBB7-4B88-9DA3-7174D04C5495";
paths = (
{
closed = 1;
nodes = (
"277 0 LINE SMOOTH",
"490 0 OFFCURVE",
"598 88 OFFCURVE",
"598 210 CURVE SMOOTH",
"598 326 OFFCURVE",
"496 402 OFFCURVE",
"314 402 CURVE SMOOTH",
"308 402 LINE",
"389 687 LINE",
"462 707 LINE",
"462 712 LINE",
"145 712 LINE",
"145 707 LINE",
"200 687 LINE",
"10 25 LINE",
"-56 5 LINE",
"-56 0 LINE"
);
},
{
closed = 1;
nodes = (
"195 11 LINE",
"305 392 LINE",
"314 392 LINE SMOOTH",
"361 392 OFFCURVE",
"419 345 OFFCURVE",
"419 233 CURVE SMOOTH",
"419 83 OFFCURVE",
"341 11 OFFCURVE",
"262 11 CURVE SMOOTH"
);
}
);
width = 638;
}
);
leftKerningGroup = H;
leftMetricsKey = H;
rightKerningGroup = "Softsign-cy";
rightMetricsKey = P;
unicode = 042C;
},
{
color = 4;
glyphname = "E-cy";
lastChange = "2022-12-23 09:34:41 +0000";
layers = (
{
components = (
{
name = C;
}
);
layerId = "C1BD152E-BBB7-4B88-9DA3-7174D04C5495";
paths = (
{
closed = 1;
nodes = (
"175 380 LINE",
"491 380 LINE",
"491 392 LINE",
"175 392 LINE"
);
}
);
width = 681;
}
);
leftKerningGroup = O;
leftMetricsKey = C;
rightKerningGroup = C;
rightMetricsKey = C;
unicode = 0404;
},
{
color = 4;
glyphname = "Iu-cy";
lastChange = "2022-12-21 07:58:22 +0000";
layers = (
{
anchors = (
{
name = top;
position = "{505, 713}";
}
);
components = (
{
name = O;
transform = "{1, 0, 0, 1, 325, 0}";
}
);
layerId = "C1BD152E-BBB7-4B88-9DA3-7174D04C5495";
paths = (
{
closed = 1;
nodes = (
"521 389 LINE",
"304 389 LINE",
"390 687 LINE",
"457 707 LINE",
"457 712 LINE",
"145 712 LINE",
"145 707 LINE",
"200 687 LINE",
"10 25 LINE",
"-56 5 LINE",
"-56 0 LINE",
"255 0 LINE",
"255 5 LINE",
"200 25 LINE",
"301 377 LINE",
"518 377 LINE"
);
}
);
width = 1143;
}
);
leftKerningGroup = H;
leftMetricsKey = H;
rightKerningGroup = O;
rightMetricsKey = O;
unicode = 042E;
},
{
color = 4;
glyphname = "Ia-cy";
lastChange = "2023-01-13 21:05:19 +0000";
layers = (
{
background = {
paths = (
{
closed = 1;
nodes = (
"473 373 LINE",
"473 373 LINE SMOOTH",
"417 373 OFFCURVE",
"362 417 OFFCURVE",
"362 512 CURVE SMOOTH",
"362 616 OFFCURVE",
"427 701 OFFCURVE",
"534 701 CURVE SMOOTH",
"567 701 LINE"
);
},
{
closed = 1;
nodes = (
"84 0 LINE SMOOTH",
"187 0 OFFCURVE",
"237 51 OFFCURVE",
"302 188 CURVE SMOOTH",
"385 362 LINE",
"470 362 LINE",
"373 25 LINE",
"302 5 LINE",
"302 0 LINE",
"618 0 LINE",
"618 5 LINE",
"563 25 LINE",
"753 687 LINE",
"820 707 LINE",
"820 712 LINE",
"533 712 LINE SMOOTH",
"293 712 OFFCURVE",
"195 638 OFFCURVE",
"195 570 CURVE SMOOTH",
"195 525 OFFCURVE",
"237 489 OFFCURVE",
"349 481 CURVE",
"349 480 LINE",
"18 92 LINE SMOOTH",
"-44 19 OFFCURVE",
"-60 9 OFFCURVE",
"-101 6 CURVE",
"-101 0 LINE"
);
}
);
};
layerId = "C1BD152E-BBB7-4B88-9DA3-7174D04C5495";
paths = (
{
closed = 1;
nodes = (
"473 373 LINE",
"465 373 LINE SMOOTH",
"413 373 OFFCURVE",
"362 425 OFFCURVE",
"362 514 CURVE SMOOTH",
"362 632 OFFCURVE",
"429 701 OFFCURVE",
"518 701 CURVE SMOOTH",
"567 701 LINE"
);
},
{
closed = 1;
nodes = (
"84 0 LINE SMOOTH",
"187 0 OFFCURVE",
"237 51 OFFCURVE",
"302 188 CURVE SMOOTH",
"385 362 LINE",
"470 362 LINE",
"373 25 LINE",
"302 5 LINE",
"302 0 LINE",
"618 0 LINE",
"618 5 LINE",
"563 25 LINE",
"753 687 LINE",
"820 707 LINE",
"820 712 LINE",
"519 712 LINE SMOOTH",
"287 712 OFFCURVE",
"197 642 OFFCURVE",
"197 578 CURVE SMOOTH",
"197 531 OFFCURVE",
"239 489 OFFCURVE",
"349 481 CURVE",
"349 480 LINE",
"18 92 LINE SMOOTH",
"-44 19 OFFCURVE",
"-60 9 OFFCURVE",
"-101 6 CURVE",
"-101 0 LINE"
);
}
);
width = 705;
}
);
leftKerningGroup = "Ia-cy";
rightKerningGroup = H;
rightMetricsKey = H;
unicode = 042F;
},
{
color = 4;
glyphname = "be-cy";
lastChange = "2023-01-13 21:05:19 +0000";
layers = (
{
background = {
paths = (
{
closed = 1;
nodes = (
"188 696 OFFCURVE",
"17 392 OFFCURVE",
"17 176 CURVE SMOOTH",
"17 44 OFFCURVE",
"81 -10 OFFCURVE",
"154 -10 CURVE SMOOTH",
"294 -10 OFFCURVE",
"538 190 OFFCURVE",
"538 375 CURVE SMOOTH",
"538 464 OFFCURVE",
"480 518 OFFCURVE",
"423 518 CURVE SMOOTH",
"338 518 OFFCURVE",
"294 395 OFFCURVE",
"196 186 CURVE SMOOTH",
"174 139 LINE",
"165 139 LINE",
"217 322 LINE SMOOTH",
"251 442 OFFCURVE",
"179 471 OFFCURVE",
"179 528 CURVE SMOOTH",
"179 558 OFFCURVE",
"200 580 OFFCURVE",
"259 580 CURVE SMOOTH",
"455 580 LINE SMOOTH",
"546 580 OFFCURVE",
"581 639 OFFCURVE",
"626 717 CURVE SMOOTH",
"669 791 LINE",
"662 791 LINE",
"640 762 OFFCURVE",
"626 753 OFFCURVE",
"580 747 CURVE SMOOTH",
"518 739 LINE SMOOTH"
);
},
{
closed = 1;
nodes = (
"345 381 OFFCURVE",
"356 368 OFFCURVE",
"356 318 CURVE SMOOTH",
"356 179 OFFCURVE",
"270 10 OFFCURVE",
"201 10 CURVE SMOOTH",
"176 10 OFFCURVE",
"154 31 OFFCURVE",
"144 45 CURVE",
"207 181 LINE SMOOTH",
"271 320 OFFCURVE",
"302 381 OFFCURVE",
"331 381 CURVE SMOOTH"
);
}
);
};
layerId = "C1BD152E-BBB7-4B88-9DA3-7174D04C5495";
paths = (
{
closed = 1;
nodes = (
"345 381 OFFCURVE",
"356 368 OFFCURVE",
"356 318 CURVE SMOOTH",
"356 179 OFFCURVE",
"269 8 OFFCURVE",
"200 8 CURVE SMOOTH",
"175 8 OFFCURVE",
"153 29 OFFCURVE",
"143 43 CURVE",
"207 181 LINE SMOOTH",
"271 320 OFFCURVE",
"302 381 OFFCURVE",
"331 381 CURVE SMOOTH"
);
},
{
closed = 1;
nodes = (
"188 696 OFFCURVE",
"17 392 OFFCURVE",
"17 176 CURVE SMOOTH",
"17 42 OFFCURVE",
"80 -12 OFFCURVE",
"153 -12 CURVE SMOOTH",
"293 -12 OFFCURVE",
"538 190 OFFCURVE",
"538 375 CURVE SMOOTH",
"538 464 OFFCURVE",
"480 518 OFFCURVE",
"423 518 CURVE SMOOTH",
"338 518 OFFCURVE",
"294 395 OFFCURVE",
"196 186 CURVE SMOOTH",
"174 139 LINE",
"165 139 LINE",
"217 322 LINE SMOOTH",
"251 442 OFFCURVE",
"179 471 OFFCURVE",
"179 528 CURVE SMOOTH",
"179 558 OFFCURVE",
"200 580 OFFCURVE",
"259 580 CURVE SMOOTH",
"455 580 LINE SMOOTH",
"546 580 OFFCURVE",
"581 639 OFFCURVE",
"626 717 CURVE SMOOTH",
"669 791 LINE",
"662 791 LINE",
"640 762 OFFCURVE",
"626 753 OFFCURVE",
"580 747 CURVE SMOOTH",
"518 739 LINE SMOOTH"
);
}
);
width = 550;
}
);
leftKerningGroup = "be-cy";
rightKerningGroup = b;
rightMetricsKey = b;
unicode = 0431;
},
{
color = 4;
glyphname = "ve-cy";
lastChange = "2023-01-13 21:05:19 +0000";
layers = (
{
background = {
paths = (
{
closed = 1;
nodes = (
"14 67 OFFCURVE",
"95 -12 OFFCURVE",
"248 -12 CURVE SMOOTH",
"394 -12 OFFCURVE",
"501 66 OFFCURVE",
"501 176 CURVE SMOOTH",
"501 264 OFFCURVE",
"427 324 OFFCURVE",
"356 337 CURVE",
"356 339 LINE",
"424 354 OFFCURVE",
"518 385 OFFCURVE",
"518 436 CURVE SMOOTH",
"518 474 OFFCURVE",
"467 520 OFFCURVE",
"359 520 CURVE SMOOTH",
"178 520 OFFCURVE",
"14 385 OFFCURVE",
"14 199 CURVE SMOOTH"
);
},
{
closed = 1;
nodes = (
"178 266 OFFCURVE",
"248 508 OFFCURVE",
"328 508 CURVE SMOOTH",
"353 508 OFFCURVE",
"367 488 OFFCURVE",
"367 441 CURVE SMOOTH",
"367 364 OFFCURVE",
"328 286 OFFCURVE",
"266 286 CURVE SMOOTH",
"181 286 LINE",
"181 275 LINE",
"239 275 LINE SMOOTH",
"284 275 OFFCURVE",
"317 236 OFFCURVE",
"317 160 CURVE SMOOTH",
"317 79 OFFCURVE",
"280 -1 OFFCURVE",
"236 -1 CURVE SMOOTH",
"199 -1 OFFCURVE",
"178 41 OFFCURVE",
"178 131 CURVE SMOOTH"
);
}
);
};
layerId = "C1BD152E-BBB7-4B88-9DA3-7174D04C5495";
paths = (
{
closed = 1;
nodes = (
"18 65 OFFCURVE",
"99 -12 OFFCURVE",
"250 -12 CURVE SMOOTH",
"394 -12 OFFCURVE",
"501 66 OFFCURVE",
"501 176 CURVE SMOOTH",
"501 264 OFFCURVE",
"427 324 OFFCURVE",
"356 337 CURVE",
"356 339 LINE",
"424 354 OFFCURVE",
"518 385 OFFCURVE",
"518 436 CURVE SMOOTH",
"518 474 OFFCURVE",
"467 520 OFFCURVE",
"361 520 CURVE SMOOTH",
"184 520 OFFCURVE",
"18 364 OFFCURVE",
"18 184 CURVE SMOOTH"
);
},
{
closed = 1;
nodes = (
"182 276 OFFCURVE",
"252 508 OFFCURVE",
"332 508 CURVE SMOOTH",
"353 508 OFFCURVE",
"367 490 OFFCURVE",
"367 441 CURVE SMOOTH",
"367 364 OFFCURVE",
"328 286 OFFCURVE",
"266 286 CURVE SMOOTH",
"181 286 LINE",
"181 275 LINE",
"239 275 LINE SMOOTH",
"284 275 OFFCURVE",
"317 236 OFFCURVE",
"317 160 CURVE SMOOTH",
"317 77 OFFCURVE",
"282 -1 OFFCURVE",
"238 -1 CURVE SMOOTH",
"203 -1 OFFCURVE",
"182 39 OFFCURVE",
"182 129 CURVE SMOOTH"
);
}
);
width = 540;
}
);
leftKerningGroup = o;
leftMetricsKey = o;
rightKerningGroup = "ve-cy";
rightMetricsKey = "ze-cy";
unicode = 0432;
},
{
color = 4;
glyphname = "ge-cy";
lastChange = "2023-01-13 21:05:19 +0000";
layers = (
{
anchors = (
{
name = top;
position = "{291, 508}";
}
);
background = {
paths = (
{
closed = 1;
nodes = (
"78 370 LINE",
"94 388 OFFCURVE",
"144 444 OFFCURVE",
"197 444 CURVE SMOOTH",
"238 444 OFFCURVE",
"268 415 OFFCURVE",
"268 360 CURVE SMOOTH",
"268 205 OFFCURVE",
"-7 219 OFFCURVE",
"-7 95 CURVE SMOOTH",
"-7 36 OFFCURVE",
"40 -10 OFFCURVE",
"130 -10 CURVE SMOOTH",
"254 -10 OFFCURVE",
"312 75 OFFCURVE",
"364 138 CURVE",
"355 138 LINE",
"339 118 OFFCURVE",
"297 63 OFFCURVE",
"233 63 CURVE SMOOTH",
"183 63 OFFCURVE",
"151 92 OFFCURVE",
"151 139 CURVE SMOOTH",
"151 295 OFFCURVE",
"426 301 OFFCURVE",
"426 424 CURVE SMOOTH",
"426 472 OFFCURVE",
"379 518 OFFCURVE",
"301 518 CURVE SMOOTH",
"193 518 OFFCURVE",
"121 431 OFFCURVE",
"69 370 CURVE"
);
}
);
};
layerId = "C1BD152E-BBB7-4B88-9DA3-7174D04C5495";
paths = (
{
closed = 1;
nodes = (
"-11 36 OFFCURVE",
"34 -11 OFFCURVE",
"178 -11 CURVE SMOOTH",
"249 -11 OFFCURVE",
"307 1 OFFCURVE",
"337 9 CURVE",
"407 187 LINE",
"401 187 LINE",
"342 105 OFFCURVE",
"268 1 OFFCURVE",
"216 1 CURVE SMOOTH",
"188 1 OFFCURVE",
"167 24 OFFCURVE",
"166 71 CURVE SMOOTH",
"162 239 OFFCURVE",
"454 309 OFFCURVE",
"454 427 CURVE SMOOTH",
"454 473 OFFCURVE",
"405 520 OFFCURVE",
"287 520 CURVE SMOOTH",
"201 520 OFFCURVE",
"146 499 OFFCURVE",
"116 486 CURVE",
"77 336 LINE",
"83 336 LINE",
"138 414 OFFCURVE",
"200 508 OFFCURVE",
"250 508 CURVE SMOOTH",
"269 508 OFFCURVE",
"287 490 OFFCURVE",
"287 442 CURVE SMOOTH",
"287 262 OFFCURVE",
"-11 211 OFFCURVE",
"-11 84 CURVE SMOOTH"
);
}
);
width = 456;
}
);
leftKerningGroup = "ge-cy";
rightKerningGroup = "ge-cy";
unicode = 0433;
},
{
color = 4;
glyphname = "gheupturn-cy";
lastChange = "2023-01-13 21:05:19 +0000";
layers = (
{
background = {
paths = (
{
closed = 1;
nodes = (
"165 -200 LINE",
"166 -195 LINE",
"109 -175 LINE",
"302 498 LINE",
"453 498 LINE",
"538 675 LINE",
"533 675 LINE",
"465 579 OFFCURVE",
"386 508 OFFCURVE",
"269 508 CURVE SMOOTH",
"84 508 LINE",
"83 503 LINE",
"127 483 LINE",
"-62 -175 LINE",
"-117 -195 LINE",
"-119 -200 LINE"
);
}
);
};
layerId = "C1BD152E-BBB7-4B88-9DA3-7174D04C5495";
paths = (
{
closed = 1;
nodes = (
"-249 -171 OFFCURVE",
"-218 -200 OFFCURVE",
"-159 -200 CURVE SMOOTH",
"6 -200 OFFCURVE",
"144 -72 OFFCURVE",
"204 140 CURVE SMOOTH",
"306 499 LINE",
"335 485 OFFCURVE",
"377 464 OFFCURVE",
"399 464 CURVE SMOOTH",
"423 464 OFFCURVE",
"440 481 OFFCURVE",
"468 538 CURVE SMOOTH",
"534 675 LINE",
"528 675 LINE",
"450 548 OFFCURVE",
"394 508 OFFCURVE",
"279 508 CURVE SMOOTH",
"134 508 LINE",
"-36 -87 LINE SMOOTH",
"-53 -148 OFFCURVE",
"-70 -182 OFFCURVE",
"-101 -182 CURVE SMOOTH",
"-134 -182 OFFCURVE",
"-163 -134 OFFCURVE",
"-191 -85 CURVE SMOOTH",
"-203 -64 LINE",
"-224 -80 OFFCURVE",
"-249 -105 OFFCURVE",
"-249 -136 CURVE SMOOTH"
);
}
);
width = 388;
}
);
leftKerningGroup = "gheupturn-cy";
rightKerningGroup = "gheupturn-cy";
unicode = 0491;
},
{
color = 4;
glyphname = "zhe-cy";
lastChange = "2023-01-13 21:05:19 +0000";
layers = (
{
background = {
paths = (
{
closed = 1;
nodes = (
"352 277 LINE",
"272 1 LINE",
"444 0 LINE",
"501 202 LINE",
"538 245 LINE",
"540 245 LINE",
"548 96 OFFCURVE",
"561 -10 OFFCURVE",
"646 -10 CURVE SMOOTH",
"708 -10 OFFCURVE",
"764 60 OFFCURVE",
"828 138 CURVE",
"819 138 LINE",
"797 112 OFFCURVE",
"784 101 OFFCURVE",
"763 101 CURVE SMOOTH",
"708 101 OFFCURVE",
"671 205 OFFCURVE",
"646 365 CURVE",
"670 389 OFFCURVE",
"715 406 OFFCURVE",
"828 374 CURVE SMOOTH",
"842 370 LINE",
"861 402 OFFCURVE",
"871 435 OFFCURVE",
"871 462 CURVE SMOOTH",
"871 497 OFFCURVE",
"855 518 OFFCURVE",
"827 518 CURVE SMOOTH",
"785 518 OFFCURVE",
"728 474 OFFCURVE",
"615 347 CURVE SMOOTH",
"511 231 LINE",
"508 231 LINE",
"671 791 LINE",
"670 791 LINE",
"409 712 LINE",
"409 707 LINE",
"469 690 LINE",
"360 306 LINE"
);
},
{
closed = 1;
nodes = (
"360 306 LINE",
"323 264 LINE",
"321 264 LINE",
"313 412 OFFCURVE",
"288 518 OFFCURVE",
"219 518 CURVE SMOOTH",
"159 518 OFFCURVE",
"104 448 OFFCURVE",
"39 370 CURVE",
"48 370 LINE",
"70 396 OFFCURVE",
"84 407 OFFCURVE",
"105 407 CURVE SMOOTH",
"157 407 OFFCURVE",
"190 303 OFFCURVE",
"215 143 CURVE",
"191 119 OFFCURVE",
"146 102 OFFCURVE",
"33 134 CURVE SMOOTH",
"19 138 LINE",
"0 106 OFFCURVE",
"-10 73 OFFCURVE",
"-10 46 CURVE SMOOTH",
"-10 11 OFFCURVE",
"6 -10 OFFCURVE",
"34 -10 CURVE SMOOTH",
"76 -10 OFFCURVE",
"134 34 OFFCURVE",
"246 161 CURVE SMOOTH",
"349 277 LINE",
"352 277 LINE"
);
}
);
};
layerId = "C1BD152E-BBB7-4B88-9DA3-7174D04C5495";
paths = (
{
closed = 1;
nodes = (
"352 277 LINE",
"272 1 LINE",
"444 0 LINE",
"502 205 LINE",
"543 248 LINE",
"545 248 LINE",
"551 94 OFFCURVE",
"565 -10 OFFCURVE",
"650 -10 CURVE SMOOTH",
"714 -10 OFFCURVE",
"770 60 OFFCURVE",
"834 138 CURVE",
"825 138 LINE",
"803 112 OFFCURVE",
"790 101 OFFCURVE",
"770 101 CURVE SMOOTH",
"720 101 OFFCURVE",
"685 205 OFFCURVE",
"656 367 CURVE",
"678 389 OFFCURVE",
"721 406 OFFCURVE",
"834 374 CURVE SMOOTH",
"848 370 LINE",
"867 402 OFFCURVE",
"877 435 OFFCURVE",
"877 462 CURVE SMOOTH",
"877 499 OFFCURVE",
"862 520 OFFCURVE",
"834 520 CURVE SMOOTH",
"792 520 OFFCURVE",
"741 469 OFFCURVE",
"623 347 CURVE SMOOTH",
"511 231 LINE",
"508 231 LINE",
"670 786 LINE",
"669 786 LINE",
"409 712 LINE",
"409 707 LINE",
"469 690 LINE",
"359 303 LINE"
);
},
{
closed = 1;
nodes = (
"359 303 LINE",
"318 261 LINE",
"316 261 LINE",
"308 416 OFFCURVE",
"288 518 OFFCURVE",
"219 518 CURVE SMOOTH",
"155 518 OFFCURVE",
"102 448 OFFCURVE",
"37 370 CURVE",
"46 370 LINE",
"68 396 OFFCURVE",
"82 407 OFFCURVE",
"102 407 CURVE SMOOTH",
"149 407 OFFCURVE",
"178 303 OFFCURVE",
"205 141 CURVE",
"183 119 OFFCURVE",
"140 100 OFFCURVE",
"21 134 CURVE SMOOTH",
"7 138 LINE",
"-12 106 OFFCURVE",
"-22 73 OFFCURVE",
"-22 46 CURVE SMOOTH",
"-22 9 OFFCURVE",
"-7 -12 OFFCURVE",
"23 -12 CURVE SMOOTH",
"69 -12 OFFCURVE",
"121 38 OFFCURVE",
"238 161 CURVE SMOOTH",
"349 277 LINE",
"352 277 LINE"
);
}
);
width = 867;
}
);
leftKerningGroup = "zhe-cy";
rightKerningGroup = "zhe-cy";
unicode = 0436;
},
{
color = 4;
glyphname = "ze-cy";
lastChange = "2023-01-13 21:05:19 +0000";
layers = (
{
background = {
paths = (
{
closed = 1;
nodes = (
"-14 37 OFFCURVE",
"35 -12 OFFCURVE",
"157 -12 CURVE SMOOTH",
"312 -12 OFFCURVE",
"425 68 OFFCURVE",
"425 176 CURVE SMOOTH",
"425 264 OFFCURVE",
"351 324 OFFCURVE",
"280 337 CURVE",
"280 339 LINE",
"348 354 OFFCURVE",
"442 385 OFFCURVE",
"442 436 CURVE SMOOTH",
"442 473 OFFCURVE",
"393 520 OFFCURVE",
"283 520 CURVE SMOOTH",
"203 520 OFFCURVE",
"150 499 OFFCURVE",
"120 486 CURVE",
"81 336 LINE",
"87 336 LINE",
"142 414 OFFCURVE",
"203 508 OFFCURVE",
"254 508 CURVE SMOOTH",
"276 508 OFFCURVE",
"291 488 OFFCURVE",
"291 441 CURVE SMOOTH",
"291 364 OFFCURVE",
"252 286 OFFCURVE",
"190 286 CURVE SMOOTH",
"121 286 LINE",
"121 275 LINE",
"156 275 LINE SMOOTH",
"207 275 OFFCURVE",
"241 236 OFFCURVE",
"241 159 CURVE SMOOTH",
"241 79 OFFCURVE",
"204 -1 OFFCURVE",
"159 -1 CURVE SMOOTH",
"121 -1 OFFCURVE",
"93 64 OFFCURVE",
"58 157 CURVE SMOOTH",
"49 181 LINE",
"18 162 OFFCURVE",
"-14 130 OFFCURVE",
"-14 88 CURVE SMOOTH"
);
}
);
};
layerId = "C1BD152E-BBB7-4B88-9DA3-7174D04C5495";
paths = (
{
closed = 1;
nodes = (
"-14 37 OFFCURVE",
"37 -12 OFFCURVE",
"173 -12 CURVE SMOOTH",
"318 -12 OFFCURVE",
"424 64 OFFCURVE",
"424 176 CURVE SMOOTH",
"424 264 OFFCURVE",
"351 324 OFFCURVE",
"280 337 CURVE",
"280 339 LINE",
"348 354 OFFCURVE",
"442 385 OFFCURVE",
"442 436 CURVE SMOOTH",
"442 473 OFFCURVE",
"393 520 OFFCURVE",
"283 520 CURVE SMOOTH",
"203 520 OFFCURVE",
"150 499 OFFCURVE",
"120 486 CURVE",
"81 336 LINE",
"87 336 LINE",
"142 414 OFFCURVE",
"203 508 OFFCURVE",
"253 508 CURVE SMOOTH",
"275 508 OFFCURVE",
"291 488 OFFCURVE",
"291 441 CURVE SMOOTH",
"291 364 OFFCURVE",
"252 286 OFFCURVE",
"190 286 CURVE SMOOTH",
"121 286 LINE",
"121 275 LINE",
"156 275 LINE SMOOTH",
"207 275 OFFCURVE",
"241 236 OFFCURVE",
"241 159 CURVE SMOOTH",
"241 79 OFFCURVE",
"206 -1 OFFCURVE",
"167 -1 CURVE SMOOTH",
"123 -1 OFFCURVE",
"93 64 OFFCURVE",
"58 157 CURVE SMOOTH",
"49 181 LINE",
"18 162 OFFCURVE",
"-14 130 OFFCURVE",
"-14 88 CURVE SMOOTH"
);
}
);
width = 463;
}
);
leftKerningGroup = "ze-cy";
rightKerningGroup = "ve-cy";
unicode = 0437;
},
{
color = 4;
glyphname = "ii-cy";
lastChange = "2023-01-13 21:05:19 +0000";
layers = (
{
anchors = (
{
name = top;
position = "{341, 508}";
}
);
background = {
paths = (
{
closed = 1;
nodes = (
"17 370 LINE",
"33 388 OFFCURVE",
"53 412 OFFCURVE",
"76 412 CURVE SMOOTH",
"93 412 OFFCURVE",
"105 398 OFFCURVE",
"93 360 CURVE SMOOTH",
"-25 -25 LINE",
"-20 -25 LINE",
"358 341 LINE",
"363 341 LINE",
"315 179 LINE SMOOTH",
"275 45 OFFCURVE",
"322 -10 OFFCURVE",
"379 -10 CURVE SMOOTH",
"451 -10 OFFCURVE",
"515 75 OFFCURVE",
"567 138 CURVE",
"558 138 LINE",
"542 120 OFFCURVE",
"526 101 OFFCURVE",
"507 101 CURVE SMOOTH",
"488 101 OFFCURVE",
"474 121 OFFCURVE",
"492 186 CURVE SMOOTH",
"582 508 LINE",
"491 508 LINE",
"230 227 LINE",
"225 227 LINE",
"264 347 LINE SMOOTH",
"303 466 OFFCURVE",
"262 518 OFFCURVE",
"203 518 CURVE SMOOTH",
"127 518 OFFCURVE",
"60 436 OFFCURVE",
"8 370 CURVE"
);
}
);
};
layerId = "C1BD152E-BBB7-4B88-9DA3-7174D04C5495";
paths = (
{
closed = 1;
nodes = (
"17 370 LINE",
"33 388 OFFCURVE",
"53 412 OFFCURVE",
"75 412 CURVE SMOOTH",
"93 412 OFFCURVE",
"105 398 OFFCURVE",
"88 342 CURVE SMOOTH",
"-25 -25 LINE",
"-20 -25 LINE",
"361 338 LINE",
"362 338 LINE",
"315 179 LINE SMOOTH",
"275 43 OFFCURVE",
"320 -12 OFFCURVE",
"377 -12 CURVE SMOOTH",
"449 -12 OFFCURVE",
"514 75 OFFCURVE",
"566 138 CURVE",
"557 138 LINE",
"541 120 OFFCURVE",
"525 101 OFFCURVE",
"506 101 CURVE SMOOTH",
"487 101 OFFCURVE",
"472 121 OFFCURVE",
"491 186 CURVE SMOOTH",
"583 508 LINE",
"499 508 LINE",
"225 223 LINE",
"224 223 LINE",
"258 329 LINE SMOOTH",
"303 469 OFFCURVE",
"258 520 OFFCURVE",
"201 520 CURVE SMOOTH",
"129 520 OFFCURVE",
"60 435 OFFCURVE",
"8 370 CURVE"
);
}
);
width = 574;
}
);
leftKerningGroup = n;
leftMetricsKey = n;
rightKerningGroup = a;
rightMetricsKey = u;
unicode = 0438;
},
{
color = 4;
glyphname = "el-cy";
lastChange = "2023-01-13 21:05:19 +0000";
layers = (
{
background = {
paths = (
{
closed = 1;
nodes = (
"259 63 OFFCURVE",
"291 -10 OFFCURVE",
"358 -10 CURVE SMOOTH",
"418 -10 OFFCURVE",
"490 75 OFFCURVE",
"541 136 CURVE",
"532 136 LINE",
"517 120 OFFCURVE",
"500 101 OFFCURVE",
"483 101 CURVE SMOOTH",
"463 101 OFFCURVE",
"449 120 OFFCURVE",
"468 186 CURVE SMOOTH",
"561 508 LINE",
"387 508 LINE",
"294 184 LINE SMOOTH"
);
},
{
closed = 1;
nodes = (
"-12 18 OFFCURVE",
"8 -10 OFFCURVE",
"38 -10 CURVE SMOOTH",
"89 -10 OFFCURVE",
"125 64 OFFCURVE",
"213 271 CURVE SMOOTH",
"309 497 LINE",
"451 497 LINE",
"451 508 LINE",
"226 508 LINE",
"226 497 LINE SMOOTH",
"226 270 OFFCURVE",
"179 136 OFFCURVE",
"24 136 CURVE SMOOTH",
"1 136 LINE",
"-5 120 OFFCURVE",
"-12 96 OFFCURVE",
"-12 67 CURVE SMOOTH"
);
}
);
};
layerId = "C1BD152E-BBB7-4B88-9DA3-7174D04C5495";
paths = (
{
closed = 1;
nodes = (
"-12 17 OFFCURVE",
"8 -12 OFFCURVE",
"42 -12 CURVE SMOOTH",
"93 -12 OFFCURVE",
"133 53 OFFCURVE",
"207 253 CURVE SMOOTH",
"297 497 LINE",
"451 497 LINE",
"451 508 LINE",
"212 508 LINE",
"212 457 LINE SMOOTH",
"212 212 OFFCURVE",
"173 138 OFFCURVE",
"26 138 CURVE SMOOTH",
"2 138 LINE",
"-4 121 OFFCURVE",
"-12 94 OFFCURVE",
"-12 65 CURVE SMOOTH"
);
},
{
closed = 1;
nodes = (
"247 41 OFFCURVE",
"290 -12 OFFCURVE",
"347 -12 CURVE SMOOTH",
"419 -12 OFFCURVE",
"484 75 OFFCURVE",
"536 138 CURVE",
"527 138 LINE",
"511 120 OFFCURVE",
"495 101 OFFCURVE",
"477 101 CURVE SMOOTH",
"458 101 OFFCURVE",
"443 121 OFFCURVE",
"462 186 CURVE SMOOTH",
"555 508 LINE",
"381 508 LINE",
"288 184 LINE SMOOTH"
);
}
);
width = 544;
}
);
leftKerningGroup = "el-cy";
rightKerningGroup = a;
rightMetricsKey = u;
unicode = 043B;
},
